SplineFontDB: 3.2
FontName: tmil54
FullName: tmil54
FamilyName: tmil54
Weight: regular
Copyright: Copyright (c) 2016, Ek Type. All rights reserved.
Version: 1.000
ItalicAngle: 0
UnderlinePosition: -133
UnderlineWidth: 20
Ascent: 800
Descent: 200
InvalidEm: 0
sfntRevision: 0x000289ba
LayerCount: 2
Layer: 0 1 "Back" 1
Layer: 1 1 "Fore" 0
XUID: [1021 426 849761687 11982414]
StyleMap: 0x0040
FSType: 0
OS2Version: 3
OS2_WeightWidthSlopeOnly: 0
OS2_UseTypoMetrics: 0
CreationTime: 1495124585
ModificationTime: 1655376497
PfmFamily: 17
TTFWeight: 400
TTFWidth: 5
LineGap: 0
VLineGap: 0
Panose: 2 11 0 0 0 0 0 0 0 0
OS2TypoAscent: 1130
OS2TypoAOffset: 0
OS2TypoDescent: -532
OS2TypoDOffset: 0
OS2TypoLinegap: 0
OS2WinAscent: 1130
OS2WinAOffset: 0
OS2WinDescent: 532
OS2WinDOffset: 0
HheadAscent: 1130
HheadAOffset: 0
HheadDescent: -532
HheadDOffset: 0
OS2SubXSize: 650
OS2SubYSize: 600
OS2SubXOff: 0
OS2SubYOff: 75
OS2SupXSize: 650
OS2SupYSize: 600
OS2SupXOff: 0
OS2SupYOff: 350
OS2StrikeYSize: 20
OS2StrikeYPos: 280
OS2CapHeight: 630
OS2XHeight: 468
OS2Vendor: 'EKTF'
OS2CodePages: 20000093.00000000
OS2UnicodeRanges: a010002f.4000204a.00000000.00000000
Lookup: 1 0 0 "'onum' Oldstyle Figures lookup 0" { "'onum' Oldstyle Figures lookup 0 subtable" ("oldstyle") } ['onum' ('DFLT' <'dflt' > 'latn' <'dflt' > 'taml' <'dflt' > 'tml2' <'dflt' > ) ]
Lookup: 4 0 1 "'liga' Standard Ligatures lookup 1" { "'liga' Standard Ligatures lookup 1 subtable"  } ['liga' ('DFLT' <'dflt' > 'latn' <'dflt' > 'taml' <'dflt' > 'tml2' <'dflt' > ) ]
Lookup: 4 0 0 "'dlig' Discretionary Ligatures lookup 2" { "'dlig' Discretionary Ligatures lookup 2 subtable"  } ['dlig' ('DFLT' <'dflt' > 'latn' <'dflt' > 'taml' <'dflt' > 'tml2' <'dflt' > ) ]
Lookup: 1 0 0 "'smcp' Lowercase to Small Capitals lookup 3" { "'smcp' Lowercase to Small Capitals lookup 3 subtable"  } ['smcp' ('DFLT' <'dflt' > 'latn' <'dflt' > 'taml' <'dflt' > 'tml2' <'dflt' > ) ]

StartChar: .notdef
Encoding: 65536 -1 0
Width: 500
Flags: W
LayerCount: 2
Fore
SplineSet
0 700 m 1,0,-1
 500 700 l 1,1,-1
 500 0 l 1,2,-1
 0 0 l 1,3,-1
 0 700 l 1,0,-1
420 650 m 1,4,-1
 80 650 l 1,5,-1
 250 395 l 1,6,-1
 420 650 l 1,4,-1
450 95 m 1,7,-1
 450 605 l 1,8,-1
 280 350 l 1,9,-1
 450 95 l 1,7,-1
420 50 m 1,10,-1
 250 305 l 1,11,-1
 80 50 l 1,12,-1
 420 50 l 1,10,-1
50 95 m 1,13,-1
 220 350 l 1,14,-1
 50 605 l 1,15,-1
 50 95 l 1,13,-1
EndSplineSet
EndChar

StartChar: exclam.lat
Encoding: 65537 -1 4
Width: 247
GlyphClass: 2
Flags: W
LayerCount: 2
Fore
SplineSet
77 710 m 1,0,-1
 171 710 l 1,1,-1
 159 209 l 1,2,-1
 87 209 l 1,3,-1
 77 710 l 1,0,-1
63 54 m 0,4,5
 63 80 63 80 81 98 c 128,-1,6
 99 116 99 116 124 116 c 256,7,8
 149 116 149 116 166.5 98 c 128,-1,9
 184 80 184 80 184 54 c 0,10,11
 184 25 184 25 166.5 8 c 128,-1,12
 149 -9 149 -9 124 -9 c 256,13,14
 99 -9 99 -9 81 8 c 128,-1,15
 63 25 63 25 63 54 c 0,4,5
EndSplineSet
EndChar

StartChar: quotedbl.lat
Encoding: 65538 -1 5
Width: 324
GlyphClass: 2
Flags: W
LayerCount: 2
Fore
SplineSet
190 645 m 1,0,-1
 273 645 l 1,1,-1
 257 428 l 1,2,-1
 205 428 l 1,3,-1
 190 645 l 1,0,-1
51 645 m 1,4,-1
 134 645 l 1,5,-1
 119 428 l 1,6,-1
 67 428 l 1,7,-1
 51 645 l 1,4,-1
EndSplineSet
EndChar

StartChar: numbersign.lat
Encoding: 65539 -1 6
Width: 620
GlyphClass: 2
Flags: W
LayerCount: 2
Fore
SplineSet
260 469 m 1,0,-1
 230 282 l 1,1,-1
 376 282 l 1,2,-1
 406 469 l 1,3,-1
 260 469 l 1,0,-1
450 740 m 1,4,-1
 517 740 l 1,5,-1
 484 537 l 1,6,-1
 586 537 l 1,7,-1
 586 469 l 1,8,-1
 474 469 l 1,9,-1
 443 282 l 1,10,-1
 552 282 l 1,11,-1
 552 214 l 1,12,-1
 434 214 l 1,13,-1
 399 0 l 1,14,-1
 331 0 l 1,15,-1
 365 214 l 1,16,-1
 220 214 l 1,17,-1
 185 0 l 1,18,-1
 118 0 l 1,19,-1
 151 214 l 1,20,-1
 35 214 l 1,21,-1
 35 282 l 1,22,-1
 163 282 l 1,23,-1
 193 469 l 1,24,-1
 70 469 l 1,25,-1
 70 537 l 1,26,-1
 205 537 l 1,27,-1
 237 740 l 1,28,-1
 304 740 l 1,29,-1
 271 536 l 1,30,-1
 418 536 l 1,31,-1
 450 740 l 1,4,-1
EndSplineSet
EndChar

StartChar: percent.lat
Encoding: 65540 -1 7
Width: 820
GlyphClass: 2
Flags: W
LayerCount: 2
Fore
SplineSet
165 0 m 1,0,-1
 602 750 l 1,1,-1
 667 750 l 1,2,-1
 230 0 l 1,3,-1
 165 0 l 1,0,-1
789 178 m 256,4,5
 789 140 789 140 778.5 106 c 128,-1,6
 768 72 768 72 747 46.5 c 128,-1,7
 726 21 726 21 695 6 c 128,-1,8
 664 -9 664 -9 624 -9 c 0,9,10
 585 -9 585 -9 554.5 6 c 128,-1,11
 524 21 524 21 503.5 46.5 c 128,-1,12
 483 72 483 72 472.5 106 c 128,-1,13
 462 140 462 140 462 178 c 256,14,15
 462 216 462 216 473 249.5 c 128,-1,16
 484 283 484 283 505.5 308.5 c 128,-1,17
 527 334 527 334 557.5 349 c 128,-1,18
 588 364 588 364 627 364 c 256,19,20
 666 364 666 364 696 349 c 128,-1,21
 726 334 726 334 747 308.5 c 128,-1,22
 768 283 768 283 778.5 249.5 c 128,-1,23
 789 216 789 216 789 178 c 256,4,5
717 178 m 0,24,25
 717 204 717 204 712.5 228 c 128,-1,26
 708 252 708 252 697.5 271 c 128,-1,27
 687 290 687 290 669.5 301 c 128,-1,28
 652 312 652 312 627 312 c 0,29,30
 603 312 603 312 585 301 c 128,-1,31
 567 290 567 290 556 272 c 128,-1,32
 545 254 545 254 539.5 229.5 c 128,-1,33
 534 205 534 205 534 178 c 256,34,35
 534 151 534 151 539 126.5 c 128,-1,36
 544 102 544 102 554.5 83.5 c 128,-1,37
 565 65 565 65 582.5 54 c 128,-1,38
 600 43 600 43 624 43 c 0,39,40
 672 43 672 43 694.5 80.5 c 128,-1,41
 717 118 717 118 717 178 c 0,24,25
357 564 m 256,42,43
 357 526 357 526 346.5 492 c 128,-1,44
 336 458 336 458 315 432.5 c 128,-1,45
 294 407 294 407 263 392 c 128,-1,46
 232 377 232 377 192 377 c 0,47,48
 153 377 153 377 122.5 392 c 128,-1,49
 92 407 92 407 71.5 432.5 c 128,-1,50
 51 458 51 458 40.5 492 c 128,-1,51
 30 526 30 526 30 564 c 256,52,53
 30 602 30 602 41 635.5 c 128,-1,54
 52 669 52 669 73.5 694.5 c 128,-1,55
 95 720 95 720 125.5 735 c 128,-1,56
 156 750 156 750 195 750 c 256,57,58
 234 750 234 750 264 735 c 128,-1,59
 294 720 294 720 315 694.5 c 128,-1,60
 336 669 336 669 346.5 635.5 c 128,-1,61
 357 602 357 602 357 564 c 256,42,43
285 564 m 0,62,63
 285 590 285 590 280.5 614 c 128,-1,64
 276 638 276 638 265.5 657 c 128,-1,65
 255 676 255 676 237.5 687 c 128,-1,66
 220 698 220 698 195 698 c 0,67,68
 171 698 171 698 153 687 c 128,-1,69
 135 676 135 676 124 658 c 128,-1,70
 113 640 113 640 107.5 615.5 c 128,-1,71
 102 591 102 591 102 564 c 256,72,73
 102 537 102 537 107 512.5 c 128,-1,74
 112 488 112 488 122.5 469.5 c 128,-1,75
 133 451 133 451 150.5 440 c 128,-1,76
 168 429 168 429 192 429 c 0,77,78
 240 429 240 429 262.5 466.5 c 128,-1,79
 285 504 285 504 285 564 c 0,62,63
EndSplineSet
EndChar

StartChar: ampersand
Encoding: 38 38 8
Width: 658
GlyphClass: 2
Flags: W
LayerCount: 2
Fore
SplineSet
30 186 m 0,0,1
 30 223 30 223 42.5 253 c 128,-1,2
 55 283 55 283 76 307 c 128,-1,3
 97 331 97 331 125 349 c 128,-1,4
 153 367 153 367 185 380 c 1,5,6
 159 409 159 409 139.5 446.5 c 128,-1,7
 120 484 120 484 120 529 c 0,8,9
 120 562 120 562 133 588 c 128,-1,10
 146 614 146 614 168.5 632.5 c 128,-1,11
 191 651 191 651 221.5 660.5 c 128,-1,12
 252 670 252 670 286 670 c 256,13,14
 320 670 320 670 349.5 660 c 128,-1,15
 379 650 379 650 400.5 631.5 c 128,-1,16
 422 613 422 613 434 587 c 128,-1,17
 446 561 446 561 446 530 c 0,18,19
 446 477 446 477 419 442 c 128,-1,20
 392 407 392 407 348 385 c 1,21,-1
 307 434 l 1,22,23
 333 448 333 448 348.5 471 c 128,-1,24
 364 494 364 494 364 525 c 0,25,26
 364 560 364 560 341.5 582 c 128,-1,27
 319 604 319 604 284 604 c 0,28,29
 246 604 246 604 225 583 c 128,-1,30
 204 562 204 562 204 528 c 0,31,32
 204 483 204 483 229 445.5 c 128,-1,33
 254 408 254 408 301 361 c 2,34,-1
 469 191 l 1,35,36
 486 217 486 217 501 251.5 c 128,-1,37
 516 286 516 286 527 318 c 1,38,-1
 599 289 l 1,39,40
 583 244 583 244 563 205 c 128,-1,41
 543 166 543 166 523 136 c 1,42,-1
 658 0 l 1,43,-1
 550 0 l 1,44,-1
 474 78 l 1,45,46
 460 62 460 62 439.5 46.5 c 128,-1,47
 419 31 419 31 392 19 c 128,-1,48
 365 7 365 7 331.5 -0.5 c 128,-1,49
 298 -8 298 -8 258 -8 c 0,50,51
 206 -8 206 -8 164 6.5 c 128,-1,52
 122 21 122 21 92 47 c 128,-1,53
 62 73 62 73 46 108.5 c 128,-1,54
 30 144 30 144 30 186 c 0,0,1
116 188 m 0,55,56
 116 125 116 125 157.5 92.5 c 128,-1,57
 199 60 199 60 268 60 c 0,58,59
 289 60 289 60 311.5 65 c 128,-1,60
 334 70 334 70 355 79.5 c 128,-1,61
 376 89 376 89 393.5 102 c 128,-1,62
 411 115 411 115 423 131 c 1,63,-1
 227 330 l 1,64,65
 205 319 205 319 185 305 c 128,-1,66
 165 291 165 291 149.5 273.5 c 128,-1,67
 134 256 134 256 125 234.5 c 128,-1,68
 116 213 116 213 116 188 c 0,55,56
EndSplineSet
EndChar

StartChar: quotesingle.lat
Encoding: 65541 -1 9
Width: 185
GlyphClass: 2
Flags: W
LayerCount: 2
Fore
SplineSet
51 645 m 1,0,-1
 134 645 l 1,1,-1
 118 428 l 1,2,-1
 66 428 l 1,3,-1
 51 645 l 1,0,-1
EndSplineSet
EndChar

StartChar: parenleft.lat
Encoding: 65542 -1 10
Width: 301
GlyphClass: 2
Flags: W
LayerCount: 2
Fore
SplineSet
211 -153 m 1,0,1
 181 -112 181 -112 152 -65.5 c 128,-1,2
 123 -19 123 -19 100.5 34 c 128,-1,3
 78 87 78 87 64 147.5 c 128,-1,4
 50 208 50 208 50 279 c 0,5,6
 50 349 50 349 64.5 411.5 c 128,-1,7
 79 474 79 474 102 528.5 c 128,-1,8
 125 583 125 583 154 628.5 c 128,-1,9
 183 674 183 674 213 710 c 1,10,-1
 261 676 l 1,11,12
 206 592 206 592 171.5 494.5 c 128,-1,13
 137 397 137 397 137 279 c 0,14,15
 137 220 137 220 145.5 167.5 c 128,-1,16
 154 115 154 115 169.5 66.5 c 128,-1,17
 185 18 185 18 208 -29 c 128,-1,18
 231 -76 231 -76 261 -124 c 1,19,-1
 211 -153 l 1,0,1
EndSplineSet
Substitution2: "'sups' Superscript lookup 5 subtable" parenleft.superior
Substitution2: "'subs' Subscript lookup 4 subtable" parenleft.inferior
EndChar

StartChar: parenright.lat
Encoding: 65543 -1 11
Width: 301
GlyphClass: 2
Flags: W
LayerCount: 2
Fore
SplineSet
90 710 m 1,0,1
 120 669 120 669 149 622.5 c 128,-1,2
 178 576 178 576 200.5 523 c 128,-1,3
 223 470 223 470 237 409 c 128,-1,4
 251 348 251 348 251 278 c 256,5,6
 251 208 251 208 236.5 145.5 c 128,-1,7
 222 83 222 83 199 28.5 c 128,-1,8
 176 -26 176 -26 147 -71.5 c 128,-1,9
 118 -117 118 -117 88 -153 c 1,10,-1
 40 -119 l 1,11,12
 95 -35 95 -35 129.5 62.5 c 128,-1,13
 164 160 164 160 164 278 c 0,14,15
 164 337 164 337 155.5 389.5 c 128,-1,16
 147 442 147 442 131.5 490.5 c 128,-1,17
 116 539 116 539 93 586 c 128,-1,18
 70 633 70 633 40 681 c 1,19,-1
 90 710 l 1,0,1
EndSplineSet
Substitution2: "'sups' Superscript lookup 5 subtable" parenright.superior
Substitution2: "'subs' Subscript lookup 4 subtable" parenright.inferior
EndChar

StartChar: asterisk.lat
Encoding: 65544 -1 12
Width: 342
GlyphClass: 2
Flags: W
LayerCount: 2
Fore
SplineSet
57 412 m 1,0,-1
 96 464 l 1,1,-1
 153 517 l 1,2,-1
 75 527 l 1,3,-1
 14 546 l 1,4,-1
 32 601 l 1,5,-1
 92 583 l 1,6,-1
 164 545 l 1,7,-1
 146 622 l 1,8,-1
 146 684 l 1,9,-1
 206 684 l 1,10,-1
 206 622 l 1,11,-1
 189 545 l 1,12,-1
 260 583 l 1,13,-1
 320 601 l 1,14,-1
 338 546 l 1,15,-1
 277 527 l 1,16,-1
 199 517 l 1,17,-1
 256 464 l 1,18,-1
 294 412 l 1,19,-1
 246 377 l 1,20,-1
 209 429 l 1,21,-1
 176 500 l 1,22,-1
 143 429 l 1,23,-1
 104 377 l 1,24,-1
 57 412 l 1,0,-1
EndSplineSet
EndChar

StartChar: plus
Encoding: 43 43 13
Width: 562
GlyphClass: 2
Flags: W
LayerCount: 2
Fore
SplineSet
522 338 m 1,0,-1
 522 274 l 1,1,-1
 313 274 l 1,2,-1
 313 65 l 1,3,-1
 249 65 l 1,4,-1
 249 274 l 1,5,-1
 40 274 l 1,6,-1
 40 338 l 1,7,-1
 249 338 l 1,8,-1
 249 547 l 1,9,-1
 313 547 l 1,10,-1
 313 338 l 1,11,-1
 522 338 l 1,0,-1
EndSplineSet
EndChar

StartChar: comma.lat
Encoding: 65545 -1 14
Width: 214
GlyphClass: 2
Flags: W
LayerCount: 2
Fore
SplineSet
101 -9 m 2,0,1
 75 -4 75 -4 62 14 c 128,-1,2
 49 32 49 32 49 55 c 0,3,4
 49 79 49 79 65.5 98 c 128,-1,5
 82 117 82 117 112 117 c 0,6,7
 124 117 124 117 136.5 113.5 c 128,-1,8
 149 110 149 110 159.5 99.5 c 128,-1,9
 170 89 170 89 177 70.5 c 128,-1,10
 184 52 184 52 184 22 c 0,11,12
 184 -32 184 -32 153 -77 c 128,-1,13
 122 -122 122 -122 74 -148 c 1,14,-1
 45 -108 l 1,15,16
 71 -94 71 -94 91.5 -70.5 c 128,-1,17
 112 -47 112 -47 119 -12 c 1,18,-1
 101 -9 l 2,0,1
EndSplineSet
EndChar

StartChar: hyphen.lat
Encoding: 65546 -1 15
Width: 280
GlyphClass: 2
Flags: W
LayerCount: 2
Fore
SplineSet
250 333 m 1,0,-1
 250 254 l 1,1,-1
 30 254 l 1,2,-1
 30 333 l 1,3,-1
 250 333 l 1,0,-1
EndSplineSet
EndChar

StartChar: period.lat
Encoding: 65547 -1 16
Width: 211
GlyphClass: 2
Flags: W
LayerCount: 2
Fore
SplineSet
54 54 m 0,0,1
 54 80 54 80 72 98 c 128,-1,2
 90 116 90 116 115 116 c 256,3,4
 140 116 140 116 157.5 98 c 128,-1,5
 175 80 175 80 175 54 c 0,6,7
 175 25 175 25 157.5 8 c 128,-1,8
 140 -9 140 -9 115 -9 c 256,9,10
 90 -9 90 -9 72 8 c 128,-1,11
 54 25 54 25 54 54 c 0,0,1
EndSplineSet
EndChar

StartChar: slash.lat
Encoding: 65548 -1 17
Width: 375
GlyphClass: 2
Flags: W
LayerCount: 2
Fore
SplineSet
-1 -109 m 1,0,-1
 303 750 l 1,1,-1
 378 750 l 1,2,-1
 74 -109 l 1,3,-1
 -1 -109 l 1,0,-1
EndSplineSet
EndChar

StartChar: zero.lat
Encoding: 65549 -1 18
Width: 575
GlyphClass: 2
Flags: W
LayerCount: 2
Fore
SplineSet
288 639 m 0,0,1
 340 639 340 639 385 620.5 c 128,-1,2
 430 602 430 602 463 563 c 128,-1,3
 496 524 496 524 514.5 462.5 c 128,-1,4
 533 401 533 401 533 315 c 256,5,6
 533 229 533 229 513 167.5 c 128,-1,7
 493 106 493 106 459 67 c 128,-1,8
 425 28 425 28 381 9.5 c 128,-1,9
 337 -9 337 -9 288 -9 c 0,10,11
 235 -9 235 -9 190.5 9.5 c 128,-1,12
 146 28 146 28 113 67 c 128,-1,13
 80 106 80 106 61.5 167.5 c 128,-1,14
 43 229 43 229 43 315 c 0,15,16
 43 397 43 397 63 458 c 128,-1,17
 83 519 83 519 116.5 559.5 c 128,-1,18
 150 600 150 600 194.5 619.5 c 128,-1,19
 239 639 239 639 288 639 c 0,0,1
135 315 m 0,20,21
 135 236 135 236 148 186.5 c 128,-1,22
 161 137 161 137 182 109 c 128,-1,23
 203 81 203 81 231 70.5 c 128,-1,24
 259 60 259 60 289 60 c 256,25,26
 319 60 319 60 346.5 71.5 c 128,-1,27
 374 83 374 83 395 112.5 c 128,-1,28
 416 142 416 142 428.5 191 c 128,-1,29
 441 240 441 240 441 315 c 0,30,31
 441 393 441 393 428 443 c 128,-1,32
 415 493 415 493 394 521 c 128,-1,33
 373 549 373 549 345 559.5 c 128,-1,34
 317 570 317 570 287 570 c 256,35,36
 257 570 257 570 229.5 558.5 c 128,-1,37
 202 547 202 547 181 517.5 c 128,-1,38
 160 488 160 488 147.5 439 c 128,-1,39
 135 390 135 390 135 315 c 0,20,21
EndSplineSet
EndChar

StartChar: one.lat
Encoding: 65550 -1 19
Width: 364
GlyphClass: 2
Flags: W
LayerCount: 2
Fore
SplineSet
210 630 m 1,0,-1
 274 630 l 1,1,-1
 274 0 l 1,2,-1
 188 0 l 1,3,-1
 188 538 l 1,4,-1
 75 486 l 1,5,-1
 55 559 l 1,6,-1
 210 630 l 1,0,-1
EndSplineSet
EndChar

StartChar: two.lat
Encoding: 65551 -1 20
Width: 483
GlyphClass: 2
Flags: W
LayerCount: 2
Fore
SplineSet
224 567 m 0,0,1
 192 567 192 567 163 556 c 128,-1,2
 134 545 134 545 99 518 c 1,3,-1
 60 577 l 1,4,5
 105 615 105 615 145.5 627 c 128,-1,6
 186 639 186 639 224 639 c 0,7,8
 276 639 276 639 313.5 624.5 c 128,-1,9
 351 610 351 610 376 585 c 128,-1,10
 401 560 401 560 413 526 c 128,-1,11
 425 492 425 492 425 452 c 0,12,13
 425 416 425 416 410 378.5 c 128,-1,14
 395 341 395 341 367.5 301.5 c 128,-1,15
 340 262 340 262 301 219.5 c 128,-1,16
 262 177 262 177 213 130 c 2,17,-1
 154 73 l 1,18,-1
 440 73 l 1,19,-1
 440 0 l 1,20,-1
 61 0 l 1,21,-1
 45 63 l 1,22,-1
 128 146 l 2,23,24
 183 201 183 201 222.5 244 c 128,-1,25
 262 287 262 287 287 323 c 128,-1,26
 312 359 312 359 323.5 389 c 128,-1,27
 335 419 335 419 335 449 c 0,28,29
 335 500 335 500 307.5 533.5 c 128,-1,30
 280 567 280 567 224 567 c 0,0,1
EndSplineSet
EndChar

StartChar: three.lat
Encoding: 65552 -1 21
Width: 490
GlyphClass: 2
Flags: W
LayerCount: 2
Fore
SplineSet
53 592 m 1,0,1
 92 618 92 618 134 628.5 c 128,-1,2
 176 639 176 639 214 639 c 0,3,4
 256 639 256 639 291.5 627 c 128,-1,5
 327 615 327 615 352 593.5 c 128,-1,6
 377 572 377 572 391 542.5 c 128,-1,7
 405 513 405 513 405 478 c 0,8,9
 405 419 405 419 374.5 380 c 128,-1,10
 344 341 344 341 300 325 c 1,11,12
 355 313 355 313 391 272.5 c 128,-1,13
 427 232 427 232 427 175 c 0,14,15
 427 124 427 124 407 89 c 128,-1,16
 387 54 387 54 355 32.5 c 128,-1,17
 323 11 323 11 282.5 1 c 128,-1,18
 242 -9 242 -9 200 -9 c 256,19,20
 158 -9 158 -9 116 -1 c 128,-1,21
 74 7 74 7 42 22 c 1,22,-1
 62 90 l 1,23,24
 79 84 79 84 94 78.5 c 128,-1,25
 109 73 109 73 125 69.5 c 128,-1,26
 141 66 141 66 158.5 64 c 128,-1,27
 176 62 176 62 199 62 c 0,28,29
 224 62 224 62 248.5 68 c 128,-1,30
 273 74 273 74 292 88 c 128,-1,31
 311 102 311 102 323 123.5 c 128,-1,32
 335 145 335 145 335 177 c 0,33,34
 335 205 335 205 324.5 226 c 128,-1,35
 314 247 314 247 295.5 260 c 128,-1,36
 277 273 277 273 252 279.5 c 128,-1,37
 227 286 227 286 197 286 c 2,38,-1
 122 286 l 1,39,-1
 122 354 l 1,40,-1
 180 354 l 2,41,42
 238 354 238 354 276.5 382 c 128,-1,43
 315 410 315 410 315 468 c 0,44,45
 315 489 315 489 306.5 507.5 c 128,-1,46
 298 526 298 526 283.5 539.5 c 128,-1,47
 269 553 269 553 249.5 561 c 128,-1,48
 230 569 230 569 207 569 c 0,49,50
 175 569 175 569 147 561 c 128,-1,51
 119 553 119 553 81 531 c 1,52,-1
 53 592 l 1,0,1
EndSplineSet
EndChar

StartChar: four.lat
Encoding: 65553 -1 22
Width: 536
GlyphClass: 2
Flags: W
LayerCount: 2
Fore
SplineSet
323 630 m 1,0,-1
 402 630 l 1,1,-1
 402 233 l 1,2,-1
 501 233 l 1,3,-1
 501 160 l 1,4,-1
 402 160 l 1,5,-1
 402 0 l 1,6,-1
 320 0 l 1,7,-1
 320 160 l 1,8,-1
 20 160 l 1,9,-1
 20 215 l 1,10,-1
 323 630 l 1,0,-1
119 233 m 1,11,-1
 320 233 l 1,12,-1
 320 407 l 1,13,-1
 325 533 l 1,14,-1
 323 533 l 1,15,-1
 274 448 l 1,16,-1
 119 233 l 1,11,-1
EndSplineSet
EndChar

StartChar: five.lat
Encoding: 65554 -1 23
Width: 517
GlyphClass: 2
Flags: W
LayerCount: 2
Fore
SplineSet
427 632 m 1,0,-1
 427 559 l 1,1,-1
 194 557 l 1,2,-1
 175 391 l 1,3,4
 187 393 187 393 202 394.5 c 128,-1,5
 217 396 217 396 234 396 c 0,6,7
 271 396 271 396 309.5 386 c 128,-1,8
 348 376 348 376 379 353.5 c 128,-1,9
 410 331 410 331 430 294.5 c 128,-1,10
 450 258 450 258 450 205 c 0,11,12
 450 160 450 160 434 121 c 128,-1,13
 418 82 418 82 386.5 53 c 128,-1,14
 355 24 355 24 308.5 7.5 c 128,-1,15
 262 -9 262 -9 201 -9 c 0,16,17
 166 -9 166 -9 129 -1 c 128,-1,18
 92 7 92 7 63 21 c 1,19,-1
 83 92 l 1,20,21
 107 80 107 80 137 72 c 128,-1,22
 167 64 167 64 199 64 c 0,23,24
 275 64 275 64 316.5 98.5 c 128,-1,25
 358 133 358 133 358 202 c 0,26,27
 358 235 358 235 346.5 259.5 c 128,-1,28
 335 284 335 284 314.5 300 c 128,-1,29
 294 316 294 316 266 324 c 128,-1,30
 238 332 238 332 205 332 c 0,31,32
 178 332 178 332 150 328.5 c 128,-1,33
 122 325 122 325 93 319 c 1,34,-1
 124 630 l 1,35,-1
 427 632 l 1,0,-1
EndSplineSet
EndChar

StartChar: six.lat
Encoding: 65555 -1 24
Width: 524
GlyphClass: 2
Flags: W
LayerCount: 2
Fore
SplineSet
315 639 m 0,0,1
 383 639 383 639 436 619 c 1,2,-1
 415 548 l 1,3,4
 394 557 394 557 370 562.5 c 128,-1,5
 346 568 346 568 318 568 c 0,6,7
 274 568 274 568 241 551.5 c 128,-1,8
 208 535 208 535 185.5 506 c 128,-1,9
 163 477 163 477 150.5 436 c 128,-1,10
 138 395 138 395 137 346 c 1,11,12
 165 381 165 381 204.5 397.5 c 128,-1,13
 244 414 244 414 286 414 c 256,14,15
 328 414 328 414 365 400.5 c 128,-1,16
 402 387 402 387 429.5 360.5 c 128,-1,17
 457 334 457 334 473 296 c 128,-1,18
 489 258 489 258 489 209 c 0,19,20
 489 159 489 159 472.5 119 c 128,-1,21
 456 79 456 79 426.5 50.5 c 128,-1,22
 397 22 397 22 357 6.5 c 128,-1,23
 317 -9 317 -9 269 -9 c 0,24,25
 226 -9 226 -9 186 7.5 c 128,-1,26
 146 24 146 24 114.5 60 c 128,-1,27
 83 96 83 96 64 152.5 c 128,-1,28
 45 209 45 209 45 289 c 0,29,30
 45 386 45 386 67.5 452.5 c 128,-1,31
 90 519 90 519 127.5 560.5 c 128,-1,32
 165 602 165 602 213.5 620.5 c 128,-1,33
 262 639 262 639 315 639 c 0,0,1
137 230 m 0,34,35
 137 194 137 194 146.5 163 c 128,-1,36
 156 132 156 132 174 109 c 128,-1,37
 192 86 192 86 217 72.5 c 128,-1,38
 242 59 242 59 272 59 c 0,39,40
 301 59 301 59 324.5 70 c 128,-1,41
 348 81 348 81 365 101 c 128,-1,42
 382 121 382 121 391.5 148 c 128,-1,43
 401 175 401 175 401 207 c 0,44,45
 401 278 401 278 365 311 c 128,-1,46
 329 344 329 344 269 344 c 0,47,48
 224 344 224 344 193.5 323 c 128,-1,49
 163 302 163 302 147 274 c 0,50,51
 141 263 141 263 139 252 c 128,-1,52
 137 241 137 241 137 230 c 0,34,35
EndSplineSet
EndChar

StartChar: seven.lat
Encoding: 65556 -1 25
Width: 495
GlyphClass: 2
Flags: W
LayerCount: 2
Fore
SplineSet
449 630 m 1,0,-1
 449 568 l 1,1,-1
 177 -18 l 1,2,-1
 102 15 l 1,3,-1
 361 557 l 1,4,-1
 57 557 l 1,5,-1
 57 630 l 1,6,-1
 449 630 l 1,0,-1
EndSplineSet
EndChar

StartChar: eight.lat
Encoding: 65557 -1 26
Width: 505
GlyphClass: 2
Flags: W
LayerCount: 2
Fore
SplineSet
254 639 m 256,0,1
 303 639 303 639 339.5 626 c 128,-1,2
 376 613 376 613 401 591 c 128,-1,3
 426 569 426 569 438.5 541 c 128,-1,4
 451 513 451 513 451 482 c 0,5,6
 451 437 451 437 421.5 397 c 128,-1,7
 392 357 392 357 331 333 c 1,8,9
 400 304 400 304 433.5 266.5 c 128,-1,10
 467 229 467 229 467 170 c 0,11,12
 467 126 467 126 451 93 c 128,-1,13
 435 60 435 60 406.5 37 c 128,-1,14
 378 14 378 14 339 2.5 c 128,-1,15
 300 -9 300 -9 254 -9 c 0,16,17
 209 -9 209 -9 169.5 3 c 128,-1,18
 130 15 130 15 101 37 c 128,-1,19
 72 59 72 59 55 90.5 c 128,-1,20
 38 122 38 122 38 162 c 0,21,22
 38 223 38 223 69.5 260 c 128,-1,23
 101 297 101 297 168 326 c 1,24,25
 117 349 117 349 88 386.5 c 128,-1,26
 59 424 59 424 59 473 c 0,27,28
 59 506 59 506 71 536 c 128,-1,29
 83 566 83 566 107.5 589 c 128,-1,30
 132 612 132 612 168.5 625.5 c 128,-1,31
 205 639 205 639 254 639 c 256,0,1
142 478 m 0,32,33
 142 455 142 455 151.5 437 c 128,-1,34
 161 419 161 419 176.5 405.5 c 128,-1,35
 192 392 192 392 213 381.5 c 128,-1,36
 234 371 234 371 257 363 c 1,37,38
 280 372 280 372 300 383 c 128,-1,39
 320 394 320 394 335 408.5 c 128,-1,40
 350 423 350 423 358.5 440.5 c 128,-1,41
 367 458 367 458 367 480 c 0,42,43
 367 501 367 501 358 518 c 128,-1,44
 349 535 349 535 333.5 547.5 c 128,-1,45
 318 560 318 560 297.5 566.5 c 128,-1,46
 277 573 277 573 254 573 c 0,47,48
 226 573 226 573 205 565 c 128,-1,49
 184 557 184 557 170 544 c 128,-1,50
 156 531 156 531 149 513.5 c 128,-1,51
 142 496 142 496 142 478 c 0,32,33
246 294 m 1,52,53
 193 277 193 277 160 247.5 c 128,-1,54
 127 218 127 218 127 165 c 0,55,56
 127 123 127 123 158.5 91 c 128,-1,57
 190 59 190 59 254 59 c 0,58,59
 283 59 283 59 306.5 67.5 c 128,-1,60
 330 76 330 76 346 91 c 128,-1,61
 362 106 362 106 370.5 125 c 128,-1,62
 379 144 379 144 379 165 c 0,63,64
 379 190 379 190 369 210.5 c 128,-1,65
 359 231 359 231 341 246.5 c 128,-1,66
 323 262 323 262 298.5 274 c 128,-1,67
 274 286 274 286 246 294 c 1,52,53
EndSplineSet
EndChar

StartChar: nine.lat
Encoding: 65558 -1 27
Width: 517
GlyphClass: 2
Flags: W
LayerCount: 2
Fore
SplineSet
206 -9 m 0,0,1
 161 -9 161 -9 129.5 -2.5 c 128,-1,2
 98 4 98 4 75 15 c 1,3,-1
 96 86 l 1,4,5
 117 77 117 77 140.5 69.5 c 128,-1,6
 164 62 164 62 203 62 c 0,7,8
 291 62 291 62 334 117.5 c 128,-1,9
 377 173 377 173 380 279 c 1,10,11
 355 250 355 250 316.5 233 c 128,-1,12
 278 216 278 216 236 216 c 256,13,14
 194 216 194 216 157.5 229.5 c 128,-1,15
 121 243 121 243 94.5 269.5 c 128,-1,16
 68 296 68 296 53 334 c 128,-1,17
 38 372 38 372 38 421 c 256,18,19
 38 470 38 470 54 510.5 c 128,-1,20
 70 551 70 551 99 579.5 c 128,-1,21
 128 608 128 608 167.5 623.5 c 128,-1,22
 207 639 207 639 255 639 c 0,23,24
 298 639 298 639 337 622.5 c 128,-1,25
 376 606 376 606 406 570 c 128,-1,26
 436 534 436 534 454 477.5 c 128,-1,27
 472 421 472 421 472 341 c 0,28,29
 472 244 472 244 451.5 177.5 c 128,-1,30
 431 111 431 111 395.5 69.5 c 128,-1,31
 360 28 360 28 311.5 9.5 c 128,-1,32
 263 -9 263 -9 206 -9 c 0,0,1
380 392 m 0,33,34
 380 428 380 428 370.5 460 c 128,-1,35
 361 492 361 492 344 517 c 128,-1,36
 327 542 327 542 302 556.5 c 128,-1,37
 277 571 277 571 247 571 c 0,38,39
 189 571 189 571 157.5 531.5 c 128,-1,40
 126 492 126 492 126 428 c 0,41,42
 126 357 126 357 160 321.5 c 128,-1,43
 194 286 194 286 254 286 c 0,44,45
 296 286 296 286 325 304.5 c 128,-1,46
 354 323 354 323 370 351 c 0,47,48
 376 362 376 362 378 371.5 c 128,-1,49
 380 381 380 381 380 392 c 0,33,34
EndSplineSet
EndChar

StartChar: colon.lat
Encoding: 65559 -1 28
Width: 223
GlyphClass: 2
Flags: W
LayerCount: 2
Fore
SplineSet
51 55 m 0,0,1
 51 81 51 81 69 99 c 128,-1,2
 87 117 87 117 112 117 c 256,3,4
 137 117 137 117 154.5 99 c 128,-1,5
 172 81 172 81 172 55 c 0,6,7
 172 26 172 26 154.5 9 c 128,-1,8
 137 -8 137 -8 112 -8 c 256,9,10
 87 -8 87 -8 69 9 c 128,-1,11
 51 26 51 26 51 55 c 0,0,1
51 355 m 0,12,13
 51 381 51 381 69 399 c 128,-1,14
 87 417 87 417 112 417 c 256,15,16
 137 417 137 417 154.5 399 c 128,-1,17
 172 381 172 381 172 355 c 0,18,19
 172 326 172 326 154.5 309 c 128,-1,20
 137 292 137 292 112 292 c 256,21,22
 87 292 87 292 69 309 c 128,-1,23
 51 326 51 326 51 355 c 0,12,13
EndSplineSet
EndChar

StartChar: semicolon.lat
Encoding: 65560 -1 29
Width: 219
GlyphClass: 2
Flags: W
LayerCount: 2
Fore
SplineSet
53 355 m 0,0,1
 53 381 53 381 71 399 c 128,-1,2
 89 417 89 417 114 417 c 256,3,4
 139 417 139 417 156.5 399 c 128,-1,5
 174 381 174 381 174 355 c 0,6,7
 174 326 174 326 156.5 309 c 128,-1,8
 139 292 139 292 114 292 c 256,9,10
 89 292 89 292 71 309 c 128,-1,11
 53 326 53 326 53 355 c 0,0,1
101 -9 m 2,12,13
 75 -4 75 -4 62 14 c 128,-1,14
 49 32 49 32 49 55 c 0,15,16
 49 79 49 79 65.5 98 c 128,-1,17
 82 117 82 117 112 117 c 0,18,19
 124 117 124 117 136.5 113.5 c 128,-1,20
 149 110 149 110 159.5 99.5 c 128,-1,21
 170 89 170 89 177 70.5 c 128,-1,22
 184 52 184 52 184 22 c 0,23,24
 184 -32 184 -32 153 -77 c 128,-1,25
 122 -122 122 -122 74 -148 c 1,26,-1
 45 -108 l 1,27,28
 71 -94 71 -94 91.5 -70.5 c 128,-1,29
 112 -47 112 -47 119 -12 c 1,30,-1
 101 -9 l 2,12,13
EndSplineSet
EndChar

StartChar: less
Encoding: 60 60 30
Width: 496
GlyphClass: 2
Flags: W
LayerCount: 2
Fore
SplineSet
66 225 m 1,0,-1
 66 283 l 1,1,-1
 430 493 l 1,2,-1
 430 421 l 1,3,-1
 131 254 l 1,4,-1
 430 87 l 1,5,-1
 430 15 l 1,6,-1
 66 225 l 1,0,-1
EndSplineSet
EndChar

StartChar: equal
Encoding: 61 61 31
Width: 463
GlyphClass: 2
Flags: W
LayerCount: 2
Fore
SplineSet
423 253 m 1,0,-1
 423 190 l 1,1,-1
 40 190 l 1,2,-1
 40 253 l 1,3,-1
 423 253 l 1,0,-1
423 422 m 1,4,-1
 423 359 l 1,5,-1
 40 359 l 1,6,-1
 40 422 l 1,7,-1
 423 422 l 1,4,-1
EndSplineSet
EndChar

StartChar: greater
Encoding: 62 62 32
Width: 496
GlyphClass: 2
Flags: W
LayerCount: 2
Fore
SplineSet
66 87 m 1,0,-1
 365 254 l 1,1,-1
 66 421 l 1,2,-1
 66 493 l 1,3,-1
 430 283 l 1,4,-1
 430 225 l 1,5,-1
 66 15 l 1,6,-1
 66 87 l 1,0,-1
EndSplineSet
EndChar

StartChar: question.lat
Encoding: 65561 -1 33
Width: 437
GlyphClass: 2
Flags: W
LayerCount: 2
Fore
SplineSet
200 715 m 0,0,1
 245 715 245 715 280.5 702.5 c 128,-1,2
 316 690 316 690 341 667.5 c 128,-1,3
 366 645 366 645 379 614 c 128,-1,4
 392 583 392 583 392 547 c 0,5,6
 392 521 392 521 383.5 497.5 c 128,-1,7
 375 474 375 474 360.5 452 c 128,-1,8
 346 430 346 430 328 410.5 c 128,-1,9
 310 391 310 391 292 374 c 0,10,11
 251 337 251 337 228 309 c 128,-1,12
 205 281 205 281 205 246 c 0,13,14
 205 232 205 232 207 221 c 128,-1,15
 209 210 209 210 214 194 c 1,16,-1
 139 180 l 1,17,18
 126 212 126 212 126 247 c 0,19,20
 126 269 126 269 131.5 288 c 128,-1,21
 137 307 137 307 148 325.5 c 128,-1,22
 159 344 159 344 175 363 c 128,-1,23
 191 382 191 382 213 404 c 0,24,25
 231 422 231 422 247 438.5 c 128,-1,26
 263 455 263 455 275 472.5 c 128,-1,27
 287 490 287 490 294.5 508 c 128,-1,28
 302 526 302 526 302 546 c 0,29,30
 302 564 302 564 296.5 580.5 c 128,-1,31
 291 597 291 597 278.5 610 c 128,-1,32
 266 623 266 623 245.5 631 c 128,-1,33
 225 639 225 639 195 639 c 0,34,35
 172 639 172 639 146.5 632.5 c 128,-1,36
 121 626 121 626 96 608 c 1,37,-1
 58 674 l 1,38,39
 87 695 87 695 126 705 c 128,-1,40
 165 715 165 715 200 715 c 0,0,1
124 54 m 0,41,42
 124 80 124 80 142 98 c 128,-1,43
 160 116 160 116 185 116 c 256,44,45
 210 116 210 116 227.5 98 c 128,-1,46
 245 80 245 80 245 54 c 0,47,48
 245 25 245 25 227.5 8 c 128,-1,49
 210 -9 210 -9 185 -9 c 256,50,51
 160 -9 160 -9 142 8 c 128,-1,52
 124 25 124 25 124 54 c 0,41,42
EndSplineSet
EndChar

StartChar: at
Encoding: 64 64 34
Width: 965
GlyphClass: 2
Flags: W
LayerCount: 2
Fore
SplineSet
564 62 m 1,0,-1
 562 62 l 1,1,2
 545 45 545 45 528.5 31.5 c 128,-1,3
 512 18 512 18 493 9 c 128,-1,4
 474 0 474 0 452.5 -4.5 c 128,-1,5
 431 -9 431 -9 403 -9 c 0,6,7
 342 -9 342 -9 306 24.5 c 128,-1,8
 270 58 270 58 270 112 c 0,9,10
 270 118 270 118 270.5 124 c 128,-1,11
 271 130 271 130 272 136 c 0,12,13
 278 173 278 173 297 199.5 c 128,-1,14
 316 226 316 226 345.5 243.5 c 128,-1,15
 375 261 375 261 412.5 269 c 128,-1,16
 450 277 450 277 493 277 c 2,17,-1
 583 277 l 1,18,-1
 590 317 l 2,19,20
 592 324 592 324 592 330.5 c 128,-1,21
 592 337 592 337 592 342 c 0,22,23
 592 378 592 378 570 391.5 c 128,-1,24
 548 405 548 405 510 405 c 0,25,26
 486 405 486 405 449 396.5 c 128,-1,27
 412 388 412 388 365 364 c 1,28,-1
 341 428 l 1,29,30
 392 453 392 453 436 465 c 128,-1,31
 480 477 480 477 527 477 c 0,32,33
 561 477 561 477 589.5 470.5 c 128,-1,34
 618 464 618 464 638 449 c 128,-1,35
 658 434 658 434 669.5 410 c 128,-1,36
 681 386 681 386 681 350 c 0,37,38
 681 340 681 340 680 329 c 128,-1,39
 679 318 679 318 677 306 c 2,40,-1
 651 146 l 2,41,42
 645 114 645 114 645 96 c 0,43,44
 645 76 645 76 652 68 c 128,-1,45
 659 60 659 60 676 60 c 0,46,47
 710 60 710 60 738.5 82 c 128,-1,48
 767 104 767 104 788 141.5 c 128,-1,49
 809 179 809 179 821 227.5 c 128,-1,50
 833 276 833 276 833 329 c 0,51,52
 833 392 833 392 813.5 446 c 128,-1,53
 794 500 794 500 756.5 539.5 c 128,-1,54
 719 579 719 579 664.5 602 c 128,-1,55
 610 625 610 625 540 625 c 0,56,57
 456 625 456 625 382 596.5 c 128,-1,58
 308 568 308 568 253 511.5 c 128,-1,59
 198 455 198 455 166 370.5 c 128,-1,60
 134 286 134 286 134 174 c 0,61,62
 134 83 134 83 163.5 21 c 128,-1,63
 193 -41 193 -41 240.5 -79 c 128,-1,64
 288 -117 288 -117 347.5 -133.5 c 128,-1,65
 407 -150 407 -150 466 -150 c 0,66,67
 530 -150 530 -150 575 -138.5 c 128,-1,68
 620 -127 620 -127 660 -111 c 1,69,-1
 678 -173 l 1,70,71
 636 -191 636 -191 577.5 -205 c 128,-1,72
 519 -219 519 -219 450 -219 c 0,73,74
 376 -219 376 -219 304.5 -198 c 128,-1,75
 233 -177 233 -177 177 -130.5 c 128,-1,76
 121 -84 121 -84 86.5 -10.5 c 128,-1,77
 52 63 52 63 52 169 c 0,78,79
 52 300 52 300 94 398 c 128,-1,80
 136 496 136 496 204.5 561.5 c 128,-1,81
 273 627 273 627 359.5 659.5 c 128,-1,82
 446 692 446 692 536 692 c 0,83,84
 628 692 628 692 699 664.5 c 128,-1,85
 770 637 770 637 818.5 589 c 128,-1,86
 867 541 867 541 892 475.5 c 128,-1,87
 917 410 917 410 917 333 c 0,88,89
 917 259 917 259 897 197.5 c 128,-1,90
 877 136 877 136 842.5 92 c 128,-1,91
 808 48 808 48 760.5 23.5 c 128,-1,92
 713 -1 713 -1 659 -1 c 0,93,94
 633 -1 633 -1 613 2.5 c 128,-1,95
 593 6 593 6 582 11 c 1,96,-1
 564 62 l 1,0,-1
575 215 m 1,97,-1
 500 215 l 2,98,99
 430 215 430 215 399.5 191.5 c 128,-1,100
 369 168 369 168 364 133 c 0,101,102
 363 129 363 129 363 125.5 c 128,-1,103
 363 122 363 122 363 119 c 0,104,105
 363 87 363 87 384.5 71.5 c 128,-1,106
 406 56 406 56 437 56 c 0,107,108
 503 56 503 56 560 121 c 1,109,-1
 575 215 l 1,97,-1
EndSplineSet
EndChar

StartChar: bracketleft.lat
Encoding: 65562 -1 35
Width: 301
GlyphClass: 2
Flags: W
LayerCount: 2
Fore
SplineSet
81 -155 m 1,0,-1
 81 720 l 1,1,-1
 271 720 l 1,2,-1
 271 654 l 1,3,-1
 167 654 l 1,4,-1
 167 -88 l 1,5,-1
 271 -88 l 1,6,-1
 271 -155 l 1,7,-1
 81 -155 l 1,0,-1
EndSplineSet
EndChar

StartChar: backslash.lat
Encoding: 65563 -1 36
Width: 331
GlyphClass: 2
Flags: W
LayerCount: 2
Fore
SplineSet
256 -88 m 1,0,-1
 0 720 l 1,1,-1
 75 720 l 1,2,-1
 331 -88 l 1,3,-1
 256 -88 l 1,0,-1
EndSplineSet
EndChar

StartChar: bracketright.lat
Encoding: 65564 -1 37
Width: 301
GlyphClass: 2
Flags: W
LayerCount: 2
Fore
SplineSet
30 -155 m 1,0,-1
 30 -88 l 1,1,-1
 134 -88 l 1,2,-1
 134 654 l 1,3,-1
 30 654 l 1,4,-1
 30 720 l 1,5,-1
 220 720 l 1,6,-1
 220 -155 l 1,7,-1
 30 -155 l 1,0,-1
EndSplineSet
EndChar

StartChar: asciicircum
Encoding: 94 94 38
Width: 516
GlyphClass: 2
Flags: W
LayerCount: 2
Fore
SplineSet
456 416 m 1,0,-1
 380 416 l 1,1,-1
 258 659 l 1,2,-1
 138 416 l 1,3,-1
 61 416 l 1,4,-1
 228 720 l 1,5,-1
 287 720 l 1,6,-1
 456 416 l 1,0,-1
EndSplineSet
EndChar

StartChar: underscore
Encoding: 95 95 39
Width: 366
GlyphClass: 2
Flags: W
LayerCount: 2
Fore
SplineSet
356 -190 m 1,0,-1
 356 -250 l 1,1,-1
 10 -250 l 1,2,-1
 10 -190 l 1,3,-1
 356 -190 l 1,0,-1
EndSplineSet
EndChar

StartChar: braceleft.lat
Encoding: 65565 -1 40
Width: 326
GlyphClass: 2
Flags: W
LayerCount: 2
Fore
SplineSet
301 639 m 1,0,1
 250 639 250 639 224.5 612 c 128,-1,2
 199 585 199 585 199 536 c 2,3,-1
 199 393 l 2,4,5
 199 347 199 347 182.5 319.5 c 128,-1,6
 166 292 166 292 126 279 c 1,7,-1
 126 276 l 1,8,9
 164 259 164 259 181.5 224 c 128,-1,10
 199 189 199 189 199 135 c 2,11,-1
 199 -7 l 2,12,13
 199 -42 199 -42 224.5 -63 c 128,-1,14
 250 -84 250 -84 301 -86 c 1,15,-1
 301 -155 l 1,16,17
 218 -153 218 -153 167 -110.5 c 128,-1,18
 116 -68 116 -68 116 7 c 2,19,-1
 116 155 l 2,20,21
 116 197 116 197 95 220.5 c 128,-1,22
 74 244 74 244 28 246 c 1,23,-1
 28 307 l 1,24,25
 73 312 73 312 94.5 332 c 128,-1,26
 116 352 116 352 116 395 c 2,27,-1
 116 555 l 2,28,29
 116 587 116 587 128 614.5 c 128,-1,30
 140 642 140 642 163.5 662 c 128,-1,31
 187 682 187 682 221.5 693.5 c 128,-1,32
 256 705 256 705 301 705 c 1,33,-1
 301 639 l 1,0,1
EndSplineSet
EndChar

StartChar: bar.lat
Encoding: 65566 -1 41
Width: 219
GlyphClass: 2
Flags: W
LayerCount: 2
Fore
SplineSet
72 -230 m 1,0,-1
 72 750 l 1,1,-1
 147 750 l 1,2,-1
 147 -230 l 1,3,-1
 72 -230 l 1,0,-1
EndSplineSet
EndChar

StartChar: braceright.lat
Encoding: 65567 -1 42
Width: 326
GlyphClass: 2
Flags: W
LayerCount: 2
Fore
SplineSet
25 710 m 1,0,1
 70 710 70 710 104.5 698 c 128,-1,2
 139 686 139 686 162.5 665 c 128,-1,3
 186 644 186 644 198 615.5 c 128,-1,4
 210 587 210 587 210 555 c 2,5,-1
 210 395 l 2,6,7
 210 352 210 352 231.5 332 c 128,-1,8
 253 312 253 312 298 307 c 1,9,-1
 298 246 l 1,10,11
 252 244 252 244 231 220.5 c 128,-1,12
 210 197 210 197 210 155 c 2,13,-1
 210 7 l 2,14,15
 210 -68 210 -68 159 -110.5 c 128,-1,16
 108 -153 108 -153 25 -155 c 1,17,-1
 25 -86 l 1,18,19
 76 -84 76 -84 101.5 -63 c 128,-1,20
 127 -42 127 -42 127 -7 c 2,21,-1
 127 135 l 2,22,23
 127 189 127 189 144.5 224 c 128,-1,24
 162 259 162 259 200 276 c 1,25,-1
 200 279 l 1,26,27
 160 292 160 292 143.5 319.5 c 128,-1,28
 127 347 127 347 127 393 c 2,29,-1
 127 536 l 2,30,31
 127 585 127 585 101.5 612 c 128,-1,32
 76 639 76 639 25 639 c 1,33,-1
 25 710 l 1,0,1
EndSplineSet
EndChar

StartChar: asciitilde
Encoding: 126 126 43
Width: 586
GlyphClass: 2
Flags: W
LayerCount: 2
Fore
SplineSet
48 210 m 1,0,1
 48 285 48 285 87 323.5 c 128,-1,2
 126 362 126 362 186 362 c 0,3,4
 216 362 216 362 244.5 349 c 128,-1,5
 273 336 273 336 300 320 c 128,-1,6
 327 304 327 304 352.5 291 c 128,-1,7
 378 278 378 278 402 278 c 0,8,9
 439 278 439 278 459 299.5 c 128,-1,10
 479 321 479 321 479 361 c 1,11,-1
 538 361 l 1,12,13
 538 316 538 316 525.5 287 c 128,-1,14
 513 258 513 258 493.5 240.5 c 128,-1,15
 474 223 474 223 450 216 c 128,-1,16
 426 209 426 209 403 209 c 0,17,18
 373 209 373 209 344 222.5 c 128,-1,19
 315 236 315 236 288 252 c 128,-1,20
 261 268 261 268 235.5 281.5 c 128,-1,21
 210 295 210 295 185 295 c 0,22,23
 147 295 147 295 127 270 c 128,-1,24
 107 245 107 245 107 210 c 1,25,-1
 48 210 l 1,0,1
EndSplineSet
EndChar

StartChar: ellipsis.lat
Encoding: 65568 -1 44
Width: 587
GlyphClass: 2
Flags: W
LayerCount: 2
Fore
SplineSet
54 54 m 0,0,1
 54 80 54 80 72 98 c 128,-1,2
 90 116 90 116 115 116 c 256,3,4
 140 116 140 116 157.5 98 c 128,-1,5
 175 80 175 80 175 54 c 0,6,7
 175 25 175 25 157.5 8 c 128,-1,8
 140 -9 140 -9 115 -9 c 256,9,10
 90 -9 90 -9 72 8 c 128,-1,11
 54 25 54 25 54 54 c 0,0,1
235 54 m 0,12,13
 235 80 235 80 253 98 c 128,-1,14
 271 116 271 116 296 116 c 256,15,16
 321 116 321 116 338.5 98 c 128,-1,17
 356 80 356 80 356 54 c 0,18,19
 356 25 356 25 338.5 8 c 128,-1,20
 321 -9 321 -9 296 -9 c 256,21,22
 271 -9 271 -9 253 8 c 128,-1,23
 235 25 235 25 235 54 c 0,12,13
416 54 m 0,24,25
 416 80 416 80 434 98 c 128,-1,26
 452 116 452 116 477 116 c 256,27,28
 502 116 502 116 519.5 98 c 128,-1,29
 537 80 537 80 537 54 c 0,30,31
 537 25 537 25 519.5 8 c 128,-1,32
 502 -9 502 -9 477 -9 c 256,33,34
 452 -9 452 -9 434 8 c 128,-1,35
 416 25 416 25 416 54 c 0,24,25
EndSplineSet
EndChar

StartChar: endash.lat
Encoding: 65569 -1 45
Width: 521
GlyphClass: 2
Flags: W
LayerCount: 2
Fore
SplineSet
467 249 m 1,0,-1
 467 188 l 1,1,-1
 54 188 l 1,2,-1
 54 249 l 1,3,-1
 467 249 l 1,0,-1
EndSplineSet
EndChar

StartChar: emdash.lat
Encoding: 65570 -1 46
Width: 934
GlyphClass: 2
Flags: W
LayerCount: 2
Fore
SplineSet
880 248 m 1,0,-1
 880 188 l 1,1,-1
 54 188 l 1,2,-1
 54 248 l 1,3,-1
 880 248 l 1,0,-1
EndSplineSet
EndChar

StartChar: quoteleft.lat
Encoding: 65571 -1 47
Width: 204
GlyphClass: 2
Flags: W
LayerCount: 2
Fore
SplineSet
113 610 m 2,0,1
 139 605 139 605 152 587 c 128,-1,2
 165 569 165 569 165 546 c 0,3,4
 165 522 165 522 149.5 503 c 128,-1,5
 134 484 134 484 104 484 c 0,6,7
 92 484 92 484 79 488.5 c 128,-1,8
 66 493 66 493 55 504 c 128,-1,9
 44 515 44 515 37 534 c 128,-1,10
 30 553 30 553 30 582 c 0,11,12
 30 636 30 636 61 679.5 c 128,-1,13
 92 723 92 723 140 749 c 1,14,-1
 169 709 l 1,15,16
 143 695 143 695 122.5 671.5 c 128,-1,17
 102 648 102 648 95 613 c 1,18,-1
 113 610 l 2,0,1
EndSplineSet
EndChar

StartChar: quoteright.lat
Encoding: 65572 -1 48
Width: 204
GlyphClass: 2
Flags: W
LayerCount: 2
Fore
SplineSet
91 623 m 2,0,1
 65 628 65 628 52 646 c 128,-1,2
 39 664 39 664 39 687 c 0,3,4
 39 711 39 711 55.5 730 c 128,-1,5
 72 749 72 749 102 749 c 0,6,7
 114 749 114 749 126.5 745 c 128,-1,8
 139 741 139 741 149.5 730 c 128,-1,9
 160 719 160 719 167 700.5 c 128,-1,10
 174 682 174 682 174 654 c 0,11,12
 174 600 174 600 143 555 c 128,-1,13
 112 510 112 510 64 484 c 1,14,-1
 35 524 l 1,15,16
 61 538 61 538 81.5 561.5 c 128,-1,17
 102 585 102 585 109 620 c 1,18,-1
 91 623 l 2,0,1
EndSplineSet
EndChar

StartChar: divide
Encoding: 247 247 49
Width: 533
GlyphClass: 2
Flags: W
LayerCount: 2
Fore
SplineSet
203 92 m 0,0,1
 203 116 203 116 221.5 134.5 c 128,-1,2
 240 153 240 153 265 153 c 256,3,4
 290 153 290 153 308 134.5 c 128,-1,5
 326 116 326 116 326 92 c 0,6,7
 326 66 326 66 308 48 c 128,-1,8
 290 30 290 30 265 30 c 256,9,10
 240 30 240 30 221.5 48 c 128,-1,11
 203 66 203 66 203 92 c 0,0,1
203 416 m 0,12,13
 203 440 203 440 221.5 458.5 c 128,-1,14
 240 477 240 477 265 477 c 256,15,16
 290 477 290 477 308 458.5 c 128,-1,17
 326 440 326 440 326 416 c 0,18,19
 326 390 326 390 308 372 c 128,-1,20
 290 354 290 354 265 354 c 256,21,22
 240 354 240 354 221.5 372 c 128,-1,23
 203 390 203 390 203 416 c 0,12,13
493 284 m 1,24,-1
 493 223 l 1,25,-1
 40 223 l 1,26,-1
 40 284 l 1,27,-1
 493 284 l 1,24,-1
EndSplineSet
EndChar

StartChar: minus
Encoding: 8722 8722 50
Width: 473
GlyphClass: 2
Flags: W
LayerCount: 2
Fore
SplineSet
433 335 m 1,0,-1
 433 274 l 1,1,-1
 40 274 l 1,2,-1
 40 335 l 1,3,-1
 433 335 l 1,0,-1
EndSplineSet
EndChar

StartChar: multiply
Encoding: 215 215 51
Width: 400
GlyphClass: 2
Flags: W
LayerCount: 2
Fore
SplineSet
38 182 m 1,0,-1
 159 303 l 1,1,-1
 38 424 l 1,2,-1
 79 465 l 1,3,-1
 200 344 l 1,4,-1
 321 465 l 1,5,-1
 362 424 l 1,6,-1
 241 303 l 1,7,-1
 362 182 l 1,8,-1
 321 141 l 1,9,-1
 200 262 l 1,10,-1
 79 141 l 1,11,-1
 38 182 l 1,0,-1
EndSplineSet
EndChar

StartChar: dollar.lat
Encoding: 65573 -1 52
Width: 530
GlyphClass: 2
Flags: W
LayerCount: 2
Fore
SplineSet
233 720 m 1,0,-1
 298 720 l 1,1,-1
 298 617 l 1,2,3
 359 612 359 612 423 582 c 1,4,-1
 397 514 l 1,5,6
 361 533 361 533 329 541 c 128,-1,7
 297 549 297 549 265 549 c 0,8,9
 216 549 216 549 185 527 c 128,-1,10
 154 505 154 505 154 460 c 0,11,12
 154 419 154 419 182 400 c 128,-1,13
 210 381 210 381 256 366 c 2,14,-1
 302 351 l 2,15,16
 379 326 379 326 418.5 285.5 c 128,-1,17
 458 245 458 245 458 181 c 0,18,19
 458 143 458 143 444 113.5 c 128,-1,20
 430 84 430 84 406.5 62.5 c 128,-1,21
 383 41 383 41 351 28 c 128,-1,22
 319 15 319 15 283 11 c 1,23,-1
 283 -94 l 1,24,-1
 218 -94 l 1,25,-1
 218 11 l 1,26,27
 175 13 175 13 140.5 23 c 128,-1,28
 106 33 106 33 68 53 c 1,29,-1
 100 121 l 1,30,31
 142 97 142 97 181 88.5 c 128,-1,32
 220 80 220 80 250 80 c 0,33,34
 275 80 275 80 296.5 85.5 c 128,-1,35
 318 91 318 91 334.5 102.5 c 128,-1,36
 351 114 351 114 360.5 132 c 128,-1,37
 370 150 370 150 370 174 c 0,38,39
 370 216 370 216 340.5 238 c 128,-1,40
 311 260 311 260 254 278 c 2,41,-1
 208 293 l 2,42,43
 176 303 176 303 150 316.5 c 128,-1,44
 124 330 124 330 105.5 349 c 128,-1,45
 87 368 87 368 76.5 392.5 c 128,-1,46
 66 417 66 417 66 449 c 0,47,48
 66 525 66 525 111 568 c 128,-1,49
 156 611 156 611 233 618 c 1,50,-1
 233 720 l 1,0,-1
EndSplineSet
EndChar

StartChar: A
Encoding: 65 65 53
Width: 1019
GlyphClass: 2
Flags: W
LayerCount: 2
Fore
SplineSet
671 199 m 1,0,1
 673 206 673 206 674 217.5 c 128,-1,2
 675 229 675 229 675 243 c 0,3,4
 675 283 675 283 663 317 c 128,-1,5
 651 351 651 351 630 377 c 128,-1,6
 609 403 609 403 580.5 419.5 c 128,-1,7
 552 436 552 436 519 441 c 1,8,9
 538 426 538 426 549 405.5 c 128,-1,10
 560 385 560 385 560 361 c 0,11,12
 560 310 560 310 524.5 279.5 c 128,-1,13
 489 249 489 249 432 249 c 0,14,15
 404 249 404 249 379.5 257.5 c 128,-1,16
 355 266 355 266 337 281 c 128,-1,17
 319 296 319 296 309 317.5 c 128,-1,18
 299 339 299 339 299 365 c 0,19,20
 299 426 299 426 347.5 463 c 128,-1,21
 396 500 396 500 476 500 c 0,22,23
 537 500 537 500 587.5 481 c 128,-1,24
 638 462 638 462 674.5 428 c 128,-1,25
 711 394 711 394 731 346 c 128,-1,26
 751 298 751 298 751 241 c 0,27,28
 751 228 751 228 750 216.5 c 128,-1,29
 749 205 749 205 748 199 c 1,30,-1
 870 199 l 1,31,-1
 870 495 l 1,32,-1
 944 495 l 1,33,-1
 944 -82 l 1,34,-1
 870 -82 l 1,35,-1
 870 137 l 1,36,-1
 738 137 l 1,37,38
 721 83 721 83 685 43.5 c 128,-1,39
 649 4 649 4 598 -21.5 c 128,-1,40
 547 -47 547 -47 484 -59 c 128,-1,41
 421 -71 421 -71 351 -71 c 0,42,43
 280 -71 280 -71 219 -59.5 c 128,-1,44
 158 -48 158 -48 113.5 -26 c 128,-1,45
 69 -4 69 -4 43.5 28 c 128,-1,46
 18 60 18 60 18 101 c 0,47,48
 18 148 18 148 48.5 173.5 c 128,-1,49
 79 199 79 199 136 199 c 2,50,-1
 671 199 l 1,0,1
354 -5 m 0,51,52
 469 -5 469 -5 550 31.5 c 128,-1,53
 631 68 631 68 658 137 c 1,54,-1
 145 137 l 2,55,56
 119 137 119 137 108 125.5 c 128,-1,57
 97 114 97 114 97 97 c 0,58,59
 97 76 97 76 115 57.5 c 128,-1,60
 133 39 133 39 167 25 c 128,-1,61
 201 11 201 11 248 3 c 128,-1,62
 295 -5 295 -5 354 -5 c 0,51,52
493 370 m 0,63,64
 493 398 493 398 478.5 416 c 128,-1,65
 464 434 464 434 444 442 c 1,66,67
 414 440 414 440 393.5 419.5 c 128,-1,68
 373 399 373 399 373 368 c 0,69,70
 373 342 373 342 390.5 325.5 c 128,-1,71
 408 309 408 309 434 309 c 256,72,73
 460 309 460 309 476.5 326 c 128,-1,74
 493 343 493 343 493 370 c 0,63,64
EndSplineSet
EndChar

StartChar: B
Encoding: 66 66 54
Width: 537
GlyphClass: 2
Flags: W
LayerCount: 2
Fore
SplineSet
269 630 m 2,0,1
 363 630 363 630 415.5 589.5 c 128,-1,2
 468 549 468 549 468 471 c 0,3,4
 468 413 468 413 435.5 380.5 c 128,-1,5
 403 348 403 348 354 335 c 1,6,7
 382 330 382 330 406 317.5 c 128,-1,8
 430 305 430 305 448 285 c 128,-1,9
 466 265 466 265 476.5 237.5 c 128,-1,10
 487 210 487 210 487 176 c 0,11,12
 487 137 487 137 470 104.5 c 128,-1,13
 453 72 453 72 423 49 c 128,-1,14
 393 26 393 26 352 13 c 128,-1,15
 311 0 311 0 262 0 c 2,16,-1
 80 0 l 1,17,-1
 80 630 l 1,18,-1
 269 630 l 2,0,1
172 367 m 1,19,-1
 247 367 l 2,20,21
 272 367 272 367 295 371 c 128,-1,22
 318 375 318 375 335.5 386 c 128,-1,23
 353 397 353 397 363.5 415.5 c 128,-1,24
 374 434 374 434 374 464 c 0,25,26
 374 512 374 512 341.5 534 c 128,-1,27
 309 556 309 556 255 556 c 2,28,-1
 172 556 l 1,29,-1
 172 367 l 1,19,-1
172 74 m 1,30,-1
 252 74 l 2,31,32
 280 74 280 74 305 79.5 c 128,-1,33
 330 85 330 85 349 98 c 128,-1,34
 368 111 368 111 379.5 132.5 c 128,-1,35
 391 154 391 154 391 185 c 256,36,37
 391 216 391 216 377.5 236.5 c 128,-1,38
 364 257 364 257 342 270 c 128,-1,39
 320 283 320 283 292 288.5 c 128,-1,40
 264 294 264 294 236 294 c 2,41,-1
 172 294 l 1,42,-1
 172 74 l 1,30,-1
EndSplineSet
EndChar

StartChar: C
Encoding: 67 67 55
Width: 559
GlyphClass: 2
Flags: W
LayerCount: 2
Fore
SplineSet
355 67 m 0,0,1
 405 67 405 67 437.5 75 c 128,-1,2
 470 83 470 83 502 98 c 1,3,-1
 523 24 l 1,4,5
 488 7 488 7 446.5 -1 c 128,-1,6
 405 -9 405 -9 345 -9 c 0,7,8
 283 -9 283 -9 228 12 c 128,-1,9
 173 33 173 33 132.5 74 c 128,-1,10
 92 115 92 115 68.5 175.5 c 128,-1,11
 45 236 45 236 45 315 c 0,12,13
 45 392 45 392 68 452.5 c 128,-1,14
 91 513 91 513 131.5 554.5 c 128,-1,15
 172 596 172 596 228 617.5 c 128,-1,16
 284 639 284 639 350 639 c 0,17,18
 412 639 412 639 452 629 c 128,-1,19
 492 619 492 619 526 602 c 1,20,-1
 504 530 l 1,21,22
 485 538 485 538 468.5 544.5 c 128,-1,23
 452 551 452 551 435.5 555 c 128,-1,24
 419 559 419 559 401.5 561 c 128,-1,25
 384 563 384 563 362 563 c 0,26,27
 318 563 318 563 278.5 549.5 c 128,-1,28
 239 536 239 536 209.5 506 c 128,-1,29
 180 476 180 476 162.5 428.5 c 128,-1,30
 145 381 145 381 145 314 c 0,31,32
 145 246 145 246 162 199 c 128,-1,33
 179 152 179 152 207.5 123 c 128,-1,34
 236 94 236 94 274 80.5 c 128,-1,35
 312 67 312 67 355 67 c 0,0,1
EndSplineSet
EndChar

StartChar: D
Encoding: 68 68 56
Width: 642
GlyphClass: 2
Flags: W
LayerCount: 2
Fore
SplineSet
285 630 m 2,0,1
 352 630 352 630 409 611 c 128,-1,2
 466 592 466 592 507.5 554.5 c 128,-1,3
 549 517 549 517 572.5 460.5 c 128,-1,4
 596 404 596 404 596 329 c 0,5,6
 596 238 596 238 568 175 c 128,-1,7
 540 112 540 112 492.5 73 c 128,-1,8
 445 34 445 34 382.5 17 c 128,-1,9
 320 0 320 0 250 0 c 2,10,-1
 80 0 l 1,11,-1
 80 630 l 1,12,-1
 285 630 l 2,0,1
172 76 m 1,13,-1
 241 76 l 2,14,15
 289 76 289 76 335 86.5 c 128,-1,16
 381 97 381 97 416.5 125.5 c 128,-1,17
 452 154 452 154 474 203 c 128,-1,18
 496 252 496 252 496 329 c 0,19,20
 496 383 496 383 480 425 c 128,-1,21
 464 467 464 467 434 495.5 c 128,-1,22
 404 524 404 524 361.5 539 c 128,-1,23
 319 554 319 554 267 554 c 2,24,-1
 172 554 l 1,25,-1
 172 76 l 1,13,-1
EndSplineSet
EndChar

StartChar: E
Encoding: 69 69 57
Width: 501
GlyphClass: 2
Flags: W
LayerCount: 2
Fore
SplineSet
80 630 m 1,0,-1
 460 630 l 1,1,-1
 460 554 l 1,2,-1
 172 554 l 1,3,-1
 172 365 l 1,4,-1
 434 365 l 1,5,-1
 434 290 l 1,6,-1
 172 290 l 1,7,-1
 172 76 l 1,8,-1
 463 76 l 1,9,-1
 463 0 l 1,10,-1
 80 0 l 1,11,-1
 80 630 l 1,0,-1
EndSplineSet
EndChar

StartChar: F
Encoding: 70 70 58
Width: 485
GlyphClass: 2
Flags: W
LayerCount: 2
Fore
SplineSet
450 630 m 1,0,-1
 450 554 l 1,1,-1
 172 554 l 1,2,-1
 172 350 l 1,3,-1
 428 350 l 1,4,-1
 428 275 l 1,5,-1
 172 275 l 1,6,-1
 172 0 l 1,7,-1
 80 0 l 1,8,-1
 80 630 l 1,9,-1
 450 630 l 1,0,-1
EndSplineSet
EndChar

StartChar: G
Encoding: 71 71 59
Width: 618
GlyphClass: 2
Flags: W
LayerCount: 2
Fore
SplineSet
355 639 m 0,0,1
 410 639 410 639 454.5 631 c 128,-1,2
 499 623 499 623 537 603 c 1,3,-1
 515 531 l 1,4,5
 478 548 478 548 442.5 556 c 128,-1,6
 407 564 407 564 366 564 c 0,7,8
 322 564 322 564 282 551 c 128,-1,9
 242 538 242 538 211.5 508.5 c 128,-1,10
 181 479 181 479 163 431.5 c 128,-1,11
 145 384 145 384 145 314 c 0,12,13
 145 193 145 193 200 130 c 128,-1,14
 255 67 255 67 355 67 c 0,15,16
 393 67 393 67 420.5 71 c 128,-1,17
 448 75 448 75 474 85 c 1,18,-1
 474 260 l 1,19,-1
 355 260 l 1,20,-1
 355 332 l 1,21,-1
 560 332 l 1,22,-1
 560 28 l 1,23,24
 520 12 520 12 471 1.5 c 128,-1,25
 422 -9 422 -9 355 -9 c 0,26,27
 290 -9 290 -9 233.5 12 c 128,-1,28
 177 33 177 33 135 74 c 128,-1,29
 93 115 93 115 69 175 c 128,-1,30
 45 235 45 235 45 314 c 256,31,32
 45 393 45 393 68.5 454 c 128,-1,33
 92 515 92 515 133 556 c 128,-1,34
 174 597 174 597 231 618 c 128,-1,35
 288 639 288 639 355 639 c 0,0,1
EndSplineSet
EndChar

StartChar: H
Encoding: 72 72 60
Width: 1351
GlyphClass: 2
Flags: W
LayerCount: 2
Fore
SplineSet
856 500 m 0,0,1
 880 500 880 500 900.5 492.5 c 128,-1,2
 921 485 921 485 937 473 c 128,-1,3
 953 461 953 461 964 446 c 128,-1,4
 975 431 975 431 980 416 c 1,5,6
 984 431 984 431 993 446 c 128,-1,7
 1002 461 1002 461 1017 473 c 128,-1,8
 1032 485 1032 485 1053.5 492.5 c 128,-1,9
 1075 500 1075 500 1102 500 c 0,10,11
 1137 500 1137 500 1172 483 c 128,-1,12
 1207 466 1207 466 1235.5 429 c 128,-1,13
 1264 392 1264 392 1281.5 334.5 c 128,-1,14
 1299 277 1299 277 1299 195 c 0,15,16
 1299 32 1299 32 1216 -53.5 c 128,-1,17
 1133 -139 1133 -139 964 -139 c 2,18,-1
 158 -139 l 2,19,20
 126 -139 126 -139 112 -152.5 c 128,-1,21
 98 -166 98 -166 98 -188 c 0,22,23
 98 -205 98 -205 105.5 -221 c 128,-1,24
 113 -237 113 -237 122 -250 c 1,25,-1
 60 -283 l 1,26,27
 46 -265 46 -265 34 -239 c 128,-1,28
 22 -213 22 -213 22 -181 c 0,29,30
 22 -150 22 -150 32.5 -129.5 c 128,-1,31
 43 -109 43 -109 60 -97 c 128,-1,32
 77 -85 77 -85 98.5 -80 c 128,-1,33
 120 -75 120 -75 142 -75 c 2,34,-1
 974 -75 l 2,35,36
 1104 -75 1104 -75 1163 -4.5 c 128,-1,37
 1222 66 1222 66 1222 198 c 0,38,39
 1222 263 1222 263 1210.5 308 c 128,-1,40
 1199 353 1199 353 1180.5 381 c 128,-1,41
 1162 409 1162 409 1139 421.5 c 128,-1,42
 1116 434 1116 434 1092 434 c 0,43,44
 1054 434 1054 434 1035 410.5 c 128,-1,45
 1016 387 1016 387 1016 343 c 2,46,-1
 1016 0 l 1,47,-1
 942 0 l 1,48,-1
 942 336 l 2,49,50
 942 378 942 378 921 406 c 128,-1,51
 900 434 900 434 858 434 c 0,52,53
 820 434 820 434 801.5 409 c 128,-1,54
 783 384 783 384 783 340 c 2,55,-1
 783 0 l 1,56,-1
 482 0 l 1,57,-1
 459 48 l 1,58,59
 488 84 488 84 502.5 130.5 c 128,-1,60
 517 177 517 177 517 228 c 0,61,62
 517 274 517 274 503.5 312 c 128,-1,63
 490 350 490 350 465 377 c 128,-1,64
 440 404 440 404 403.5 419 c 128,-1,65
 367 434 367 434 321 434 c 0,66,67
 274 434 274 434 236 419 c 128,-1,68
 198 404 198 404 171 377 c 128,-1,69
 144 350 144 350 128.5 311.5 c 128,-1,70
 113 273 113 273 112 227 c 1,71,72
 130 256 130 256 162 274.5 c 128,-1,73
 194 293 194 293 234 293 c 0,74,75
 266 293 266 293 293 282 c 128,-1,76
 320 271 320 271 339.5 251.5 c 128,-1,77
 359 232 359 232 370 205 c 128,-1,78
 381 178 381 178 381 147 c 0,79,80
 381 112 381 112 369 84 c 128,-1,81
 357 56 357 56 336 35.5 c 128,-1,82
 315 15 315 15 285.5 4 c 128,-1,83
 256 -7 256 -7 221 -7 c 0,84,85
 182 -7 182 -7 150 9 c 128,-1,86
 118 25 118 25 95 54.5 c 128,-1,87
 72 84 72 84 59 125.5 c 128,-1,88
 46 167 46 167 46 217 c 0,89,90
 46 280 46 280 66.5 332.5 c 128,-1,91
 87 385 87 385 124.5 422 c 128,-1,92
 162 459 162 459 213 479.5 c 128,-1,93
 264 500 264 500 326 500 c 0,94,95
 384 500 384 500 433 480.5 c 128,-1,96
 482 461 482 461 518 425.5 c 128,-1,97
 554 390 554 390 574 341 c 128,-1,98
 594 292 594 292 594 233 c 0,99,100
 594 206 594 206 589.5 180 c 128,-1,101
 585 154 585 154 578 131.5 c 128,-1,102
 571 109 571 109 562.5 91.5 c 128,-1,103
 554 74 554 74 547 63 c 1,104,-1
 709 63 l 1,105,-1
 709 333 l 2,106,107
 709 422 709 422 750.5 461 c 128,-1,108
 792 500 792 500 856 500 c 0,0,1
219 230 m 0,109,110
 200 230 200 230 184.5 223.5 c 128,-1,111
 169 217 169 217 156 206 c 128,-1,112
 143 195 143 195 134 181.5 c 128,-1,113
 125 168 125 168 119 153 c 1,114,115
 128 105 128 105 157 80.5 c 128,-1,116
 186 56 186 56 221 56 c 0,117,118
 260 56 260 56 283.5 81 c 128,-1,119
 307 106 307 106 307 144 c 256,120,121
 307 182 307 182 284 206 c 128,-1,122
 261 230 261 230 219 230 c 0,109,110
EndSplineSet
EndChar

StartChar: I
Encoding: 73 73 61
Width: 251
GlyphClass: 2
Flags: W
LayerCount: 2
Fore
SplineSet
172 630 m 1,0,-1
 172 0 l 1,1,-1
 80 0 l 1,2,-1
 80 630 l 1,3,-1
 172 630 l 1,0,-1
EndSplineSet
EndChar

StartChar: J
Encoding: 74 74 62
Width: 269
GlyphClass: 2
Flags: W
LayerCount: 2
Fore
SplineSet
197 630 m 1,0,-1
 197 115 l 2,1,2
 197 45 197 45 190.5 0 c 128,-1,3
 184 -45 184 -45 159 -79 c 0,4,5
 129 -121 129 -121 81 -137.5 c 128,-1,6
 33 -154 33 -154 -15 -155 c 1,7,-1
 -15 -80 l 1,8,9
 44 -79 44 -79 76 -43 c 0,10,11
 94 -23 94 -23 99.5 6 c 128,-1,12
 105 35 105 35 105 67 c 2,13,-1
 105 630 l 1,14,-1
 197 630 l 1,0,-1
EndSplineSet
EndChar

StartChar: K
Encoding: 75 75 63
Width: 576
GlyphClass: 2
Flags: W
LayerCount: 2
Fore
SplineSet
80 0 m 1,0,-1
 80 630 l 1,1,-1
 172 630 l 1,2,-1
 172 345 l 1,3,-1
 437 630 l 1,4,-1
 551 630 l 1,5,-1
 291 351 l 1,6,-1
 571 0 l 1,7,-1
 455 0 l 1,8,-1
 225 288 l 1,9,-1
 172 231 l 1,10,-1
 172 0 l 1,11,-1
 80 0 l 1,0,-1
EndSplineSet
EndChar

StartChar: L
Encoding: 76 76 64
Width: 456
GlyphClass: 2
Flags: W
LayerCount: 2
Fore
SplineSet
80 630 m 1,0,-1
 172 630 l 1,1,-1
 172 78 l 1,2,-1
 441 78 l 1,3,-1
 441 0 l 1,4,-1
 80 0 l 1,5,-1
 80 630 l 1,0,-1
EndSplineSet
EndChar

StartChar: M
Encoding: 77 77 65
Width: 811
GlyphClass: 2
Flags: W
LayerCount: 2
Fore
SplineSet
117 630 m 1,0,-1
 237 630 l 1,1,-1
 369 228 l 2,2,3
 379 199 379 199 388 171.5 c 128,-1,4
 397 144 397 144 405 116 c 1,5,-1
 407 116 l 1,6,7
 415 144 415 144 423.5 170 c 128,-1,8
 432 196 432 196 443 228 c 2,9,-1
 572 630 l 1,10,-1
 692 630 l 1,11,-1
 747 0 l 1,12,-1
 655 0 l 1,13,-1
 629 334 l 2,14,15
 625 383 625 383 623 431.5 c 128,-1,16
 621 480 621 480 619 530 c 1,17,-1
 617 530 l 1,18,19
 603 481 603 481 588.5 432 c 128,-1,20
 574 383 574 383 558 334 c 2,21,-1
 447 0 l 1,22,-1
 363 0 l 1,23,-1
 252 335 l 2,24,25
 235 386 235 386 221 432.5 c 128,-1,26
 207 479 207 479 193 530 c 1,27,-1
 191 530 l 1,28,29
 189 481 189 481 185.5 432 c 128,-1,30
 182 383 182 383 178 334 c 2,31,-1
 154 0 l 1,32,-1
 64 0 l 1,33,-1
 117 630 l 1,0,-1
EndSplineSet
EndChar

StartChar: N
Encoding: 78 78 66
Width: 672
GlyphClass: 2
Flags: W
LayerCount: 2
Fore
SplineSet
80 630 m 1,0,-1
 160 630 l 1,1,-1
 447 231 l 2,2,3
 463 209 463 209 478 186 c 128,-1,4
 493 163 493 163 505 141 c 1,5,-1
 507 141 l 1,6,7
 505 176 505 176 504 211 c 128,-1,8
 503 246 503 246 503 281 c 2,9,-1
 503 630 l 1,10,-1
 593 630 l 1,11,-1
 593 0 l 1,12,-1
 513 0 l 1,13,-1
 229 394 l 2,14,15
 214 415 214 415 198 441.5 c 128,-1,16
 182 468 182 468 168 494 c 1,17,-1
 166 494 l 1,18,19
 168 452 168 452 169 410 c 128,-1,20
 170 368 170 368 170 326 c 2,21,-1
 170 0 l 1,22,-1
 80 0 l 1,23,-1
 80 630 l 1,0,-1
EndSplineSet
EndChar

StartChar: O
Encoding: 79 79 67
Width: 686
GlyphClass: 2
Flags: W
LayerCount: 2
Fore
SplineSet
345 639 m 256,0,1
 409 639 409 639 463 618.5 c 128,-1,2
 517 598 517 598 556.5 557.5 c 128,-1,3
 596 517 596 517 618 456.5 c 128,-1,4
 640 396 640 396 640 315 c 0,5,6
 640 236 640 236 617 175.5 c 128,-1,7
 594 115 594 115 554 74 c 128,-1,8
 514 33 514 33 459.5 12 c 128,-1,9
 405 -9 405 -9 341 -9 c 256,10,11
 277 -9 277 -9 223 11.5 c 128,-1,12
 169 32 169 32 129.5 72.5 c 128,-1,13
 90 113 90 113 68 173.5 c 128,-1,14
 46 234 46 234 46 315 c 0,15,16
 46 394 46 394 69 454.5 c 128,-1,17
 92 515 92 515 132 556 c 128,-1,18
 172 597 172 597 226.5 618 c 128,-1,19
 281 639 281 639 345 639 c 256,0,1
146 315 m 256,20,21
 146 251 146 251 161.5 204 c 128,-1,22
 177 157 177 157 204 126 c 128,-1,23
 231 95 231 95 267.5 80 c 128,-1,24
 304 65 304 65 345 65 c 256,25,26
 386 65 386 65 421.5 80 c 128,-1,27
 457 95 457 95 483.5 126 c 128,-1,28
 510 157 510 157 525 204 c 128,-1,29
 540 251 540 251 540 315 c 0,30,31
 540 381 540 381 524.5 428 c 128,-1,32
 509 475 509 475 482 505.5 c 128,-1,33
 455 536 455 536 418.5 550.5 c 128,-1,34
 382 565 382 565 341 565 c 256,35,36
 300 565 300 565 264 550 c 128,-1,37
 228 535 228 535 202 504 c 128,-1,38
 176 473 176 473 161 426 c 128,-1,39
 146 379 146 379 146 315 c 256,20,21
EndSplineSet
EndChar

StartChar: P
Encoding: 80 80 68
Width: 523
GlyphClass: 2
Flags: W
LayerCount: 2
Fore
SplineSet
80 630 m 1,0,-1
 278 630 l 2,1,2
 327 630 327 630 367 617.5 c 128,-1,3
 407 605 407 605 436 580.5 c 128,-1,4
 465 556 465 556 481 520.5 c 128,-1,5
 497 485 497 485 497 439 c 0,6,7
 497 389 497 389 480 352.5 c 128,-1,8
 463 316 463 316 432 292 c 128,-1,9
 401 268 401 268 359 256 c 128,-1,10
 317 244 317 244 266 244 c 2,11,-1
 172 244 l 1,12,-1
 172 0 l 1,13,-1
 80 0 l 1,14,-1
 80 630 l 1,0,-1
172 319 m 1,15,-1
 229 319 l 2,16,17
 266 319 266 319 298 324 c 128,-1,18
 330 329 330 329 352.5 342 c 128,-1,19
 375 355 375 355 388 378.5 c 128,-1,20
 401 402 401 402 401 438 c 0,21,22
 401 471 401 471 388.5 493.5 c 128,-1,23
 376 516 376 516 356 530 c 128,-1,24
 336 544 336 544 310 550 c 128,-1,25
 284 556 284 556 257 556 c 2,26,-1
 172 556 l 1,27,-1
 172 319 l 1,15,-1
EndSplineSet
EndChar

StartChar: Q
Encoding: 81 81 69
Width: 682
GlyphClass: 2
Flags: W
LayerCount: 2
Fore
SplineSet
345 639 m 256,0,1
 409 639 409 639 463 618.5 c 128,-1,2
 517 598 517 598 556.5 557.5 c 128,-1,3
 596 517 596 517 618 456.5 c 128,-1,4
 640 396 640 396 640 315 c 0,5,6
 640 210 640 210 597 136 c 128,-1,7
 554 62 554 62 458 8 c 2,8,-1
 322 -68 l 1,9,10
 352 -68 352 -68 377.5 -75.5 c 128,-1,11
 403 -83 403 -83 429 -92 c 128,-1,12
 455 -101 455 -101 483 -108.5 c 128,-1,13
 511 -116 511 -116 545 -116 c 0,14,15
 565 -116 565 -116 587.5 -109.5 c 128,-1,16
 610 -103 610 -103 630 -89 c 1,17,-1
 666 -156 l 1,18,19
 638 -174 638 -174 604.5 -183 c 128,-1,20
 571 -192 571 -192 542 -192 c 0,21,22
 507 -192 507 -192 472.5 -182.5 c 128,-1,23
 438 -173 438 -173 404 -161.5 c 128,-1,24
 370 -150 370 -150 337 -140.5 c 128,-1,25
 304 -131 304 -131 271 -131 c 0,26,27
 245 -131 245 -131 219.5 -139 c 128,-1,28
 194 -147 194 -147 168 -162 c 1,29,-1
 130 -93 l 1,30,-1
 284 -4 l 1,31,32
 231 4 231 4 187.5 28.5 c 128,-1,33
 144 53 144 53 112.5 92.5 c 128,-1,34
 81 132 81 132 63.5 188 c 128,-1,35
 46 244 46 244 46 315 c 0,36,37
 46 394 46 394 69 454.5 c 128,-1,38
 92 515 92 515 132 556 c 128,-1,39
 172 597 172 597 226.5 618 c 128,-1,40
 281 639 281 639 345 639 c 256,0,1
146 315 m 256,41,42
 146 251 146 251 160 203.5 c 128,-1,43
 174 156 174 156 199.5 124 c 128,-1,44
 225 92 225 92 260 76 c 128,-1,45
 295 60 295 60 336 60 c 256,46,47
 377 60 377 60 414 76.5 c 128,-1,48
 451 93 451 93 479 125.5 c 128,-1,49
 507 158 507 158 523.5 205.5 c 128,-1,50
 540 253 540 253 540 315 c 0,51,52
 540 381 540 381 524.5 428 c 128,-1,53
 509 475 509 475 482 505.5 c 128,-1,54
 455 536 455 536 418.5 550.5 c 128,-1,55
 382 565 382 565 341 565 c 256,56,57
 300 565 300 565 264 550 c 128,-1,58
 228 535 228 535 202 504 c 128,-1,59
 176 473 176 473 161 426 c 128,-1,60
 146 379 146 379 146 315 c 256,41,42
EndSplineSet
EndChar

StartChar: R
Encoding: 82 82 70
Width: 537
GlyphClass: 2
Flags: W
LayerCount: 2
Fore
SplineSet
80 630 m 1,0,-1
 285 630 l 2,1,2
 334 630 334 630 371.5 616 c 128,-1,3
 409 602 409 602 434 577 c 128,-1,4
 459 552 459 552 472 517.5 c 128,-1,5
 485 483 485 483 485 442 c 0,6,7
 485 406 485 406 474 377 c 128,-1,8
 463 348 463 348 445 326.5 c 128,-1,9
 427 305 427 305 403.5 289.5 c 128,-1,10
 380 274 380 274 356 264 c 1,11,-1
 522 0 l 1,12,-1
 419 0 l 1,13,-1
 270 247 l 1,14,-1
 167 247 l 1,15,-1
 167 0 l 1,16,-1
 80 0 l 1,17,-1
 80 630 l 1,0,-1
167 322 m 1,18,-1
 243 322 l 2,19,20
 274 322 274 322 300.5 328.5 c 128,-1,21
 327 335 327 335 346.5 348.5 c 128,-1,22
 366 362 366 362 377.5 384 c 128,-1,23
 389 406 389 406 389 437 c 0,24,25
 389 498 389 498 355.5 527 c 128,-1,26
 322 556 322 556 258 556 c 2,27,-1
 167 556 l 1,28,-1
 167 322 l 1,18,-1
EndSplineSet
EndChar

StartChar: S
Encoding: 83 83 71
Width: 505
GlyphClass: 2
Flags: W
LayerCount: 2
Fore
SplineSet
257 639 m 0,0,1
 303 639 303 639 346 631.5 c 128,-1,2
 389 624 389 624 431 604 c 1,3,-1
 409 528 l 1,4,5
 366 548 366 548 331.5 556.5 c 128,-1,6
 297 565 297 565 261 565 c 0,7,8
 204 565 204 565 171 540 c 128,-1,9
 138 515 138 515 138 470 c 0,10,11
 138 432 138 432 162.5 409 c 128,-1,12
 187 386 187 386 243 369 c 2,13,-1
 306 349 l 2,14,15
 392 322 392 322 427.5 275.5 c 128,-1,16
 463 229 463 229 463 171 c 0,17,18
 463 130 463 130 446.5 96.5 c 128,-1,19
 430 63 430 63 400.5 39.5 c 128,-1,20
 371 16 371 16 331 3.5 c 128,-1,21
 291 -9 291 -9 243 -9 c 256,22,23
 195 -9 195 -9 145.5 -0.5 c 128,-1,24
 96 8 96 8 47 31 c 1,25,-1
 69 106 l 1,26,27
 112 85 112 85 153 75 c 128,-1,28
 194 65 194 65 239 65 c 0,29,30
 293 65 293 65 331 90 c 128,-1,31
 369 115 369 115 369 164 c 0,32,33
 369 182 369 182 363.5 197.5 c 128,-1,34
 358 213 358 213 344.5 227 c 128,-1,35
 331 241 331 241 308 253 c 128,-1,36
 285 265 285 265 250 276 c 2,37,-1
 187 296 l 2,38,39
 118 318 118 318 81 356 c 128,-1,40
 44 394 44 394 44 459 c 0,41,42
 44 542 44 542 98.5 590.5 c 128,-1,43
 153 639 153 639 257 639 c 0,0,1
EndSplineSet
EndChar

StartChar: T
Encoding: 84 84 72
Width: 501
GlyphClass: 2
Flags: W
LayerCount: 2
Fore
SplineSet
492 630 m 1,0,-1
 492 552 l 1,1,-1
 295 552 l 1,2,-1
 295 0 l 1,3,-1
 203 0 l 1,4,-1
 203 552 l 1,5,-1
 10 552 l 1,6,-1
 10 630 l 1,7,-1
 492 630 l 1,0,-1
EndSplineSet
EndChar

StartChar: U
Encoding: 85 85 73
Width: 640
GlyphClass: 2
Flags: W
LayerCount: 2
Fore
SplineSet
72 630 m 1,0,-1
 164 630 l 1,1,-1
 164 253 l 2,2,3
 164 152 164 152 201 109 c 128,-1,4
 238 66 238 66 320 66 c 0,5,6
 401 66 401 66 438.5 114 c 128,-1,7
 476 162 476 162 476 241 c 2,8,-1
 476 630 l 1,9,-1
 568 630 l 1,10,-1
 568 244 l 2,11,12
 568 115 568 115 502 53 c 128,-1,13
 436 -9 436 -9 320 -9 c 0,14,15
 203 -9 203 -9 137.5 52.5 c 128,-1,16
 72 114 72 114 72 249 c 2,17,-1
 72 630 l 1,0,-1
EndSplineSet
EndChar

StartChar: V
Encoding: 86 86 74
Width: 574
GlyphClass: 2
Flags: W
LayerCount: 2
Fore
SplineSet
94 630 m 1,0,-1
 225 274 l 2,1,2
 239 237 239 237 255.5 192.5 c 128,-1,3
 272 148 272 148 286 110 c 1,4,-1
 288 110 l 1,5,-1
 348 274 l 1,6,-1
 481 630 l 1,7,-1
 577 630 l 1,8,-1
 329 0 l 1,9,-1
 240 0 l 1,10,-1
 -3 630 l 1,11,-1
 94 630 l 1,0,-1
EndSplineSet
EndChar

StartChar: W
Encoding: 87 87 75
Width: 859
GlyphClass: 2
Flags: W
LayerCount: 2
Fore
SplineSet
102 630 m 1,0,-1
 209 259 l 2,1,2
 213 247 213 247 217.5 228.5 c 128,-1,3
 222 210 222 210 227 189.5 c 128,-1,4
 232 169 232 169 236 148.5 c 128,-1,5
 240 128 240 128 242 110 c 1,6,-1
 244 110 l 1,7,8
 247 128 247 128 251.5 148.5 c 128,-1,9
 256 169 256 169 261 189.5 c 128,-1,10
 266 210 266 210 270.5 228 c 128,-1,11
 275 246 275 246 279 259 c 2,12,-1
 389 630 l 1,13,-1
 471 630 l 1,14,-1
 585 259 l 2,15,16
 589 246 589 246 593.5 228 c 128,-1,17
 598 210 598 210 602.5 190 c 128,-1,18
 607 170 607 170 611.5 149 c 128,-1,19
 616 128 616 128 619 110 c 1,20,-1
 621 110 l 1,21,22
 624 129 624 129 628.5 150 c 128,-1,23
 633 171 633 171 638 191.5 c 128,-1,24
 643 212 643 212 647.5 229.5 c 128,-1,25
 652 247 652 247 655 259 c 2,26,-1
 758 630 l 1,27,-1
 851 630 l 1,28,-1
 666 0 l 1,29,-1
 573 0 l 1,30,-1
 477 335 l 2,31,32
 470 360 470 360 463.5 382 c 128,-1,33
 457 404 457 404 451.5 424 c 128,-1,34
 446 444 446 444 440.5 464.5 c 128,-1,35
 435 485 435 485 429 508 c 1,36,-1
 427 508 l 1,37,38
 417 463 417 463 405 418 c 128,-1,39
 393 373 393 373 382 335 c 2,40,-1
 289 0 l 1,41,-1
 197 0 l 1,42,-1
 8 630 l 1,43,-1
 102 630 l 1,0,-1
EndSplineSet
EndChar

StartChar: X
Encoding: 88 88 76
Width: 545
GlyphClass: 2
Flags: W
LayerCount: 2
Fore
SplineSet
120 630 m 1,0,-1
 271 384 l 1,1,-1
 429 630 l 1,2,-1
 530 630 l 1,3,-1
 323 320 l 1,4,-1
 540 0 l 1,5,-1
 434 0 l 1,6,-1
 271 256 l 1,7,-1
 107 0 l 1,8,-1
 6 0 l 1,9,-1
 216 320 l 1,10,-1
 15 630 l 1,11,-1
 120 630 l 1,0,-1
EndSplineSet
EndChar

StartChar: Y
Encoding: 89 89 77
Width: 523
GlyphClass: 2
Flags: W
LayerCount: 2
Fore
SplineSet
111 630 m 1,0,-1
 268 348 l 1,1,-1
 426 630 l 1,2,-1
 523 630 l 1,3,-1
 310 264 l 1,4,-1
 310 0 l 1,5,-1
 218 0 l 1,6,-1
 218 264 l 1,7,-1
 10 630 l 1,8,-1
 111 630 l 1,0,-1
EndSplineSet
EndChar

StartChar: Z
Encoding: 90 90 78
Width: 511
GlyphClass: 2
Flags: W
LayerCount: 2
Fore
SplineSet
481 630 m 1,0,-1
 481 575 l 1,1,-1
 135 74 l 1,2,-1
 486 74 l 1,3,-1
 486 0 l 1,4,-1
 26 0 l 1,5,-1
 26 65 l 1,6,-1
 366 556 l 1,7,-1
 41 556 l 1,8,-1
 41 630 l 1,9,-1
 481 630 l 1,0,-1
EndSplineSet
EndChar

StartChar: grave
Encoding: 96 96 79
Width: 210
GlyphClass: 2
Flags: W
LayerCount: 2
Fore
SplineSet
22 720 m 1,0,-1
 110 720 l 1,1,-1
 190 555 l 1,2,-1
 128 555 l 1,3,-1
 22 720 l 1,0,-1
EndSplineSet
EndChar

StartChar: a
Encoding: 97 97 80
Width: 489
GlyphClass: 2
Flags: W
LayerCount: 2
Fore
SplineSet
73 428 m 1,0,1
 97 440 97 440 118 449.5 c 128,-1,2
 139 459 139 459 160 465 c 128,-1,3
 181 471 181 471 203 474 c 128,-1,4
 225 477 225 477 251 477 c 0,5,6
 290 477 290 477 322.5 468.5 c 128,-1,7
 355 460 355 460 378.5 440 c 128,-1,8
 402 420 402 420 415 387.5 c 128,-1,9
 428 355 428 355 428 306 c 2,10,-1
 428 0 l 1,11,-1
 355 0 l 1,12,-1
 344 52 l 1,13,-1
 342 52 l 1,14,15
 311 19 311 19 274 5 c 128,-1,16
 237 -9 237 -9 192 -9 c 0,17,18
 158 -9 158 -9 129.5 0.5 c 128,-1,19
 101 10 101 10 80 27.5 c 128,-1,20
 59 45 59 45 47.5 70 c 128,-1,21
 36 95 36 95 36 126 c 0,22,23
 36 200 36 200 94.5 238.5 c 128,-1,24
 153 277 153 277 249 277 c 2,25,-1
 339 277 l 1,26,-1
 339 317 l 2,27,28
 339 368 339 368 313 386.5 c 128,-1,29
 287 405 287 405 243 405 c 0,30,31
 217 405 217 405 183.5 396.5 c 128,-1,32
 150 388 150 388 107 364 c 1,33,-1
 73 428 l 1,0,1
340 217 m 1,34,-1
 266 215 l 2,35,36
 191 213 191 213 159.5 188.5 c 128,-1,37
 128 164 128 164 128 129 c 0,38,39
 128 108 128 108 135 93.5 c 128,-1,40
 142 79 142 79 153.5 71 c 128,-1,41
 165 63 165 63 180.5 59.5 c 128,-1,42
 196 56 196 56 213 56 c 0,43,44
 246 56 246 56 280 71.5 c 128,-1,45
 314 87 314 87 340 121 c 1,46,-1
 340 217 l 1,34,-1
EndSplineSet
Substitution2: "'ss01' Style Set 1 lookup 15 subtable" a.alt
Substitution2: "'salt' Stylistic Alternatives lookup 10 subtable" a.alt
Substitution2: "'smcp' Lowercase to Small Capitals lookup 3 subtable" Asmall
EndChar

StartChar: b
Encoding: 98 98 81
Width: 540
GlyphClass: 2
Flags: W
LayerCount: 2
Fore
SplineSet
502 235 m 0,0,1
 502 179 502 179 485 134 c 128,-1,2
 468 89 468 89 439 57 c 128,-1,3
 410 25 410 25 371 8 c 128,-1,4
 332 -9 332 -9 288 -9 c 0,5,6
 242 -9 242 -9 207.5 4 c 128,-1,7
 173 17 173 17 143 44 c 1,8,-1
 141 44 l 1,9,-1
 132 0 l 1,10,-1
 69 0 l 1,11,-1
 69 710 l 1,12,-1
 156 710 l 1,13,-1
 156 411 l 1,14,15
 188 445 188 445 226.5 461 c 128,-1,16
 265 477 265 477 307 477 c 0,17,18
 397 477 397 477 449.5 413 c 128,-1,19
 502 349 502 349 502 235 c 0,0,1
410 234 m 0,20,21
 410 312 410 312 377 358.5 c 128,-1,22
 344 405 344 405 284 405 c 0,23,24
 246 405 246 405 215 388 c 128,-1,25
 184 371 184 371 156 340 c 1,26,-1
 156 112 l 1,27,28
 177 88 177 88 203.5 73.5 c 128,-1,29
 230 59 230 59 265 59 c 0,30,31
 293 59 293 59 319.5 69 c 128,-1,32
 346 79 346 79 366 100.5 c 128,-1,33
 386 122 386 122 398 155 c 128,-1,34
 410 188 410 188 410 234 c 0,20,21
EndSplineSet
Substitution2: "'smcp' Lowercase to Small Capitals lookup 3 subtable" Bsmall
EndChar

StartChar: c
Encoding: 99 99 82
Width: 559
GlyphClass: 2
Flags: W
LayerCount: 2
Fore
SplineSet
338 145.25 m 5,0,-1
 295.760742188 145.25 l 5,1,-1
 295.760742188 518 l 5,2,-1
 338 518 l 5,3,-1
 338 360.5 l 5,4,5
 353.83984375 375.724609375 353.83984375 375.724609375 373.040039062 385.69921875 c 132,-1,6
 392.240234375 395.674804688 392.240234375 395.674804688 415.280273438 395.674804688 c 4,7,8
 434 395.674804688 434 395.674804688 447.919921875 389.63671875 c 132,-1,9
 461.83984375 383.599609375 461.83984375 383.599609375 470.720703125 372.836914062 c 132,-1,10
 479.600585938 362.07421875 479.600585938 362.07421875 484.16015625 347.375 c 132,-1,11
 488.720703125 332.674804688 488.720703125 332.674804688 488.720703125 315.349609375 c 6,12,-1
 488.720703125 145.25 l 5,13,-1
 446.48046875 145.25 l 5,14,-1
 446.48046875 303.799804688 l 6,15,16
 446.48046875 332.149414062 446.48046875 332.149414062 435.919921875 345.01171875 c 132,-1,17
 425.360351562 357.875 425.360351562 357.875 403.760742188 357.875 c 4,18,19
 387.440429688 357.875 387.440429688 357.875 370.879882812 348.94921875 c 132,-1,20
 354.3203125 340.024414062 354.3203125 340.024414062 338 323.75 c 5,21,-1
 338 145.25 l 5,0,-1
355 67 m 0,22,23
 405 67 405 67 437.5 75 c 128,-1,24
 470 83 470 83 502 98 c 1,25,-1
 523 24 l 1,26,27
 488 7 488 7 446.5 -1 c 128,-1,28
 405 -9 405 -9 345 -9 c 0,29,30
 283 -9 283 -9 228 12 c 128,-1,31
 173 33 173 33 132.5 74 c 128,-1,32
 92 115 92 115 68.5 175.5 c 128,-1,33
 45 236 45 236 45 315 c 0,34,35
 45 392 45 392 68 452.5 c 128,-1,36
 91 513 91 513 131.5 554.5 c 128,-1,37
 172 596 172 596 228 617.5 c 128,-1,38
 284 639 284 639 350 639 c 0,39,40
 412 639 412 639 452 629 c 128,-1,41
 492 619 492 619 526 602 c 1,42,-1
 504 530 l 1,43,44
 485 538 485 538 468.5 544.5 c 128,-1,45
 452 551 452 551 435.5 555 c 128,-1,46
 419 559 419 559 401.5 561 c 128,-1,47
 384 563 384 563 362 563 c 0,48,49
 318 563 318 563 278.5 549.5 c 128,-1,50
 239 536 239 536 209.5 506 c 128,-1,51
 180 476 180 476 162.5 428.5 c 128,-1,52
 145 381 145 381 145 314 c 0,53,54
 145 246 145 246 162 199 c 128,-1,55
 179 152 179 152 207.5 123 c 128,-1,56
 236 94 236 94 274 80.5 c 128,-1,57
 312 67 312 67 355 67 c 0,22,23
EndSplineSet
Substitution2: "'smcp' Lowercase to Small Capitals lookup 3 subtable" Csmall
EndChar

StartChar: d
Encoding: 100 100 83
Width: 536
GlyphClass: 2
Flags: W
LayerCount: 2
Fore
SplineSet
380 710 m 1,0,-1
 468 710 l 1,1,-1
 468 0 l 1,2,-1
 394 0 l 1,3,-1
 383 52 l 1,4,-1
 380 52 l 1,5,6
 349 20 349 20 317.5 5.5 c 128,-1,7
 286 -9 286 -9 238 -9 c 0,8,9
 200 -9 200 -9 164.5 6 c 128,-1,10
 129 21 129 21 101 51 c 128,-1,11
 73 81 73 81 56 126.5 c 128,-1,12
 39 172 39 172 39 234 c 0,13,14
 39 289 39 289 53.5 334 c 128,-1,15
 68 379 68 379 95 411 c 128,-1,16
 122 443 122 443 161 460 c 128,-1,17
 200 477 200 477 250 477 c 0,18,19
 287 477 287 477 320.5 465.5 c 128,-1,20
 354 454 354 454 380 431 c 1,21,-1
 380 710 l 1,0,-1
380 357 m 1,22,23
 333 410 333 410 269 410 c 0,24,25
 242 410 242 410 216.5 400.5 c 128,-1,26
 191 391 191 391 171.5 370 c 128,-1,27
 152 349 152 349 140 316 c 128,-1,28
 128 283 128 283 128 237 c 0,29,30
 128 189 128 189 139 155.5 c 128,-1,31
 150 122 150 122 168.5 100.5 c 128,-1,32
 187 79 187 79 210.5 69 c 128,-1,33
 234 59 234 59 258 59 c 0,34,35
 333 59 333 59 380 124 c 1,36,-1
 380 357 l 1,22,23
EndSplineSet
Substitution2: "'smcp' Lowercase to Small Capitals lookup 3 subtable" Dsmall
EndChar

StartChar: e
Encoding: 101 101 84
Width: 504
GlyphClass: 2
Flags: W
LayerCount: 2
Fore
SplineSet
468 225 m 1,0,-1
 131 225 l 1,1,-1
 131 221 l 2,2,3
 131 143 131 143 173.5 101 c 128,-1,4
 216 59 216 59 289 59 c 0,5,6
 327 59 327 59 356.5 65 c 128,-1,7
 386 71 386 71 421 85 c 1,8,-1
 439 20 l 1,9,10
 410 7 410 7 370.5 -1 c 128,-1,11
 331 -9 331 -9 286 -9 c 0,12,13
 235 -9 235 -9 190.5 5 c 128,-1,14
 146 19 146 19 112 48.5 c 128,-1,15
 78 78 78 78 58.5 124 c 128,-1,16
 39 170 39 170 39 234 c 0,17,18
 39 289 39 289 55.5 334 c 128,-1,19
 72 379 72 379 102 410.5 c 128,-1,20
 132 442 132 442 174.5 459.5 c 128,-1,21
 217 477 217 477 270 477 c 0,22,23
 315 477 315 477 351.5 462 c 128,-1,24
 388 447 388 447 414 420 c 128,-1,25
 440 393 440 393 454 355 c 128,-1,26
 468 317 468 317 468 271 c 2,27,-1
 468 225 l 1,0,-1
377 288 m 1,28,29
 377 314 377 314 370.5 336.5 c 128,-1,30
 364 359 364 359 350.5 376 c 128,-1,31
 337 393 337 393 316 403 c 128,-1,32
 295 413 295 413 265 413 c 0,33,34
 210 413 210 413 175.5 378 c 128,-1,35
 141 343 141 343 133 286 c 1,36,-1
 377 288 l 1,28,29
EndSplineSet
Substitution2: "'smcp' Lowercase to Small Capitals lookup 3 subtable" Esmall
EndChar

StartChar: f
Encoding: 102 102 85
Width: 332
GlyphClass: 2
Flags: W
LayerCount: 2
Fore
SplineSet
245 715 m 0,0,1
 273 715 273 715 303.5 707 c 128,-1,2
 334 699 334 699 358 687 c 1,3,-1
 340 626 l 1,4,5
 320 634 320 634 302 638.5 c 128,-1,6
 284 643 284 643 264 643 c 0,7,8
 216 643 216 643 195.5 616 c 128,-1,9
 175 589 175 589 175 524 c 2,10,-1
 175 470 l 1,11,-1
 318 470 l 1,12,-1
 318 404 l 1,13,-1
 175 404 l 1,14,-1
 175 0 l 1,15,-1
 88 0 l 1,16,-1
 88 404 l 1,17,-1
 19 404 l 1,18,-1
 19 470 l 1,19,-1
 88 470 l 1,20,-1
 88 553 l 2,21,22
 88 631 88 631 128.5 673 c 128,-1,23
 169 715 169 715 245 715 c 0,0,1
EndSplineSet
Substitution2: "'smcp' Lowercase to Small Capitals lookup 3 subtable" Fsmall
EndChar

StartChar: g
Encoding: 103 103 86
Width: 541
GlyphClass: 2
Flags: W
LayerCount: 2
Fore
SplineSet
61 314 m 0,0,1
 61 353 61 353 75 383.5 c 128,-1,2
 89 414 89 414 114.5 435 c 128,-1,3
 140 456 140 456 175 466.5 c 128,-1,4
 210 477 210 477 251 477 c 0,5,6
 266 477 266 477 280 475 c 128,-1,7
 294 473 294 473 308 470 c 2,8,-1
 511 470 l 1,9,-1
 511 405 l 1,10,-1
 480 405 l 1,11,-1
 400 416 l 1,12,13
 419 396 419 396 429.5 370 c 128,-1,14
 440 344 440 344 440 315 c 0,15,16
 440 276 440 276 426 245.5 c 128,-1,17
 412 215 412 215 387 194 c 128,-1,18
 362 173 362 173 327 162.5 c 128,-1,19
 292 152 292 152 251 152 c 0,20,21
 220 152 220 152 197 156 c 1,22,23
 174 148 174 148 165 135.5 c 128,-1,24
 156 123 156 123 156 109 c 0,25,26
 156 86 156 86 171.5 78 c 128,-1,27
 187 70 187 70 213 70 c 2,28,-1
 337 70 l 2,29,30
 415 70 415 70 456.5 34.5 c 128,-1,31
 498 -1 498 -1 498 -62 c 0,32,33
 498 -101 498 -101 481 -132 c 128,-1,34
 464 -163 464 -163 432.5 -185 c 128,-1,35
 401 -207 401 -207 356 -218.5 c 128,-1,36
 311 -230 311 -230 255 -230 c 0,37,38
 153 -230 153 -230 92.5 -193.5 c 128,-1,39
 32 -157 32 -157 32 -86 c 0,40,41
 32 -49 32 -49 55.5 -24 c 128,-1,42
 79 1 79 1 117 14 c 1,43,44
 97 28 97 28 87 43.5 c 128,-1,45
 77 59 77 59 77 85 c 0,46,47
 77 116 77 116 95.5 138 c 128,-1,48
 114 160 114 160 146 173 c 1,49,50
 106 191 106 191 83.5 225.5 c 128,-1,51
 61 260 61 260 61 314 c 0,0,1
168 0 m 1,52,53
 117 -23 117 -23 117 -72 c 0,54,55
 117 -160 117 -160 259 -160 c 0,56,57
 301 -160 301 -160 330 -152 c 128,-1,58
 359 -144 359 -144 377 -131 c 128,-1,59
 395 -118 395 -118 403.5 -102 c 128,-1,60
 412 -86 412 -86 412 -69 c 0,61,62
 412 -27 412 -27 383.5 -13.5 c 128,-1,63
 355 0 355 0 312 0 c 2,64,-1
 168 0 l 1,52,53
351 312 m 0,65,66
 351 365 351 365 323.5 390 c 128,-1,67
 296 415 296 415 251 415 c 256,68,69
 206 415 206 415 178.5 390 c 128,-1,70
 151 365 151 365 151 316 c 0,71,72
 151 264 151 264 178.5 239.5 c 128,-1,73
 206 215 206 215 251 215 c 256,74,75
 296 215 296 215 323.5 239 c 128,-1,76
 351 263 351 263 351 312 c 0,65,66
EndSplineSet
Substitution2: "'ss01' Style Set 1 lookup 15 subtable" g.alt
Substitution2: "'salt' Stylistic Alternatives lookup 10 subtable" g.alt
Substitution2: "'smcp' Lowercase to Small Capitals lookup 3 subtable" Gsmall
EndChar

StartChar: h
Encoding: 104 104 87
Width: 540
GlyphClass: 2
Flags: W
LayerCount: 2
Fore
SplineSet
157 0 m 1,0,-1
 69 0 l 1,1,-1
 69 710 l 1,2,-1
 157 710 l 1,3,-1
 157 410 l 1,4,5
 190 439 190 439 230 458 c 128,-1,6
 270 477 270 477 318 477 c 0,7,8
 357 477 357 477 386 465.5 c 128,-1,9
 415 454 415 454 433.5 433.5 c 128,-1,10
 452 413 452 413 461.5 385 c 128,-1,11
 471 357 471 357 471 324 c 2,12,-1
 471 0 l 1,13,-1
 383 0 l 1,14,-1
 383 302 l 2,15,16
 383 356 383 356 361 380.5 c 128,-1,17
 339 405 339 405 294 405 c 0,18,19
 260 405 260 405 225.5 388 c 128,-1,20
 191 371 191 371 157 340 c 1,21,-1
 157 0 l 1,0,-1
EndSplineSet
Substitution2: "'smcp' Lowercase to Small Capitals lookup 3 subtable" Hsmall
EndChar

StartChar: i
Encoding: 105 105 88
Width: 246
GlyphClass: 2
Flags: W
LayerCount: 2
Fore
SplineSet
82 0 m 1,0,-1
 82 470 l 1,1,-1
 170 470 l 1,2,-1
 170 0 l 1,3,-1
 82 0 l 1,0,-1
126 591 m 0,4,5
 103 591 103 591 86.5 606.5 c 128,-1,6
 70 622 70 622 70 645 c 256,7,8
 70 668 70 668 86.5 684 c 128,-1,9
 103 700 103 700 126 700 c 0,10,11
 148 700 148 700 165 684 c 128,-1,12
 182 668 182 668 182 645 c 256,13,14
 182 622 182 622 165 606.5 c 128,-1,15
 148 591 148 591 126 591 c 0,4,5
EndSplineSet
Substitution2: "'smcp' Lowercase to Small Capitals lookup 3 subtable" Ismall
EndChar

StartChar: j
Encoding: 106 106 89
Width: 246
GlyphClass: 2
Flags: W
LayerCount: 2
Fore
SplineSet
79 470 m 1,0,-1
 167 470 l 1,1,-1
 167 71 l 2,2,3
 167 14 167 14 160.5 -33.5 c 128,-1,4
 154 -81 154 -81 136 -119.5 c 128,-1,5
 118 -158 118 -158 86 -188 c 128,-1,6
 54 -218 54 -218 4 -240 c 1,7,-1
 -37 -174 l 1,8,9
 -6 -158 -6 -158 16.5 -141 c 128,-1,10
 39 -124 39 -124 52.5 -98.5 c 128,-1,11
 66 -73 66 -73 72.5 -35.5 c 128,-1,12
 79 2 79 2 79 60 c 2,13,-1
 79 470 l 1,0,-1
122 591 m 0,14,15
 99 591 99 591 82.5 606.5 c 128,-1,16
 66 622 66 622 66 645 c 256,17,18
 66 668 66 668 82.5 684 c 128,-1,19
 99 700 99 700 122 700 c 0,20,21
 144 700 144 700 161 684 c 128,-1,22
 178 668 178 668 178 645 c 256,23,24
 178 622 178 622 161 606.5 c 128,-1,25
 144 591 144 591 122 591 c 0,14,15
EndSplineSet
Substitution2: "'smcp' Lowercase to Small Capitals lookup 3 subtable" Jsmall
EndChar

StartChar: k
Encoding: 107 107 90
Width: 665
GlyphClass: 2
Flags: W
LayerCount: 2
Fore
SplineSet
559 495 m 1,0,-1
 559 433 l 1,1,-1
 409 433 l 1,2,-1
 409 293 l 1,3,-1
 455 293 l 2,4,5
 548 293 548 293 594 252 c 128,-1,6
 640 211 640 211 640 141 c 0,7,8
 640 108 640 108 628 80.5 c 128,-1,9
 616 53 616 53 594.5 33.5 c 128,-1,10
 573 14 573 14 543.5 3.5 c 128,-1,11
 514 -7 514 -7 479 -7 c 0,12,13
 452 -7 452 -7 434 -2 c 1,14,-1
 442 61 l 1,15,16
 450 59 450 59 459.5 58 c 128,-1,17
 469 57 469 57 477 57 c 0,18,19
 516 57 516 57 540 80 c 128,-1,20
 564 103 564 103 564 141 c 0,21,22
 564 230 564 230 452 230 c 2,23,-1
 409 230 l 1,24,-1
 409 146 l 2,25,26
 409 79 409 79 361 36 c 128,-1,27
 313 -7 313 -7 226 -7 c 0,28,29
 185 -7 185 -7 149.5 4 c 128,-1,30
 114 15 114 15 88 36 c 128,-1,31
 62 57 62 57 47 86.5 c 128,-1,32
 32 116 32 116 32 153 c 0,33,34
 32 180 32 180 40 202 c 128,-1,35
 48 224 48 224 61.5 240.5 c 128,-1,36
 75 257 75 257 92.5 268 c 128,-1,37
 110 279 110 279 129 283 c 1,38,-1
 129 495 l 1,39,-1
 559 495 l 1,0,-1
197 230 m 2,40,41
 155 230 155 230 130 210 c 128,-1,42
 105 190 105 190 105 152 c 0,43,44
 105 109 105 109 139 82.5 c 128,-1,45
 173 56 173 56 230 56 c 0,46,47
 281 56 281 56 309 82.5 c 128,-1,48
 337 109 337 109 337 156 c 2,49,-1
 337 230 l 1,50,-1
 197 230 l 2,40,41
201 293 m 1,51,-1
 337 293 l 1,52,-1
 337 433 l 1,53,-1
 201 433 l 1,54,-1
 201 293 l 1,51,-1
EndSplineSet
Substitution2: "'smcp' Lowercase to Small Capitals lookup 3 subtable" Ksmall
EndChar

StartChar: l
Encoding: 108 108 91
Width: 230
GlyphClass: 2
Flags: W
LayerCount: 2
Fore
SplineSet
72 0 m 1,0,-1
 72 710 l 1,1,-1
 158 710 l 1,2,-1
 158 0 l 1,3,-1
 72 0 l 1,0,-1
EndSplineSet
Substitution2: "'smcp' Lowercase to Small Capitals lookup 3 subtable" Lsmall
EndChar

StartChar: m
Encoding: 109 109 92
Width: 824
GlyphClass: 2
Flags: W
LayerCount: 2
Fore
SplineSet
156 0 m 1,0,-1
 68 0 l 1,1,-1
 68 470 l 1,2,-1
 136 470 l 1,3,-1
 149 405 l 1,4,5
 182 438 182 438 220 457.5 c 128,-1,6
 258 477 258 477 311 477 c 0,7,8
 361 477 361 477 393 456.5 c 128,-1,9
 425 436 425 436 441 400 c 1,10,11
 476 437 476 437 518 457 c 128,-1,12
 560 477 560 477 611 477 c 0,13,14
 683 477 683 477 719.5 436.5 c 128,-1,15
 756 396 756 396 756 324 c 2,16,-1
 756 0 l 1,17,-1
 668 0 l 1,18,-1
 668 308 l 2,19,20
 668 355 668 355 648 380 c 128,-1,21
 628 405 628 405 582 405 c 0,22,23
 514 405 514 405 455 344 c 1,24,25
 456 339 456 339 456 334 c 128,-1,26
 456 329 456 329 456 324 c 2,27,-1
 456 0 l 1,28,-1
 368 0 l 1,29,-1
 368 308 l 2,30,31
 368 355 368 355 348 380 c 128,-1,32
 328 405 328 405 282 405 c 0,33,34
 214 405 214 405 156 341 c 1,35,-1
 156 0 l 1,0,-1
EndSplineSet
Substitution2: "'smcp' Lowercase to Small Capitals lookup 3 subtable" Msmall
EndChar

StartChar: n
Encoding: 110 110 93
Width: 534
GlyphClass: 2
Flags: W
LayerCount: 2
Fore
SplineSet
156 0 m 1,0,-1
 68 0 l 1,1,-1
 68 470 l 1,2,-1
 137 470 l 1,3,-1
 150 405 l 1,4,5
 185 440 185 440 223.5 458.5 c 128,-1,6
 262 477 262 477 312 477 c 0,7,8
 384 477 384 477 425 436.5 c 128,-1,9
 466 396 466 396 466 324 c 2,10,-1
 466 0 l 1,11,-1
 378 0 l 1,12,-1
 378 311 l 2,13,14
 378 354 378 354 355.5 379.5 c 128,-1,15
 333 405 333 405 287 405 c 0,16,17
 217 405 217 405 156 342 c 1,18,-1
 156 0 l 1,0,-1
EndSplineSet
Substitution2: "'smcp' Lowercase to Small Capitals lookup 3 subtable" Nsmall
EndChar

StartChar: o
Encoding: 111 111 94
Width: 538
GlyphClass: 2
Flags: W
LayerCount: 2
Fore
SplineSet
499 240 m 0,0,1
 499 181 499 181 481 134.5 c 128,-1,2
 463 88 463 88 431.5 56 c 128,-1,3
 400 24 400 24 358 7.5 c 128,-1,4
 316 -9 316 -9 267 -9 c 256,5,6
 218 -9 218 -9 176.5 6.5 c 128,-1,7
 135 22 135 22 104.5 52.5 c 128,-1,8
 74 83 74 83 56.5 127.5 c 128,-1,9
 39 172 39 172 39 230 c 0,10,11
 39 289 39 289 57 335 c 128,-1,12
 75 381 75 381 106.5 412.5 c 128,-1,13
 138 444 138 444 180 460.5 c 128,-1,14
 222 477 222 477 271 477 c 256,15,16
 320 477 320 477 361.5 462 c 128,-1,17
 403 447 403 447 433.5 417 c 128,-1,18
 464 387 464 387 481.5 342.5 c 128,-1,19
 499 298 499 298 499 240 c 0,0,1
407 235 m 0,20,21
 407 282 407 282 395 315 c 128,-1,22
 383 348 383 348 363.5 369 c 128,-1,23
 344 390 344 390 319 399.5 c 128,-1,24
 294 409 294 409 268 409 c 256,25,26
 242 409 242 409 217 401 c 128,-1,27
 192 393 192 393 173 373 c 128,-1,28
 154 353 154 353 142.5 319.5 c 128,-1,29
 131 286 131 286 131 235 c 0,30,31
 131 188 131 188 143 154.5 c 128,-1,32
 155 121 155 121 174.5 100 c 128,-1,33
 194 79 194 79 219 69 c 128,-1,34
 244 59 244 59 270 59 c 256,35,36
 296 59 296 59 321 67.5 c 128,-1,37
 346 76 346 76 365 96.5 c 128,-1,38
 384 117 384 117 395.5 150.5 c 128,-1,39
 407 184 407 184 407 235 c 0,20,21
EndSplineSet
Substitution2: "'smcp' Lowercase to Small Capitals lookup 3 subtable" Osmall
EndChar

StartChar: p
Encoding: 112 112 95
Width: 531
GlyphClass: 2
Flags: W
LayerCount: 2
Fore
SplineSet
263 -9 m 0,0,1
 231 -9 231 -9 201.5 0 c 128,-1,2
 172 9 172 9 151 24 c 1,3,-1
 151 -230 l 1,4,-1
 64 -230 l 1,5,-1
 64 477 l 1,6,-1
 137 477 l 1,7,-1
 150 416 l 1,8,9
 177 441 177 441 211 459 c 128,-1,10
 245 477 245 477 291 477 c 0,11,12
 385 477 385 477 439 417 c 128,-1,13
 493 357 493 357 493 245 c 0,14,15
 493 179 493 179 473.5 131 c 128,-1,16
 454 83 454 83 421.5 52 c 128,-1,17
 389 21 389 21 347.5 6 c 128,-1,18
 306 -9 306 -9 263 -9 c 0,0,1
272 405 m 0,19,20
 230 405 230 405 199 384.5 c 128,-1,21
 168 364 168 364 151 343 c 1,22,-1
 151 92 l 1,23,24
 174 75 174 75 200 67 c 128,-1,25
 226 59 226 59 252 59 c 0,26,27
 279 59 279 59 306 68.5 c 128,-1,28
 333 78 333 78 354 100 c 128,-1,29
 375 122 375 122 388 157 c 128,-1,30
 401 192 401 192 401 243 c 0,31,32
 401 318 401 318 369.5 361.5 c 128,-1,33
 338 405 338 405 272 405 c 0,19,20
EndSplineSet
Substitution2: "'smcp' Lowercase to Small Capitals lookup 3 subtable" Psmall
EndChar

StartChar: q
Encoding: 113 113 96
Width: 536
GlyphClass: 2
Flags: W
LayerCount: 2
Fore
SplineSet
380 34 m 1,0,1
 354 11 354 11 322.5 1 c 128,-1,2
 291 -9 291 -9 251 -9 c 0,3,4
 201 -9 201 -9 161.5 8.5 c 128,-1,5
 122 26 122 26 95 57.5 c 128,-1,6
 68 89 68 89 53.5 134 c 128,-1,7
 39 179 39 179 39 235 c 0,8,9
 39 287 39 287 53 331.5 c 128,-1,10
 67 376 67 376 94.5 408 c 128,-1,11
 122 440 122 440 162.5 458.5 c 128,-1,12
 203 477 203 477 255 477 c 0,13,14
 270 477 270 477 288 473.5 c 128,-1,15
 306 470 306 470 323.5 463 c 128,-1,16
 341 456 341 456 357 445.5 c 128,-1,17
 373 435 373 435 385 422 c 1,18,-1
 395 470 l 1,19,-1
 468 470 l 1,20,-1
 468 -230 l 1,21,-1
 380 -230 l 1,22,-1
 380 34 l 1,0,1
380 350 m 1,23,24
 362 375 362 375 333.5 392.5 c 128,-1,25
 305 410 305 410 270 410 c 0,26,27
 241 410 241 410 215.5 400.5 c 128,-1,28
 190 391 190 391 170.5 370 c 128,-1,29
 151 349 151 349 139.5 316.5 c 128,-1,30
 128 284 128 284 128 238 c 0,31,32
 128 149 128 149 165.5 104 c 128,-1,33
 203 59 203 59 263 59 c 0,34,35
 300 59 300 59 330 73.5 c 128,-1,36
 360 88 360 88 380 111 c 1,37,-1
 380 350 l 1,23,24
EndSplineSet
Substitution2: "'smcp' Lowercase to Small Capitals lookup 3 subtable" Qsmall
EndChar

StartChar: r
Encoding: 114 114 97
Width: 372
GlyphClass: 2
Flags: W
LayerCount: 2
Fore
SplineSet
66 0 m 1,0,-1
 66 470 l 1,1,-1
 132 470 l 1,2,-1
 147 376 l 1,3,4
 164 421 164 421 203 449 c 128,-1,5
 242 477 242 477 293 477 c 0,6,7
 319 477 319 477 336 473 c 128,-1,8
 353 469 353 469 367 463 c 1,9,-1
 350 386 l 1,10,11
 338 392 338 392 323.5 396 c 128,-1,12
 309 400 309 400 289 400 c 0,13,14
 260 400 260 400 235.5 390 c 128,-1,15
 211 380 211 380 192.5 360 c 128,-1,16
 174 340 174 340 163.5 310.5 c 128,-1,17
 153 281 153 281 153 243 c 2,18,-1
 153 0 l 1,19,-1
 66 0 l 1,0,-1
EndSplineSet
Substitution2: "'smcp' Lowercase to Small Capitals lookup 3 subtable" Rsmall
EndChar

StartChar: s
Encoding: 115 115 98
Width: 1153
GlyphClass: 2
Flags: W
LayerCount: 2
Fore
SplineSet
315 500 m 0,0,1
 392 500 392 500 442.5 467 c 128,-1,2
 493 434 493 434 519 387 c 1,3,4
 533 434 533 434 567 467 c 128,-1,5
 601 500 601 500 661 500 c 0,6,7
 702 500 702 500 732 484 c 128,-1,8
 762 468 762 468 781.5 441 c 128,-1,9
 801 414 801 414 810 378.5 c 128,-1,10
 819 343 819 343 819 303 c 2,11,-1
 819 186 l 2,12,13
 819 121 819 121 845.5 89.5 c 128,-1,14
 872 58 872 58 922 58 c 0,15,16
 973 58 973 58 1003 100.5 c 128,-1,17
 1033 143 1033 143 1033 218 c 0,18,19
 1033 291 1033 291 1002.5 350.5 c 128,-1,20
 972 410 972 410 918 443 c 1,21,-1
 961 502 l 1,22,23
 1031 453 1031 453 1070.5 378.5 c 128,-1,24
 1110 304 1110 304 1110 218 c 0,25,26
 1110 167 1110 167 1096.5 125.5 c 128,-1,27
 1083 84 1083 84 1058 54.5 c 128,-1,28
 1033 25 1033 25 997.5 9 c 128,-1,29
 962 -7 962 -7 919 -7 c 0,30,31
 832 -7 832 -7 787.5 44.5 c 128,-1,32
 743 96 743 96 743 183 c 2,33,-1
 743 303 l 2,34,35
 743 331 743 331 738.5 355 c 128,-1,36
 734 379 734 379 723 396.5 c 128,-1,37
 712 414 712 414 694.5 424 c 128,-1,38
 677 434 677 434 652 434 c 0,39,40
 609 434 609 434 585 398.5 c 128,-1,41
 561 363 561 363 561 302 c 2,42,-1
 561 0 l 1,43,-1
 486 0 l 1,44,-1
 486 269 l 2,45,46
 486 309 486 309 473 340 c 128,-1,47
 460 371 460 371 436.5 392 c 128,-1,48
 413 413 413 413 380.5 423.5 c 128,-1,49
 348 434 348 434 310 434 c 0,50,51
 271 434 271 434 236 420 c 128,-1,52
 201 406 201 406 175 379 c 128,-1,53
 149 352 149 352 133 313.5 c 128,-1,54
 117 275 117 275 116 226 c 1,55,56
 133 255 133 255 166 274 c 128,-1,57
 199 293 199 293 239 293 c 0,58,59
 271 293 271 293 298 282 c 128,-1,60
 325 271 325 271 344.5 251.5 c 128,-1,61
 364 232 364 232 375 205 c 128,-1,62
 386 178 386 178 386 147 c 0,63,64
 386 112 386 112 374 84 c 128,-1,65
 362 56 362 56 341 35.5 c 128,-1,66
 320 15 320 15 290.5 4 c 128,-1,67
 261 -7 261 -7 226 -7 c 0,68,69
 185 -7 185 -7 152.5 9.5 c 128,-1,70
 120 26 120 26 97.5 55.5 c 128,-1,71
 75 85 75 85 63 126.5 c 128,-1,72
 51 168 51 168 51 219 c 0,73,74
 51 279 51 279 70 330 c 128,-1,75
 89 381 89 381 123.5 419 c 128,-1,76
 158 457 158 457 207 478.5 c 128,-1,77
 256 500 256 500 315 500 c 0,0,1
224 230 m 0,78,79
 205 230 205 230 189.5 223.5 c 128,-1,80
 174 217 174 217 161 206 c 128,-1,81
 148 195 148 195 139 181.5 c 128,-1,82
 130 168 130 168 124 153 c 1,83,84
 133 105 133 105 162 80.5 c 128,-1,85
 191 56 191 56 226 56 c 0,86,87
 265 56 265 56 288.5 81 c 128,-1,88
 312 106 312 106 312 144 c 256,89,90
 312 182 312 182 289 206 c 128,-1,91
 266 230 266 230 224 230 c 0,78,79
EndSplineSet
Substitution2: "'smcp' Lowercase to Small Capitals lookup 3 subtable" Ssmall
EndChar

StartChar: t
Encoding: 116 116 99
Width: 670
GlyphClass: 2
Flags: W
LayerCount: 2
Fore
SplineSet
149 495 m 1,0,-1
 149 66 l 1,1,-1
 667 66 l 1,2,-1
 667 0 l 1,3,-1
 73 0 l 1,4,-1
 73 495 l 1,5,-1
 149 495 l 1,0,-1
EndSplineSet
Substitution2: "'smcp' Lowercase to Small Capitals lookup 3 subtable" Tsmall
EndChar

StartChar: u
Encoding: 117 117 100
Width: 539
GlyphClass: 2
Flags: W
LayerCount: 2
Fore
SplineSet
383 470 m 1,0,-1
 471 470 l 1,1,-1
 471 0 l 1,2,-1
 402 0 l 1,3,-1
 390 59 l 1,4,-1
 386 59 l 1,5,6
 360 30 360 30 321.5 10.5 c 128,-1,7
 283 -9 283 -9 232 -9 c 0,8,9
 159 -9 159 -9 113.5 32.5 c 128,-1,10
 68 74 68 74 68 158 c 2,11,-1
 68 470 l 1,12,-1
 156 470 l 1,13,-1
 156 169 l 2,14,15
 156 139 156 139 163.5 118 c 128,-1,16
 171 97 171 97 183.5 84.5 c 128,-1,17
 196 72 196 72 213 66.5 c 128,-1,18
 230 61 230 61 250 61 c 0,19,20
 290 61 290 61 322 78 c 128,-1,21
 354 95 354 95 383 125 c 1,22,-1
 383 470 l 1,0,-1
EndSplineSet
Substitution2: "'smcp' Lowercase to Small Capitals lookup 3 subtable" Usmall
EndChar

StartChar: v
Encoding: 118 118 101
Width: 463
GlyphClass: 2
Flags: W
LayerCount: 2
Fore
SplineSet
357 470 m 1,0,-1
 451 470 l 1,1,-1
 276 0 l 1,2,-1
 190 0 l 1,3,-1
 13 470 l 1,4,-1
 108 470 l 1,5,-1
 214 147 l 1,6,-1
 232 73 l 1,7,-1
 236 73 l 1,8,-1
 253 146 l 1,9,-1
 357 470 l 1,0,-1
EndSplineSet
Substitution2: "'smcp' Lowercase to Small Capitals lookup 3 subtable" Vsmall
EndChar

StartChar: w
Encoding: 119 119 102
Width: 712
GlyphClass: 2
Flags: W
LayerCount: 2
Fore
SplineSet
11 470 m 1,0,-1
 105 470 l 1,1,-1
 185 174 l 1,2,-1
 203 69 l 1,3,-1
 207 69 l 1,4,-1
 229 174 l 1,5,-1
 310 470 l 1,6,-1
 405 470 l 1,7,-1
 488 174 l 1,8,-1
 509 69 l 1,9,-1
 513 69 l 1,10,-1
 535 174 l 1,11,-1
 613 470 l 1,12,-1
 703 470 l 1,13,-1
 560 0 l 1,14,-1
 460 0 l 1,15,-1
 380 288 l 1,16,-1
 357 404 l 1,17,-1
 333 288 l 1,18,-1
 251 0 l 1,19,-1
 156 0 l 1,20,-1
 11 470 l 1,0,-1
EndSplineSet
Substitution2: "'smcp' Lowercase to Small Capitals lookup 3 subtable" Wsmall
EndChar

StartChar: x
Encoding: 120 120 103
Width: 448
GlyphClass: 2
Flags: W
LayerCount: 2
Fore
SplineSet
274 238 m 1,0,-1
 439 0 l 1,1,-1
 339 0 l 1,2,-1
 258 118 l 1,3,-1
 221 179 l 1,4,-1
 187 119 l 1,5,-1
 109 0 l 1,6,-1
 11 0 l 1,7,-1
 174 238 l 1,8,-1
 19 470 l 1,9,-1
 118 470 l 1,10,-1
 192 355 l 1,11,-1
 228 295 l 1,12,-1
 263 355 l 1,13,-1
 332 470 l 1,14,-1
 428 470 l 1,15,-1
 274 238 l 1,0,-1
EndSplineSet
Substitution2: "'smcp' Lowercase to Small Capitals lookup 3 subtable" Xsmall
EndChar

StartChar: y
Encoding: 121 121 104
Width: 461
GlyphClass: 2
Flags: W
LayerCount: 2
Fore
SplineSet
9 470 m 1,0,-1
 103 470 l 1,1,-1
 203 201 l 1,2,-1
 237 89 l 1,3,-1
 239 89 l 1,4,-1
 273 201 l 1,5,-1
 364 470 l 1,6,-1
 454 470 l 1,7,-1
 273 -40 l 2,8,9
 243 -125 243 -125 197.5 -173 c 128,-1,10
 152 -221 152 -221 89 -243 c 1,11,-1
 51 -173 l 1,12,13
 98 -155 98 -155 134.5 -121 c 128,-1,14
 171 -87 171 -87 191 -27 c 2,15,-1
 200 0 l 1,16,-1
 9 470 l 1,0,-1
EndSplineSet
Substitution2: "'smcp' Lowercase to Small Capitals lookup 3 subtable" Ysmall
EndChar

StartChar: z
Encoding: 122 122 105
Width: 411
GlyphClass: 2
Flags: W
LayerCount: 2
Fore
SplineSet
382 419 m 1,0,-1
 133 66 l 1,1,-1
 387 66 l 1,2,-1
 387 0 l 1,3,-1
 25 0 l 1,4,-1
 25 54 l 1,5,-1
 274 404 l 1,6,-1
 42 404 l 1,7,-1
 42 470 l 1,8,-1
 382 470 l 1,9,-1
 382 419 l 1,0,-1
EndSplineSet
Substitution2: "'smcp' Lowercase to Small Capitals lookup 3 subtable" Zsmall
EndChar

StartChar: Euro.lat
Encoding: 65574 -1 106
Width: 541
GlyphClass: 2
Flags: W
LayerCount: 2
Fore
SplineSet
360 67 m 0,0,1
 402 67 402 67 433.5 75 c 128,-1,2
 465 83 465 83 497 98 c 1,3,-1
 518 24 l 1,4,5
 483 7 483 7 446 -1 c 128,-1,6
 409 -9 409 -9 350 -9 c 0,7,8
 299 -9 299 -9 254 5.5 c 128,-1,9
 209 20 209 20 173 49 c 128,-1,10
 137 78 137 78 112.5 121.5 c 128,-1,11
 88 165 88 165 78 223 c 1,12,-1
 5 223 l 1,13,-1
 5 274 l 1,14,-1
 71 274 l 1,15,16
 70 293 70 293 70 300.5 c 128,-1,17
 70 308 70 308 70 316 c 2,18,-1
 70 334 l 1,19,-1
 5 334 l 1,20,-1
 5 385 l 1,21,-1
 79 385 l 1,22,23
 96 503 96 503 167 571 c 128,-1,24
 238 639 238 639 355 639 c 0,25,26
 386 639 386 639 409.5 636.5 c 128,-1,27
 433 634 433 634 452 629 c 128,-1,28
 471 624 471 624 487.5 617.5 c 128,-1,29
 504 611 504 611 521 602 c 1,30,-1
 499 530 l 1,31,32
 461 547 461 547 432 555 c 128,-1,33
 403 563 403 563 367 563 c 0,34,35
 332 563 332 563 299 551.5 c 128,-1,36
 266 540 266 540 239.5 517.5 c 128,-1,37
 213 495 213 495 195.5 461.5 c 128,-1,38
 178 428 178 428 174 385 c 1,39,-1
 446 385 l 1,40,-1
 446 334 l 1,41,-1
 166 334 l 1,42,-1
 166 322 l 2,43,44
 166 312 166 312 166 303 c 128,-1,45
 166 294 166 294 167 274 c 1,46,-1
 446 274 l 1,47,-1
 446 223 l 1,48,-1
 175 223 l 1,49,50
 182 180 182 180 199.5 150.5 c 128,-1,51
 217 121 217 121 241.5 102.5 c 128,-1,52
 266 84 266 84 296.5 75.5 c 128,-1,53
 327 67 327 67 360 67 c 0,0,1
EndSplineSet
EndChar

StartChar: quotesinglbase
Encoding: 8218 8218 107
Width: 190
GlyphClass: 2
Flags: W
LayerCount: 2
Fore
SplineSet
77 -6 m 2,0,1
 51 -1 51 -1 38 17 c 128,-1,2
 25 35 25 35 25 58 c 0,3,4
 25 82 25 82 41.5 101 c 128,-1,5
 58 120 58 120 88 120 c 0,6,7
 100 120 100 120 112.5 116 c 128,-1,8
 125 112 125 112 135.5 101 c 128,-1,9
 146 90 146 90 153 71.5 c 128,-1,10
 160 53 160 53 160 25 c 0,11,12
 160 -29 160 -29 129 -74 c 128,-1,13
 98 -119 98 -119 50 -145 c 1,14,-1
 21 -105 l 1,15,16
 47 -91 47 -91 67.5 -67.5 c 128,-1,17
 88 -44 88 -44 95 -9 c 1,18,-1
 77 -6 l 2,0,1
EndSplineSet
EndChar

StartChar: florin
Encoding: 402 402 108
Width: 444
GlyphClass: 2
Flags: W
LayerCount: 2
Fore
SplineSet
200 55 m 2,0,1
 191 -9 191 -9 170.5 -51.5 c 128,-1,2
 150 -94 150 -94 122.5 -120.5 c 128,-1,3
 95 -147 95 -147 63 -160.5 c 128,-1,4
 31 -174 31 -174 -2 -180 c 1,5,-1
 -27 -114 l 1,6,7
 -2 -108 -2 -108 20 -97 c 128,-1,8
 42 -86 42 -86 60 -67.5 c 128,-1,9
 78 -49 78 -49 90.5 -21.5 c 128,-1,10
 103 6 103 6 109 46 c 2,11,-1
 161 405 l 1,12,-1
 92 405 l 1,13,-1
 92 470 l 1,14,-1
 170 470 l 1,15,-1
 181 549 l 2,16,17
 187 590 187 590 199.5 626.5 c 128,-1,18
 212 663 212 663 234.5 690.5 c 128,-1,19
 257 718 257 718 291 734 c 128,-1,20
 325 750 325 750 373 750 c 0,21,22
 423 750 423 750 469 728 c 1,23,-1
 446 665 l 1,24,25
 431 672 431 672 413 675 c 128,-1,26
 395 678 395 678 378 678 c 0,27,28
 328 678 328 678 302.5 644 c 128,-1,29
 277 610 277 610 267 539 c 2,30,-1
 258 470 l 1,31,-1
 392 470 l 1,32,-1
 392 404 l 1,33,-1
 249 404 l 1,34,-1
 200 55 l 2,0,1
EndSplineSet
EndChar

StartChar: quotedblbase
Encoding: 8222 8222 109
Width: 385
GlyphClass: 2
Flags: W
LayerCount: 2
Fore
SplineSet
77 -6 m 2,0,1
 51 -1 51 -1 38 17 c 128,-1,2
 25 35 25 35 25 58 c 0,3,4
 25 82 25 82 41.5 101 c 128,-1,5
 58 120 58 120 88 120 c 0,6,7
 100 120 100 120 112.5 116 c 128,-1,8
 125 112 125 112 135.5 101 c 128,-1,9
 146 90 146 90 153 71.5 c 128,-1,10
 160 53 160 53 160 25 c 0,11,12
 160 -29 160 -29 129 -74 c 128,-1,13
 98 -119 98 -119 50 -145 c 1,14,-1
 21 -105 l 1,15,16
 47 -91 47 -91 67.5 -67.5 c 128,-1,17
 88 -44 88 -44 95 -9 c 1,18,-1
 77 -6 l 2,0,1
272 -6 m 2,19,20
 246 -1 246 -1 233 17 c 128,-1,21
 220 35 220 35 220 58 c 0,22,23
 220 82 220 82 236.5 101 c 128,-1,24
 253 120 253 120 283 120 c 0,25,26
 295 120 295 120 307.5 116 c 128,-1,27
 320 112 320 112 330.5 101 c 128,-1,28
 341 90 341 90 348 71.5 c 128,-1,29
 355 53 355 53 355 25 c 0,30,31
 355 -29 355 -29 324 -74 c 128,-1,32
 293 -119 293 -119 245 -145 c 1,33,-1
 216 -105 l 1,34,35
 242 -91 242 -91 262.5 -67.5 c 128,-1,36
 283 -44 283 -44 290 -9 c 1,37,-1
 272 -6 l 2,19,20
EndSplineSet
EndChar

StartChar: dagger
Encoding: 8224 8224 110
Width: 351
GlyphClass: 2
Flags: W
LayerCount: 2
Fore
SplineSet
341 470 m 1,0,-1
 341 396 l 1,1,-1
 220 396 l 1,2,-1
 220 -40 l 1,3,-1
 132 -40 l 1,4,-1
 132 396 l 1,5,-1
 10 396 l 1,6,-1
 10 470 l 1,7,-1
 132 470 l 1,8,-1
 132 630 l 1,9,-1
 220 630 l 1,10,-1
 220 470 l 1,11,-1
 341 470 l 1,0,-1
EndSplineSet
EndChar

StartChar: daggerdbl
Encoding: 8225 8225 111
Width: 351
GlyphClass: 2
Flags: W
LayerCount: 2
Fore
SplineSet
341 194 m 1,0,-1
 341 120 l 1,1,-1
 220 120 l 1,2,-1
 220 -40 l 1,3,-1
 132 -40 l 1,4,-1
 132 120 l 1,5,-1
 10 120 l 1,6,-1
 10 194 l 1,7,-1
 132 194 l 1,8,-1
 132 396 l 1,9,-1
 10 396 l 1,10,-1
 10 470 l 1,11,-1
 132 470 l 1,12,-1
 132 630 l 1,13,-1
 220 630 l 1,14,-1
 220 470 l 1,15,-1
 341 470 l 1,16,-1
 341 396 l 1,17,-1
 220 396 l 1,18,-1
 220 194 l 1,19,-1
 341 194 l 1,0,-1
EndSplineSet
EndChar

StartChar: circumflex
Encoding: 710 710 112
Width: 355
GlyphClass: 2
Flags: W
LayerCount: 2
Fore
SplineSet
332 555 m 1,0,-1
 256 555 l 1,1,-1
 182 672 l 1,2,-1
 104 555 l 1,3,-1
 27 555 l 1,4,-1
 152 720 l 1,5,-1
 211 720 l 1,6,-1
 332 555 l 1,0,-1
EndSplineSet
EndChar

StartChar: perthousand.lat
Encoding: 65575 -1 113
Width: 1229
GlyphClass: 2
Flags: W
LayerCount: 2
Fore
SplineSet
165 0 m 1,0,-1
 602 750 l 1,1,-1
 667 750 l 1,2,-1
 230 0 l 1,3,-1
 165 0 l 1,0,-1
789 178 m 256,4,5
 789 140 789 140 778.5 106 c 128,-1,6
 768 72 768 72 747 46.5 c 128,-1,7
 726 21 726 21 695 6 c 128,-1,8
 664 -9 664 -9 624 -9 c 0,9,10
 585 -9 585 -9 554.5 6 c 128,-1,11
 524 21 524 21 503.5 46.5 c 128,-1,12
 483 72 483 72 472.5 106 c 128,-1,13
 462 140 462 140 462 178 c 256,14,15
 462 216 462 216 473 249.5 c 128,-1,16
 484 283 484 283 505.5 308.5 c 128,-1,17
 527 334 527 334 557.5 349 c 128,-1,18
 588 364 588 364 627 364 c 256,19,20
 666 364 666 364 696 349 c 128,-1,21
 726 334 726 334 747 308.5 c 128,-1,22
 768 283 768 283 778.5 249.5 c 128,-1,23
 789 216 789 216 789 178 c 256,4,5
717 178 m 0,24,25
 717 204 717 204 712.5 228 c 128,-1,26
 708 252 708 252 697.5 271 c 128,-1,27
 687 290 687 290 669.5 301 c 128,-1,28
 652 312 652 312 627 312 c 0,29,30
 603 312 603 312 585 301 c 128,-1,31
 567 290 567 290 556 272 c 128,-1,32
 545 254 545 254 539.5 229.5 c 128,-1,33
 534 205 534 205 534 178 c 256,34,35
 534 151 534 151 539 126.5 c 128,-1,36
 544 102 544 102 554.5 83.5 c 128,-1,37
 565 65 565 65 582.5 54 c 128,-1,38
 600 43 600 43 624 43 c 0,39,40
 672 43 672 43 694.5 80.5 c 128,-1,41
 717 118 717 118 717 178 c 0,24,25
357 564 m 256,42,43
 357 526 357 526 346.5 492 c 128,-1,44
 336 458 336 458 315 432.5 c 128,-1,45
 294 407 294 407 263 392 c 128,-1,46
 232 377 232 377 192 377 c 0,47,48
 153 377 153 377 122.5 392 c 128,-1,49
 92 407 92 407 71.5 432.5 c 128,-1,50
 51 458 51 458 40.5 492 c 128,-1,51
 30 526 30 526 30 564 c 256,52,53
 30 602 30 602 41 635.5 c 128,-1,54
 52 669 52 669 73.5 694.5 c 128,-1,55
 95 720 95 720 125.5 735 c 128,-1,56
 156 750 156 750 195 750 c 256,57,58
 234 750 234 750 264 735 c 128,-1,59
 294 720 294 720 315 694.5 c 128,-1,60
 336 669 336 669 346.5 635.5 c 128,-1,61
 357 602 357 602 357 564 c 256,42,43
285 564 m 0,62,63
 285 590 285 590 280.5 614 c 128,-1,64
 276 638 276 638 265.5 657 c 128,-1,65
 255 676 255 676 237.5 687 c 128,-1,66
 220 698 220 698 195 698 c 0,67,68
 171 698 171 698 153 687 c 128,-1,69
 135 676 135 676 124 658 c 128,-1,70
 113 640 113 640 107.5 615.5 c 128,-1,71
 102 591 102 591 102 564 c 256,72,73
 102 537 102 537 107 512.5 c 128,-1,74
 112 488 112 488 122.5 469.5 c 128,-1,75
 133 451 133 451 150.5 440 c 128,-1,76
 168 429 168 429 192 429 c 0,77,78
 240 429 240 429 262.5 466.5 c 128,-1,79
 285 504 285 504 285 564 c 0,62,63
1199 178 m 256,80,81
 1199 140 1199 140 1188.5 106 c 128,-1,82
 1178 72 1178 72 1157 46.5 c 128,-1,83
 1136 21 1136 21 1105 6 c 128,-1,84
 1074 -9 1074 -9 1034 -9 c 0,85,86
 995 -9 995 -9 964.5 6 c 128,-1,87
 934 21 934 21 913.5 46.5 c 128,-1,88
 893 72 893 72 882.5 106 c 128,-1,89
 872 140 872 140 872 178 c 256,90,91
 872 216 872 216 883 249.5 c 128,-1,92
 894 283 894 283 915.5 308.5 c 128,-1,93
 937 334 937 334 967.5 349 c 128,-1,94
 998 364 998 364 1037 364 c 256,95,96
 1076 364 1076 364 1106 349 c 128,-1,97
 1136 334 1136 334 1157 308.5 c 128,-1,98
 1178 283 1178 283 1188.5 249.5 c 128,-1,99
 1199 216 1199 216 1199 178 c 256,80,81
1127 178 m 0,100,101
 1127 204 1127 204 1122.5 228 c 128,-1,102
 1118 252 1118 252 1107.5 271 c 128,-1,103
 1097 290 1097 290 1079.5 301 c 128,-1,104
 1062 312 1062 312 1037 312 c 0,105,106
 1013 312 1013 312 995 301 c 128,-1,107
 977 290 977 290 966 272 c 128,-1,108
 955 254 955 254 949.5 229.5 c 128,-1,109
 944 205 944 205 944 178 c 256,110,111
 944 151 944 151 949 126.5 c 128,-1,112
 954 102 954 102 964.5 83.5 c 128,-1,113
 975 65 975 65 992.5 54 c 128,-1,114
 1010 43 1010 43 1034 43 c 0,115,116
 1082 43 1082 43 1104.5 80.5 c 128,-1,117
 1127 118 1127 118 1127 178 c 0,100,101
EndSplineSet
EndChar

StartChar: Scaron
Encoding: 352 352 114
Width: 917
GlyphClass: 2
Flags: W
LayerCount: 2
Fore
SplineSet
919 496 m 1,0,-1
 919 432 l 1,1,-1
 812 432 l 1,2,-1
 812 0 l 1,3,-1
 737 0 l 1,4,-1
 737 432 l 1,5,-1
 567 432 l 1,6,-1
 567 0 l 1,7,-1
 494 0 l 1,8,-1
 494 249 l 1,9,10
 484 339 484 339 433 387 c 128,-1,11
 382 435 382 435 303 435 c 0,12,13
 223 435 223 435 172 382 c 128,-1,14
 121 329 121 329 118 229 c 1,15,16
 136 258 136 258 168 275.5 c 128,-1,17
 200 293 200 293 239 293 c 0,18,19
 271 293 271 293 298 282 c 128,-1,20
 325 271 325 271 344.5 251.5 c 128,-1,21
 364 232 364 232 375 205 c 128,-1,22
 386 178 386 178 386 147 c 0,23,24
 386 112 386 112 374 84 c 128,-1,25
 362 56 362 56 341 35.5 c 128,-1,26
 320 15 320 15 290.5 4 c 128,-1,27
 261 -7 261 -7 226 -7 c 0,28,29
 187 -7 187 -7 154.5 9 c 128,-1,30
 122 25 122 25 99 54.5 c 128,-1,31
 76 84 76 84 63.5 125.5 c 128,-1,32
 51 167 51 167 51 218 c 0,33,34
 51 285 51 285 71 337.5 c 128,-1,35
 91 390 91 390 125.5 426 c 128,-1,36
 160 462 160 462 206.5 481 c 128,-1,37
 253 500 253 500 306 500 c 0,38,39
 343 500 343 500 374 490.5 c 128,-1,40
 405 481 405 481 429 466 c 128,-1,41
 453 451 453 451 470.5 432 c 128,-1,42
 488 413 488 413 497 393 c 1,43,-1
 497 496 l 1,44,-1
 919 496 l 1,0,-1
224 230 m 0,45,46
 205 230 205 230 189.5 223.5 c 128,-1,47
 174 217 174 217 161 206 c 128,-1,48
 148 195 148 195 139 181.5 c 128,-1,49
 130 168 130 168 124 153 c 1,50,51
 133 105 133 105 162 80.5 c 128,-1,52
 191 56 191 56 226 56 c 0,53,54
 265 56 265 56 288.5 81 c 128,-1,55
 312 106 312 106 312 144 c 256,56,57
 312 182 312 182 289 206 c 128,-1,58
 266 230 266 230 224 230 c 0,45,46
EndSplineSet
EndChar

StartChar: guilsinglleft
Encoding: 8249 8249 115
Width: 314
GlyphClass: 2
Flags: W
LayerCount: 2
Fore
SplineSet
194 76 m 1,0,-1
 46 236 l 1,1,-1
 194 397 l 1,2,-1
 270 397 l 1,3,-1
 134 236 l 1,4,-1
 270 76 l 1,5,-1
 194 76 l 1,0,-1
EndSplineSet
EndChar

StartChar: OE
Encoding: 338 338 116
Width: 841
GlyphClass: 2
Flags: W
LayerCount: 2
Fore
SplineSet
336 -9 m 0,0,1
 275 -9 275 -9 222 10.5 c 128,-1,2
 169 30 169 30 130 70 c 128,-1,3
 91 110 91 110 68.5 171.5 c 128,-1,4
 46 233 46 233 46 317 c 0,5,6
 46 396 46 396 68.5 456 c 128,-1,7
 91 516 91 516 130 556.5 c 128,-1,8
 169 597 169 597 222 618 c 128,-1,9
 275 639 275 639 336 639 c 0,10,11
 357 639 357 639 382 637 c 128,-1,12
 407 635 407 635 426 630 c 1,13,-1
 794 630 l 1,14,-1
 794 554 l 1,15,-1
 516 554 l 1,16,-1
 516 365 l 1,17,-1
 768 365 l 1,18,-1
 768 290 l 1,19,-1
 516 290 l 1,20,-1
 516 76 l 1,21,-1
 797 76 l 1,22,-1
 797 0 l 1,23,-1
 422 0 l 1,24,25
 402 -5 402 -5 378.5 -7 c 128,-1,26
 355 -9 355 -9 336 -9 c 0,0,1
341 565 m 0,27,28
 251 565 251 565 198.5 505.5 c 128,-1,29
 146 446 146 446 146 319 c 0,30,31
 146 191 146 191 197.5 128 c 128,-1,32
 249 65 249 65 340 65 c 0,33,34
 361 65 361 65 383.5 70 c 128,-1,35
 406 75 406 75 424 84 c 1,36,-1
 424 550 l 1,37,38
 386 565 386 565 341 565 c 0,27,28
EndSplineSet
EndChar

StartChar: Zcaron
Encoding: 381 381 117
Width: 989
GlyphClass: 2
Flags: W
LayerCount: 2
Fore
SplineSet
741 820 m 0,0,1
 774 820 774 820 803 810.5 c 128,-1,2
 832 801 832 801 854 783 c 128,-1,3
 876 765 876 765 888.5 738 c 128,-1,4
 901 711 901 711 901 677 c 0,5,6
 901 645 901 645 891.5 618 c 128,-1,7
 882 591 882 591 869 571 c 1,8,-1
 986 571 l 1,9,-1
 986 518 l 1,10,-1
 815 518 l 1,11,-1
 794 563 l 1,12,13
 808 581 808 581 821 610 c 128,-1,14
 834 639 834 639 834 675 c 0,15,16
 834 723 834 723 806.5 747.5 c 128,-1,17
 779 772 779 772 734 772 c 0,18,19
 719 772 719 772 707 769.5 c 128,-1,20
 695 767 695 767 685 762 c 1,21,22
 717 751 717 751 740.5 724.5 c 128,-1,23
 764 698 764 698 764 663 c 0,24,25
 764 639 764 639 755 620 c 128,-1,26
 746 601 746 601 731 587.5 c 128,-1,27
 716 574 716 574 696 566.5 c 128,-1,28
 676 559 676 559 654 559 c 0,29,30
 610 559 610 559 580 586.5 c 128,-1,31
 550 614 550 614 550 659 c 0,32,33
 550 698 550 698 574 725 c 1,34,35
 536 717 536 717 511.5 688.5 c 128,-1,36
 487 660 487 660 487 614 c 256,37,38
 487 568 487 568 512 532.5 c 128,-1,39
 537 497 537 497 574 467 c 1,40,-1
 580 463 l 2,41,42
 598 448 598 448 615 428 c 128,-1,43
 632 408 632 408 645 382 c 128,-1,44
 658 356 658 356 666 322.5 c 128,-1,45
 674 289 674 289 674 249 c 0,46,47
 674 192 674 192 659 145.5 c 128,-1,48
 644 99 644 99 612 67 c 128,-1,49
 580 35 580 35 530 17.5 c 128,-1,50
 480 0 480 0 411 0 c 2,51,-1
 73 0 l 1,52,-1
 73 495 l 1,53,-1
 146 495 l 1,54,-1
 146 63 l 1,55,-1
 320 63 l 1,56,-1
 320 338 l 2,57,58
 320 409 320 409 359.5 450.5 c 128,-1,59
 399 492 399 492 464 496 c 1,60,61
 443 519 443 519 429.5 552 c 128,-1,62
 416 585 416 585 416 615 c 0,63,64
 416 657 416 657 433 688 c 128,-1,65
 450 719 450 719 477 739.5 c 128,-1,66
 504 760 504 760 538.5 769.5 c 128,-1,67
 573 779 573 779 609 779 c 0,68,69
 619 779 619 779 624 778 c 0,70,71
 645 795 645 795 675 807.5 c 128,-1,72
 705 820 705 820 741 820 c 0,0,1
393 63 m 1,73,-1
 419 63 l 2,74,75
 467 63 467 63 501 76 c 128,-1,76
 535 89 535 89 556.5 113 c 128,-1,77
 578 137 578 137 588 171 c 128,-1,78
 598 205 598 205 598 247 c 0,79,80
 598 294 598 294 587.5 329 c 128,-1,81
 577 364 577 364 560 387.5 c 128,-1,82
 543 411 543 411 521 422.5 c 128,-1,83
 499 434 499 434 475 434 c 0,84,85
 440 434 440 434 416.5 411 c 128,-1,86
 393 388 393 388 393 333 c 2,87,-1
 393 63 l 1,73,-1
702 664 m 0,88,89
 702 693 702 693 680.5 710 c 128,-1,90
 659 727 659 727 633 728 c 1,91,92
 622 717 622 717 615 701.5 c 128,-1,93
 608 686 608 686 608 666 c 0,94,95
 608 641 608 641 622 627 c 128,-1,96
 636 613 636 613 656 613 c 0,97,98
 677 613 677 613 689.5 627 c 128,-1,99
 702 641 702 641 702 664 c 0,88,89
EndSplineSet
EndChar

StartChar: quotedblleft.lat
Encoding: 65576 -1 118
Width: 399
GlyphClass: 2
Flags: W
LayerCount: 2
Fore
SplineSet
113 610 m 2,0,1
 139 605 139 605 152 587 c 128,-1,2
 165 569 165 569 165 546 c 0,3,4
 165 522 165 522 149.5 503 c 128,-1,5
 134 484 134 484 104 484 c 0,6,7
 92 484 92 484 79 488.5 c 128,-1,8
 66 493 66 493 55 504 c 128,-1,9
 44 515 44 515 37 534 c 128,-1,10
 30 553 30 553 30 582 c 0,11,12
 30 636 30 636 61 679.5 c 128,-1,13
 92 723 92 723 140 749 c 1,14,-1
 169 709 l 1,15,16
 143 695 143 695 122.5 671.5 c 128,-1,17
 102 648 102 648 95 613 c 1,18,-1
 113 610 l 2,0,1
308 610 m 2,19,20
 334 605 334 605 347 587 c 128,-1,21
 360 569 360 569 360 546 c 0,22,23
 360 522 360 522 344.5 503 c 128,-1,24
 329 484 329 484 299 484 c 0,25,26
 287 484 287 484 274 488.5 c 128,-1,27
 261 493 261 493 250 504 c 128,-1,28
 239 515 239 515 232 534 c 128,-1,29
 225 553 225 553 225 582 c 0,30,31
 225 636 225 636 256 679.5 c 128,-1,32
 287 723 287 723 335 749 c 1,33,-1
 364 709 l 1,34,35
 338 695 338 695 317.5 671.5 c 128,-1,36
 297 648 297 648 290 613 c 1,37,-1
 308 610 l 2,19,20
EndSplineSet
EndChar

StartChar: quotedblright.lat
Encoding: 65577 -1 119
Width: 399
GlyphClass: 2
Flags: W
LayerCount: 2
Fore
SplineSet
91 623 m 2,0,1
 65 628 65 628 52 646 c 128,-1,2
 39 664 39 664 39 687 c 0,3,4
 39 711 39 711 55.5 730 c 128,-1,5
 72 749 72 749 102 749 c 0,6,7
 114 749 114 749 126.5 745 c 128,-1,8
 139 741 139 741 149.5 730 c 128,-1,9
 160 719 160 719 167 700.5 c 128,-1,10
 174 682 174 682 174 654 c 0,11,12
 174 600 174 600 143 555 c 128,-1,13
 112 510 112 510 64 484 c 1,14,-1
 35 524 l 1,15,16
 61 538 61 538 81.5 561.5 c 128,-1,17
 102 585 102 585 109 620 c 1,18,-1
 91 623 l 2,0,1
286 623 m 2,19,20
 260 628 260 628 247 646 c 128,-1,21
 234 664 234 664 234 687 c 0,22,23
 234 711 234 711 250.5 730 c 128,-1,24
 267 749 267 749 297 749 c 0,25,26
 309 749 309 749 321.5 745 c 128,-1,27
 334 741 334 741 344.5 730 c 128,-1,28
 355 719 355 719 362 700.5 c 128,-1,29
 369 682 369 682 369 654 c 0,30,31
 369 600 369 600 338 555 c 128,-1,32
 307 510 307 510 259 484 c 1,33,-1
 230 524 l 1,34,35
 256 538 256 538 276.5 561.5 c 128,-1,36
 297 585 297 585 304 620 c 1,37,-1
 286 623 l 2,19,20
EndSplineSet
EndChar

StartChar: bullet.lat
Encoding: 65578 -1 120
Width: 369
GlyphClass: 2
Flags: W
LayerCount: 2
Fore
SplineSet
60 266 m 0,0,1
 60 291 60 291 70 314 c 128,-1,2
 80 337 80 337 97 354 c 128,-1,3
 114 371 114 371 136.5 381 c 128,-1,4
 159 391 159 391 185 391 c 0,5,6
 210 391 210 391 233 381 c 128,-1,7
 256 371 256 371 273 354 c 128,-1,8
 290 337 290 337 300 314 c 128,-1,9
 310 291 310 291 310 266 c 0,10,11
 310 240 310 240 300 217.5 c 128,-1,12
 290 195 290 195 273 178 c 128,-1,13
 256 161 256 161 233 151 c 128,-1,14
 210 141 210 141 185 141 c 0,15,16
 159 141 159 141 136.5 151 c 128,-1,17
 114 161 114 161 97 178 c 128,-1,18
 80 195 80 195 70 217.5 c 128,-1,19
 60 240 60 240 60 266 c 0,0,1
EndSplineSet
EndChar

StartChar: tilde
Encoding: 732 732 121
Width: 399
GlyphClass: 2
Flags: W
LayerCount: 2
Fore
SplineSet
34 596 m 1,0,1
 34 644 34 644 51.5 675.5 c 128,-1,2
 69 707 69 707 114 707 c 0,3,4
 135 707 135 707 151.5 699.5 c 128,-1,5
 168 692 168 692 183 683.5 c 128,-1,6
 198 675 198 675 212 667.5 c 128,-1,7
 226 660 226 660 242 660 c 0,8,9
 275 660 275 660 275 710 c 1,10,-1
 323 710 l 1,11,12
 323 659 323 659 306 629.5 c 128,-1,13
 289 600 289 600 247 600 c 0,14,15
 224 600 224 600 206 607 c 128,-1,16
 188 614 188 614 172.5 622.5 c 128,-1,17
 157 631 157 631 144 638 c 128,-1,18
 131 645 131 645 119 645 c 0,19,20
 83 645 83 645 83 596 c 1,21,-1
 34 596 l 1,0,1
EndSplineSet
EndChar

StartChar: trademark
Encoding: 8482 8482 122
Width: 722
GlyphClass: 2
Flags: W
LayerCount: 2
Fore
SplineSet
310 630 m 1,0,-1
 310 587 l 1,1,-1
 200 587 l 1,2,-1
 200 274 l 1,3,-1
 148 274 l 1,4,-1
 148 587 l 1,5,-1
 40 587 l 1,6,-1
 40 630 l 1,7,-1
 310 630 l 1,0,-1
361 630 m 1,8,-1
 418 630 l 1,9,-1
 493 404 l 2,10,11
 498 387 498 387 503 368.5 c 128,-1,12
 508 350 508 350 513 333 c 1,13,-1
 515 333 l 1,14,15
 519 347 519 347 524.5 366 c 128,-1,16
 530 385 530 385 536 404 c 2,17,-1
 609 630 l 1,18,-1
 666 630 l 1,19,-1
 697 274 l 1,20,-1
 646 274 l 1,21,-1
 632 464 l 2,22,23
 630 488 630 488 629.5 510 c 128,-1,24
 629 532 629 532 628 563 c 1,25,-1
 626 563 l 1,26,27
 618 532 618 532 610.5 506 c 128,-1,28
 603 480 603 480 598 464 c 2,29,-1
 535 274 l 1,30,-1
 492 274 l 1,31,-1
 429 465 l 2,32,33
 421 490 421 490 415 512 c 128,-1,34
 409 534 409 534 401 563 c 1,35,-1
 399 563 l 1,36,37
 398 534 398 534 397 508 c 128,-1,38
 396 482 396 482 394 464 c 2,39,-1
 381 274 l 1,40,-1
 331 274 l 1,41,-1
 361 630 l 1,8,-1
EndSplineSet
EndChar

StartChar: scaron
Encoding: 353 353 123
Width: 407
GlyphClass: 2
Flags: W
LayerCount: 2
Fore
SplineSet
332 382 m 1,0,1
 299 398 299 398 272 404 c 128,-1,2
 245 410 245 410 218 410 c 0,3,4
 170 410 170 410 147 392.5 c 128,-1,5
 124 375 124 375 124 346 c 0,6,7
 124 325 124 325 140 309.5 c 128,-1,8
 156 294 156 294 207 279 c 2,9,-1
 237 270 l 2,10,11
 304 250 304 250 338.5 218.5 c 128,-1,12
 373 187 373 187 373 133 c 0,13,14
 373 69 373 69 325.5 30 c 128,-1,15
 278 -9 278 -9 193 -9 c 0,16,17
 148 -9 148 -9 106.5 -1 c 128,-1,18
 65 7 65 7 35 21 c 1,19,-1
 56 90 l 1,20,21
 85 76 85 76 119 67.5 c 128,-1,22
 153 59 153 59 188 59 c 0,23,24
 233 59 233 59 259.5 75 c 128,-1,25
 286 91 286 91 286 128 c 0,26,27
 286 160 286 160 263 173.5 c 128,-1,28
 240 187 240 187 197 200 c 2,29,-1
 166 210 l 2,30,31
 101 231 101 231 69.5 262.5 c 128,-1,32
 38 294 38 294 38 344 c 0,33,34
 38 374 38 374 51 399 c 128,-1,35
 64 424 64 424 86.5 441 c 128,-1,36
 109 458 109 458 140 467.5 c 128,-1,37
 171 477 171 477 208 477 c 0,38,39
 243 477 243 477 280.5 470.5 c 128,-1,40
 318 464 318 464 352 449 c 1,41,-1
 332 382 l 1,0,1
62 690 m 1,42,-1
 138 690 l 1,43,-1
 208 606 l 1,44,-1
 278 690 l 1,45,-1
 358 690 l 1,46,-1
 243 556 l 1,47,-1
 174 556 l 1,48,-1
 62 690 l 1,42,-1
EndSplineSet
EndChar

StartChar: guilsinglright
Encoding: 8250 8250 124
Width: 309
GlyphClass: 2
Flags: W
LayerCount: 2
Fore
SplineSet
46 76 m 1,0,-1
 182 236 l 1,1,-1
 46 397 l 1,2,-1
 122 397 l 1,3,-1
 270 236 l 1,4,-1
 122 76 l 1,5,-1
 46 76 l 1,0,-1
EndSplineSet
EndChar

StartChar: oe
Encoding: 339 339 125
Width: 2251
GlyphClass: 2
Flags: W
LayerCount: 2
Fore
SplineSet
404 733 m 0,0,1
 488 733 488 733 554.5 706 c 128,-1,2
 621 679 621 679 667.5 630.5 c 128,-1,3
 714 582 714 582 738.5 514 c 128,-1,4
 763 446 763 446 763 364 c 2,5,-1
 763 0 l 1,6,-1
 688 0 l 1,7,-1
 688 353 l 2,8,9
 688 505 688 505 614.5 585.5 c 128,-1,10
 541 666 541 666 401 666 c 0,11,12
 341 666 341 666 289.5 645 c 128,-1,13
 238 624 238 624 200 584.5 c 128,-1,14
 162 545 162 545 140 487 c 128,-1,15
 118 429 118 429 118 354 c 0,16,17
 118 287 118 287 138.5 231 c 128,-1,18
 159 175 159 175 196 135 c 128,-1,19
 233 95 233 95 282.5 72.5 c 128,-1,20
 332 50 332 50 391 50 c 2,21,-1
 407 50 l 1,22,23
 386 54 386 54 364.5 65 c 128,-1,24
 343 76 343 76 326.5 93.5 c 128,-1,25
 310 111 310 111 299.5 135 c 128,-1,26
 289 159 289 159 289 188 c 0,27,28
 289 222 289 222 301.5 249.5 c 128,-1,29
 314 277 314 277 335.5 297 c 128,-1,30
 357 317 357 317 386.5 328 c 128,-1,31
 416 339 416 339 451 339 c 0,32,33
 484 339 484 339 513.5 328 c 128,-1,34
 543 317 543 317 565.5 297 c 128,-1,35
 588 277 588 277 601 248 c 128,-1,36
 614 219 614 219 614 183 c 0,37,38
 614 138 614 138 594.5 103 c 128,-1,39
 575 68 575 68 542.5 44 c 128,-1,40
 510 20 510 20 467.5 7.5 c 128,-1,41
 425 -5 425 -5 378 -5 c 0,42,43
 307 -5 307 -5 245.5 20 c 128,-1,44
 184 45 184 45 138.5 91.5 c 128,-1,45
 93 138 93 138 66.5 204.5 c 128,-1,46
 40 271 40 271 40 354 c 0,47,48
 40 439 40 439 68 509 c 128,-1,49
 96 579 96 579 145 629 c 128,-1,50
 194 679 194 679 260.5 706 c 128,-1,51
 327 733 327 733 404 733 c 0,0,1
2178 495 m 1,52,-1
 2178 432 l 1,53,-1
 2073 432 l 1,54,-1
 2073 0 l 1,55,-1
 1996 0 l 1,56,-1
 1996 432 l 1,57,-1
 1821 432 l 1,58,-1
 1821 0 l 1,59,-1
 1746 0 l 1,60,-1
 1746 495 l 1,61,-1
 2178 495 l 1,52,-1
359 184 m 0,62,63
 359 160 359 160 369.5 140.5 c 128,-1,64
 380 121 380 121 398 107 c 128,-1,65
 416 93 416 93 438.5 85.5 c 128,-1,66
 461 78 461 78 485 78 c 1,67,68
 511 91 511 91 526 116.5 c 128,-1,69
 541 142 541 142 541 178 c 0,70,71
 541 221 541 221 514.5 247 c 128,-1,72
 488 273 488 273 449 273 c 256,73,74
 410 273 410 273 384.5 249 c 128,-1,75
 359 225 359 225 359 184 c 0,62,63
EndSplineSet
EndChar

StartChar: zcaron
Encoding: 382 382 126
Width: 2073
GlyphClass: 2
Flags: W
LayerCount: 2
Fore
SplineSet
954 63 m 1,0,-1
 954 495 l 1,1,-1
 1424 495 l 1,2,-1
 1424 432 l 1,3,-1
 1274 432 l 1,4,-1
 1274 266 l 1,5,6
 1289 288 1289 288 1319 303.5 c 128,-1,7
 1349 319 1349 319 1382 319 c 0,8,9
 1460 319 1460 319 1505 267.5 c 128,-1,10
 1550 216 1550 216 1550 127 c 0,11,12
 1550 43 1550 43 1508.5 -31.5 c 128,-1,13
 1467 -106 1467 -106 1378.5 -161.5 c 128,-1,14
 1290 -217 1290 -217 1153 -249 c 128,-1,15
 1016 -281 1016 -281 826 -281 c 0,16,17
 657 -281 657 -281 514 -250.5 c 128,-1,18
 371 -220 371 -220 266.5 -157.5 c 128,-1,19
 162 -95 162 -95 103 0 c 128,-1,20
 44 95 44 95 44 225 c 0,21,22
 44 295 44 295 64.5 362 c 128,-1,23
 85 429 85 429 128.5 488 c 128,-1,24
 172 547 172 547 239.5 596.5 c 128,-1,25
 307 646 307 646 402 682 c 128,-1,26
 497 718 497 718 620 738 c 128,-1,27
 743 758 743 758 897 758 c 0,28,29
 1120 758 1120 758 1279 721 c 128,-1,30
 1438 684 1438 684 1539 616 c 128,-1,31
 1640 548 1640 548 1687 453 c 128,-1,32
 1734 358 1734 358 1734 241 c 2,33,-1
 1734 186 l 2,34,35
 1734 121 1734 121 1761 89.5 c 128,-1,36
 1788 58 1788 58 1839 58 c 256,37,38
 1890 58 1890 58 1921.5 100.5 c 128,-1,39
 1953 143 1953 143 1953 218 c 0,40,41
 1953 260 1953 260 1943.5 295 c 128,-1,42
 1934 330 1934 330 1918 358.5 c 128,-1,43
 1902 387 1902 387 1880 408 c 128,-1,44
 1858 429 1858 429 1834 443 c 1,45,-1
 1875 502 l 1,46,47
 1902 485 1902 485 1930 459 c 128,-1,48
 1958 433 1958 433 1980 398 c 128,-1,49
 2002 363 2002 363 2016 318 c 128,-1,50
 2030 273 2030 273 2030 218 c 0,51,52
 2030 167 2030 167 2016 125 c 128,-1,53
 2002 83 2002 83 1976.5 54 c 128,-1,54
 1951 25 1951 25 1915 9 c 128,-1,55
 1879 -7 1879 -7 1836 -7 c 0,56,57
 1748 -7 1748 -7 1703.5 44.5 c 128,-1,58
 1659 96 1659 96 1659 183 c 2,59,-1
 1659 236 l 2,60,61
 1659 344 1659 344 1617.5 428.5 c 128,-1,62
 1576 513 1576 513 1484.5 571 c 128,-1,63
 1393 629 1393 629 1247 659.5 c 128,-1,64
 1101 690 1101 690 892 690 c 0,65,66
 750 690 750 690 637.5 672.5 c 128,-1,67
 525 655 525 655 439.5 623.5 c 128,-1,68
 354 592 354 592 293 548.5 c 128,-1,69
 232 505 232 505 193.5 453 c 128,-1,70
 155 401 155 401 137.5 343 c 128,-1,71
 120 285 120 285 120 225 c 0,72,73
 120 111 120 111 174 27.5 c 128,-1,74
 228 -56 228 -56 323.5 -110 c 128,-1,75
 419 -164 419 -164 549 -190 c 128,-1,76
 679 -216 679 -216 832 -216 c 0,77,78
 997 -216 997 -216 1118 -189 c 128,-1,79
 1239 -162 1239 -162 1318 -116 c 128,-1,80
 1397 -70 1397 -70 1435 -8.5 c 128,-1,81
 1473 53 1473 53 1473 123 c 0,82,83
 1473 183 1473 183 1447 219.5 c 128,-1,84
 1421 256 1421 256 1367 256 c 0,85,86
 1338 256 1338 256 1312.5 238 c 128,-1,87
 1287 220 1287 220 1274 185 c 1,88,-1
 1274 0 l 1,89,-1
 1198 0 l 1,90,-1
 1198 432 l 1,91,-1
 1028 432 l 1,92,-1
 1028 0 l 1,93,-1
 696 0 l 1,94,-1
 673 48 l 1,95,96
 702 84 702 84 716.5 130.5 c 128,-1,97
 731 177 731 177 731 228 c 0,98,99
 731 274 731 274 717.5 312 c 128,-1,100
 704 350 704 350 678.5 377 c 128,-1,101
 653 404 653 404 617 419 c 128,-1,102
 581 434 581 434 535 434 c 0,103,104
 488 434 488 434 450 419 c 128,-1,105
 412 404 412 404 385 377 c 128,-1,106
 358 350 358 350 342.5 311.5 c 128,-1,107
 327 273 327 273 326 227 c 1,108,109
 344 256 344 256 376 274.5 c 128,-1,110
 408 293 408 293 448 293 c 0,111,112
 480 293 480 293 507 282 c 128,-1,113
 534 271 534 271 553.5 251.5 c 128,-1,114
 573 232 573 232 584 205 c 128,-1,115
 595 178 595 178 595 147 c 0,116,117
 595 112 595 112 583 84 c 128,-1,118
 571 56 571 56 550 35.5 c 128,-1,119
 529 15 529 15 499.5 4 c 128,-1,120
 470 -7 470 -7 435 -7 c 0,121,122
 396 -7 396 -7 364 9 c 128,-1,123
 332 25 332 25 309 54.5 c 128,-1,124
 286 84 286 84 273 125.5 c 128,-1,125
 260 167 260 167 260 217 c 0,126,127
 260 280 260 280 281 332.5 c 128,-1,128
 302 385 302 385 339 422 c 128,-1,129
 376 459 376 459 427.5 479.5 c 128,-1,130
 479 500 479 500 540 500 c 0,131,132
 597 500 597 500 646 480.5 c 128,-1,133
 695 461 695 461 731 425.5 c 128,-1,134
 767 390 767 390 787.5 341 c 128,-1,135
 808 292 808 292 808 233 c 0,136,137
 808 206 808 206 803.5 180 c 128,-1,138
 799 154 799 154 792 131.5 c 128,-1,139
 785 109 785 109 776.5 91.5 c 128,-1,140
 768 74 768 74 761 63 c 1,141,-1
 954 63 l 1,0,-1
433 230 m 0,142,143
 414 230 414 230 398.5 223.5 c 128,-1,144
 383 217 383 217 370 206 c 128,-1,145
 357 195 357 195 348 181.5 c 128,-1,146
 339 168 339 168 333 153 c 1,147,148
 342 105 342 105 371 80.5 c 128,-1,149
 400 56 400 56 435 56 c 0,150,151
 474 56 474 56 497.5 81 c 128,-1,152
 521 106 521 106 521 144 c 256,153,154
 521 182 521 182 498 206 c 128,-1,155
 475 230 475 230 433 230 c 0,142,143
EndSplineSet
EndChar

StartChar: Ydieresis
Encoding: 376 376 127
Width: 997
GlyphClass: 2
Flags: W
LayerCount: 2
Fore
SplineSet
554 495 m 1,0,-1
 554 433 l 1,1,-1
 409 433 l 1,2,-1
 409 292 l 1,3,-1
 532 292 l 1,4,5
 560 340 560 340 610.5 367.5 c 128,-1,6
 661 395 661 395 728 395 c 0,7,8
 779 395 779 395 820.5 379.5 c 128,-1,9
 862 364 862 364 891.5 335.5 c 128,-1,10
 921 307 921 307 937 267 c 128,-1,11
 953 227 953 227 953 179 c 0,12,13
 953 116 953 116 934.5 70 c 128,-1,14
 916 24 916 24 890 -12 c 1,15,-1
 832 28 l 1,16,17
 850 54 850 54 865.5 89.5 c 128,-1,18
 881 125 881 125 881 179 c 0,19,20
 881 251 881 251 838 292.5 c 128,-1,21
 795 334 795 334 722 334 c 0,22,23
 683 334 683 334 653 321 c 128,-1,24
 623 308 623 308 605 287 c 1,25,26
 699 287 699 287 747.5 245.5 c 128,-1,27
 796 204 796 204 796 135 c 0,28,29
 796 106 796 106 786 80.5 c 128,-1,30
 776 55 776 55 757 35.5 c 128,-1,31
 738 16 738 16 711.5 4.5 c 128,-1,32
 685 -7 685 -7 651 -7 c 0,33,34
 611 -7 611 -7 582 7 c 128,-1,35
 553 21 553 21 534 44 c 128,-1,36
 515 67 515 67 506 98 c 128,-1,37
 497 129 497 129 497 163 c 0,38,39
 497 180 497 180 499.5 198 c 128,-1,40
 502 216 502 216 507 231 c 1,41,-1
 409 231 l 1,42,-1
 409 146 l 2,43,44
 409 79 409 79 361 36 c 128,-1,45
 313 -7 313 -7 226 -7 c 0,46,47
 185 -7 185 -7 149.5 4 c 128,-1,48
 114 15 114 15 88 36 c 128,-1,49
 62 57 62 57 47 86.5 c 128,-1,50
 32 116 32 116 32 153 c 0,51,52
 32 180 32 180 40 202 c 128,-1,53
 48 224 48 224 61.5 240.5 c 128,-1,54
 75 257 75 257 92.5 268 c 128,-1,55
 110 279 110 279 129 283 c 1,56,-1
 129 495 l 1,57,-1
 554 495 l 1,0,-1
197 230 m 2,58,59
 155 230 155 230 130 210 c 128,-1,60
 105 190 105 190 105 152 c 0,61,62
 105 109 105 109 139 82.5 c 128,-1,63
 173 56 173 56 230 56 c 0,64,65
 281 56 281 56 309 82.5 c 128,-1,66
 337 109 337 109 337 156 c 2,67,-1
 337 230 l 1,68,-1
 197 230 l 2,58,59
578 228 m 1,69,70
 573 213 573 213 570.5 195.5 c 128,-1,71
 568 178 568 178 568 164 c 0,72,73
 568 106 568 106 594 81 c 128,-1,74
 620 56 620 56 654 56 c 0,75,76
 683 56 683 56 704 76.5 c 128,-1,77
 725 97 725 97 725 135 c 0,78,79
 725 182 725 182 691.5 205 c 128,-1,80
 658 228 658 228 598 228 c 2,81,-1
 578 228 l 1,69,70
201 293 m 1,82,-1
 337 293 l 1,83,-1
 337 433 l 1,84,-1
 201 433 l 1,85,-1
 201 293 l 1,82,-1
EndSplineSet
EndChar

StartChar: exclamdown
Encoding: 161 161 128
Width: 246
GlyphClass: 2
Flags: W
LayerCount: 2
Fore
SplineSet
63 411 m 0,0,1
 63 440 63 440 81 457 c 128,-1,2
 99 474 99 474 124 474 c 256,3,4
 149 474 149 474 166.5 457 c 128,-1,5
 184 440 184 440 184 411 c 0,6,7
 184 385 184 385 166.5 367 c 128,-1,8
 149 349 149 349 124 349 c 0,9,10
 98 349 98 349 81 367 c 128,-1,11
 64 385 64 385 63 411 c 0,0,1
77 -245 m 1,12,-1
 87 256 l 1,13,-1
 159 256 l 1,14,-1
 171 -245 l 1,15,-1
 77 -245 l 1,12,-1
EndSplineSet
EndChar

StartChar: cent.lat
Encoding: 65579 -1 129
Width: 510
GlyphClass: 2
Flags: W
LayerCount: 2
Fore
SplineSet
316 136 m 0,0,1
 348 136 348 136 372 143 c 128,-1,2
 396 150 396 150 419 161 c 1,3,-1
 438 95 l 1,4,5
 398 75 398 75 344 69 c 1,6,-1
 344 -20 l 1,7,-1
 269 -20 l 1,8,-1
 269 70 l 1,9,10
 225 75 225 75 187.5 92 c 128,-1,11
 150 109 150 109 122.5 138.5 c 128,-1,12
 95 168 95 168 79.5 209.5 c 128,-1,13
 64 251 64 251 64 306 c 0,14,15
 64 409 64 409 120 470 c 128,-1,16
 176 531 176 531 269 542 c 1,17,-1
 269 639 l 1,18,-1
 344 639 l 1,19,-1
 344 542 l 1,20,21
 366 540 366 540 388.5 534.5 c 128,-1,22
 411 529 411 529 436 518 c 1,23,-1
 416 451 l 1,24,25
 395 463 395 463 367.5 470 c 128,-1,26
 340 477 340 477 310 477 c 0,27,28
 237 477 237 477 195.5 434 c 128,-1,29
 154 391 154 391 154 309 c 0,30,31
 154 258 154 258 168 225 c 128,-1,32
 182 192 182 192 205 172 c 128,-1,33
 228 152 228 152 257 144 c 128,-1,34
 286 136 286 136 316 136 c 0,0,1
EndSplineSet
EndChar

StartChar: sterling.lat
Encoding: 65580 -1 130
Width: 505
GlyphClass: 2
Flags: W
LayerCount: 2
Fore
SplineSet
75 0 m 1,0,-1
 55 60 l 1,1,2
 106 87 106 87 132.5 128.5 c 128,-1,3
 159 170 159 170 159 226 c 0,4,5
 159 238 159 238 157.5 250 c 128,-1,6
 156 262 156 262 154 275 c 1,7,-1
 61 275 l 1,8,-1
 61 338 l 1,9,-1
 144 338 l 1,10,11
 140 361 140 361 136.5 389 c 128,-1,12
 133 417 133 417 133 446 c 0,13,14
 133 490 133 490 148.5 526 c 128,-1,15
 164 562 164 562 191 587 c 128,-1,16
 218 612 218 612 255.5 625.5 c 128,-1,17
 293 639 293 639 337 639 c 0,18,19
 374 639 374 639 405 631.5 c 128,-1,20
 436 624 436 624 452 614 c 1,21,-1
 432 548 l 1,22,23
 413 556 413 556 389.5 562 c 128,-1,24
 366 568 366 568 337 568 c 0,25,26
 276 568 276 568 245.5 533.5 c 128,-1,27
 215 499 215 499 215 445 c 0,28,29
 215 413 215 413 218.5 387.5 c 128,-1,30
 222 362 222 362 227 338 c 1,31,-1
 391 338 l 1,32,-1
 391 275 l 1,33,-1
 235 275 l 1,34,35
 237 262 237 262 238 249.5 c 128,-1,36
 239 237 239 237 239 225 c 0,37,38
 239 179 239 179 223 143 c 128,-1,39
 207 107 207 107 169 78 c 1,40,-1
 170 74 l 1,41,-1
 460 74 l 1,42,-1
 460 0 l 1,43,-1
 75 0 l 1,0,-1
EndSplineSet
EndChar

StartChar: currency
Encoding: 164 164 131
Width: 513
GlyphClass: 2
Flags: W
LayerCount: 2
Fore
SplineSet
76 69 m 1,0,-1
 35 110 l 1,1,-1
 119 194 l 1,2,3
 88 240 88 240 88 307 c 0,4,5
 88 341 88 341 96 369 c 128,-1,6
 104 397 104 397 118 419 c 1,7,-1
 36 502 l 1,8,-1
 77 543 l 1,9,-1
 159 460 l 1,10,11
 200 489 200 489 258 489 c 0,12,13
 285 489 285 489 309 481 c 128,-1,14
 333 473 333 473 353 459 c 1,15,-1
 437 543 l 1,16,-1
 478 502 l 1,17,-1
 394 418 l 1,18,19
 408 395 408 395 416.5 367 c 128,-1,20
 425 339 425 339 425 307 c 0,21,22
 425 272 425 272 417 243 c 128,-1,23
 409 214 409 214 395 192 c 1,24,-1
 478 109 l 1,25,-1
 437 68 l 1,26,-1
 353 151 l 1,27,28
 333 138 333 138 308.5 131 c 128,-1,29
 284 124 284 124 255 124 c 0,30,31
 201 124 201 124 159 152 c 1,32,-1
 76 69 l 1,0,-1
358 307 m 0,33,34
 358 368 358 368 333 402.5 c 128,-1,35
 308 437 308 437 258 437 c 0,36,37
 210 437 210 437 182.5 404.5 c 128,-1,38
 155 372 155 372 155 307 c 0,39,40
 155 244 155 244 181 210 c 128,-1,41
 207 176 207 176 255 176 c 0,42,43
 276 176 276 176 294.5 183 c 128,-1,44
 313 190 313 190 327.5 206 c 128,-1,45
 342 222 342 222 350 247 c 128,-1,46
 358 272 358 272 358 307 c 0,33,34
EndSplineSet
EndChar

StartChar: yen.lat
Encoding: 65581 -1 132
Width: 508
GlyphClass: 2
Flags: W
LayerCount: 2
Fore
SplineSet
472 220 m 1,0,-1
 472 158 l 1,1,-1
 296 158 l 1,2,-1
 296 0 l 1,3,-1
 208 0 l 1,4,-1
 208 158 l 1,5,-1
 32 158 l 1,6,-1
 32 220 l 1,7,-1
 208 220 l 1,8,-1
 208 264 l 1,9,-1
 183 308 l 1,10,-1
 32 308 l 1,11,-1
 32 370 l 1,12,-1
 148 370 l 1,13,-1
 3 630 l 1,14,-1
 104 630 l 1,15,-1
 256 338 l 1,16,-1
 409 630 l 1,17,-1
 506 630 l 1,18,-1
 356 370 l 1,19,-1
 472 370 l 1,20,-1
 472 308 l 1,21,-1
 321 308 l 1,22,-1
 296 264 l 1,23,-1
 296 220 l 1,24,-1
 472 220 l 1,0,-1
EndSplineSet
EndChar

StartChar: brokenbar
Encoding: 166 166 133
Width: 235
GlyphClass: 2
Flags: W
LayerCount: 2
Fore
SplineSet
80 380 m 1,0,-1
 80 750 l 1,1,-1
 155 750 l 1,2,-1
 155 380 l 1,3,-1
 80 380 l 1,0,-1
80 -180 m 1,4,-1
 80 188 l 1,5,-1
 155 188 l 1,6,-1
 155 -180 l 1,7,-1
 80 -180 l 1,4,-1
EndSplineSet
EndChar

StartChar: section
Encoding: 167 167 134
Width: 519
GlyphClass: 2
Flags: W
LayerCount: 2
Fore
SplineSet
87 23 m 1,0,1
 120 7 120 7 153.5 -1 c 128,-1,2
 187 -9 187 -9 229 -9 c 0,3,4
 284 -9 284 -9 310.5 12.5 c 128,-1,5
 337 34 337 34 337 67 c 0,6,7
 337 82 337 82 332 93 c 128,-1,8
 327 104 327 104 316.5 112.5 c 128,-1,9
 306 121 306 121 288.5 129 c 128,-1,10
 271 137 271 137 246 146 c 2,11,-1
 185 169 l 2,12,13
 126 192 126 192 93 225.5 c 128,-1,14
 60 259 60 259 60 309 c 0,15,16
 60 347 60 347 78 376.5 c 128,-1,17
 96 406 96 406 123 426 c 1,18,19
 100 455 100 455 100 497 c 0,20,21
 100 527 100 527 112 553 c 128,-1,22
 124 579 124 579 147.5 598 c 128,-1,23
 171 617 171 617 204.5 628 c 128,-1,24
 238 639 238 639 280 639 c 0,25,26
 319 639 319 639 354.5 632.5 c 128,-1,27
 390 626 390 626 424 611 c 1,28,-1
 404 548 l 1,29,30
 371 564 371 564 344 570 c 128,-1,31
 317 576 317 576 290 576 c 0,32,33
 235 576 235 576 208.5 556.5 c 128,-1,34
 182 537 182 537 182 504 c 0,35,36
 182 489 182 489 187 478 c 128,-1,37
 192 467 192 467 202.5 458.5 c 128,-1,38
 213 450 213 450 230.5 442 c 128,-1,39
 248 434 248 434 273 425 c 2,40,-1
 334 402 l 2,41,42
 393 379 393 379 426 345.5 c 128,-1,43
 459 312 459 312 459 262 c 0,44,45
 459 223 459 223 441 193.5 c 128,-1,46
 423 164 423 164 396 144 c 1,47,48
 407 130 407 130 413 112.5 c 128,-1,49
 419 95 419 95 419 74 c 0,50,51
 419 44 419 44 407 17 c 128,-1,52
 395 -10 395 -10 371.5 -29.5 c 128,-1,53
 348 -49 348 -49 314.5 -60.5 c 128,-1,54
 281 -72 281 -72 239 -72 c 0,55,56
 185 -72 185 -72 143 -63.5 c 128,-1,57
 101 -55 101 -55 67 -40 c 1,58,-1
 87 23 l 1,0,1
378 251 m 0,59,60
 378 286 378 286 356.5 303.5 c 128,-1,61
 335 321 335 321 300 334 c 2,62,-1
 239 356 l 2,63,64
 222 362 222 362 205 369 c 128,-1,65
 188 376 188 376 173 385 c 1,66,67
 159 373 159 373 150 357 c 128,-1,68
 141 341 141 341 141 320 c 0,69,70
 141 285 141 285 162.5 267.5 c 128,-1,71
 184 250 184 250 219 237 c 2,72,-1
 280 215 l 2,73,74
 297 208 297 208 313.5 201 c 128,-1,75
 330 194 330 194 345 186 c 1,76,77
 359 198 359 198 368.5 213.5 c 128,-1,78
 378 229 378 229 378 251 c 0,59,60
EndSplineSet
EndChar

StartChar: dieresis
Encoding: 168 168 135
Width: 334
GlyphClass: 2
Flags: W
LayerCount: 2
Fore
SplineSet
34 623 m 0,0,1
 34 642 34 642 49 657 c 128,-1,2
 64 672 64 672 84 672 c 256,3,4
 104 672 104 672 119 657 c 128,-1,5
 134 642 134 642 134 623 c 0,6,7
 134 603 134 603 119 587.5 c 128,-1,8
 104 572 104 572 84 572 c 256,9,10
 64 572 64 572 49 587.5 c 128,-1,11
 34 603 34 603 34 623 c 0,0,1
200 623 m 0,12,13
 200 642 200 642 215 657 c 128,-1,14
 230 672 230 672 250 672 c 256,15,16
 270 672 270 672 285 657 c 128,-1,17
 300 642 300 642 300 623 c 0,18,19
 300 603 300 603 285 587.5 c 128,-1,20
 270 572 270 572 250 572 c 256,21,22
 230 572 230 572 215 587.5 c 128,-1,23
 200 603 200 603 200 623 c 0,12,13
EndSplineSet
EndChar

StartChar: copyright
Encoding: 169 169 136
Width: 706
GlyphClass: 2
Flags: W
LayerCount: 2
Fore
SplineSet
379 186 m 0,0,1
 402 186 402 186 419 191 c 128,-1,2
 436 196 436 196 453 204 c 1,3,-1
 467 156 l 1,4,5
 426 137 426 137 373 137 c 0,6,7
 337 137 337 137 305 148 c 128,-1,8
 273 159 273 159 249 180.5 c 128,-1,9
 225 202 225 202 211 235 c 128,-1,10
 197 268 197 268 197 312 c 0,11,12
 197 352 197 352 210 384.5 c 128,-1,13
 223 417 223 417 246 440 c 128,-1,14
 269 463 269 463 301.5 475 c 128,-1,15
 334 487 334 487 373 487 c 0,16,17
 395 487 395 487 416 483.5 c 128,-1,18
 437 480 437 480 465 469 c 1,19,-1
 451 420 l 1,20,21
 416 439 416 439 380 439 c 0,22,23
 326 439 326 439 294 406.5 c 128,-1,24
 262 374 262 374 262 314 c 0,25,26
 262 278 262 278 272 253.5 c 128,-1,27
 282 229 282 229 298.5 214 c 128,-1,28
 315 199 315 199 336 192.5 c 128,-1,29
 357 186 357 186 379 186 c 0,0,1
355 639 m 256,30,31
 419 639 419 639 476 618.5 c 128,-1,32
 533 598 533 598 576 557.5 c 128,-1,33
 619 517 619 517 644.5 456.5 c 128,-1,34
 670 396 670 396 670 315 c 0,35,36
 670 236 670 236 644 175.5 c 128,-1,37
 618 115 618 115 574 74 c 128,-1,38
 530 33 530 33 472.5 12 c 128,-1,39
 415 -9 415 -9 351 -9 c 256,40,41
 287 -9 287 -9 230 11.5 c 128,-1,42
 173 32 173 32 130 72.5 c 128,-1,43
 87 113 87 113 61.5 173.5 c 128,-1,44
 36 234 36 234 36 315 c 0,45,46
 36 394 36 394 62 454.5 c 128,-1,47
 88 515 88 515 132 556 c 128,-1,48
 176 597 176 597 233.5 618 c 128,-1,49
 291 639 291 639 355 639 c 256,30,31
355 605 m 256,50,51
 299 605 299 605 248 586.5 c 128,-1,52
 197 568 197 568 159 531 c 128,-1,53
 121 494 121 494 98.5 440 c 128,-1,54
 76 386 76 386 76 315 c 0,55,56
 76 242 76 242 98 187.5 c 128,-1,57
 120 133 120 133 157.5 97 c 128,-1,58
 195 61 195 61 245 43 c 128,-1,59
 295 25 295 25 351 25 c 256,60,61
 407 25 407 25 457.5 43.5 c 128,-1,62
 508 62 508 62 546.5 99 c 128,-1,63
 585 136 585 136 607.5 190 c 128,-1,64
 630 244 630 244 630 315 c 0,65,66
 630 388 630 388 608 442.5 c 128,-1,67
 586 497 586 497 548.5 533 c 128,-1,68
 511 569 511 569 461 587 c 128,-1,69
 411 605 411 605 355 605 c 256,50,51
EndSplineSet
EndChar

StartChar: ordfeminine
Encoding: 170 170 137
Width: 333
GlyphClass: 2
Flags: W
LayerCount: 2
Fore
SplineSet
57 556 m 1,0,1
 89 573 89 573 114.5 580.5 c 128,-1,2
 140 588 140 588 175 588 c 0,3,4
 200 588 200 588 221.5 582.5 c 128,-1,5
 243 577 243 577 258.5 564 c 128,-1,6
 274 551 274 551 282.5 529.5 c 128,-1,7
 291 508 291 508 291 476 c 2,8,-1
 291 274 l 1,9,-1
 243 274 l 1,10,-1
 236 308 l 1,11,-1
 235 308 l 1,12,13
 215 286 215 286 190 277 c 128,-1,14
 165 268 165 268 136 268 c 0,15,16
 91 268 91 268 62 291.5 c 128,-1,17
 33 315 33 315 33 357 c 0,18,19
 33 406 33 406 71.5 431 c 128,-1,20
 110 456 110 456 173 456 c 2,21,-1
 233 456 l 1,22,-1
 233 483 l 2,23,24
 233 517 233 517 215.5 529 c 128,-1,25
 198 541 198 541 169 541 c 0,26,27
 152 541 152 541 130 535.5 c 128,-1,28
 108 530 108 530 79 514 c 1,29,-1
 57 556 l 1,0,1
233 417 m 1,30,-1
 184 415 l 2,31,32
 134 413 134 413 113.5 397.5 c 128,-1,33
 93 382 93 382 93 359 c 0,34,35
 93 330 93 330 110 320.5 c 128,-1,36
 127 311 127 311 149 311 c 256,37,38
 171 311 171 311 193.5 321 c 128,-1,39
 216 331 216 331 233 353 c 1,40,-1
 233 417 l 1,30,-1
EndSplineSet
EndChar

StartChar: guillemotleft
Encoding: 171 171 138
Width: 489
GlyphClass: 2
Flags: W
LayerCount: 2
Fore
SplineSet
374 76 m 1,0,-1
 226 236 l 1,1,-1
 374 397 l 1,2,-1
 450 397 l 1,3,-1
 314 236 l 1,4,-1
 450 76 l 1,5,-1
 374 76 l 1,0,-1
194 76 m 1,6,-1
 46 236 l 1,7,-1
 194 397 l 1,8,-1
 270 397 l 1,9,-1
 134 236 l 1,10,-1
 270 76 l 1,11,-1
 194 76 l 1,6,-1
EndSplineSet
EndChar

StartChar: registered
Encoding: 174 174 139
Width: 532
GlyphClass: 2
Flags: W
LayerCount: 2
Fore
SplineSet
185 590 m 1,0,-1
 284 590 l 2,1,2
 324 590 324 590 345.5 568.5 c 128,-1,3
 367 547 367 547 367 515 c 0,4,5
 367 484 367 484 351.5 466.5 c 128,-1,6
 336 449 336 449 316 441 c 1,7,-1
 381 338 l 1,8,-1
 332 338 l 1,9,-1
 275 434 l 1,10,-1
 225 434 l 1,11,-1
 225 338 l 1,12,-1
 185 338 l 1,13,-1
 185 590 l 1,0,-1
225 467 m 1,14,-1
 267 467 l 2,15,16
 292 467 292 467 308.5 477.5 c 128,-1,17
 325 488 325 488 325 513 c 0,18,19
 325 537 325 537 311.5 546.5 c 128,-1,20
 298 556 298 556 273 556 c 2,21,-1
 225 556 l 1,22,-1
 225 467 l 1,14,-1
492 468 m 0,23,24
 492 411 492 411 475.5 368.5 c 128,-1,25
 459 326 459 326 429 297 c 128,-1,26
 399 268 399 268 357.5 253.5 c 128,-1,27
 316 239 316 239 267 239 c 0,28,29
 217 239 217 239 175.5 253.5 c 128,-1,30
 134 268 134 268 104 295.5 c 128,-1,31
 74 323 74 323 57 364.5 c 128,-1,32
 40 406 40 406 40 460 c 0,33,34
 40 516 40 516 56.5 558.5 c 128,-1,35
 73 601 73 601 103 629.5 c 128,-1,36
 133 658 133 658 174 672 c 128,-1,37
 215 686 215 686 265 686 c 0,38,39
 314 686 314 686 356 672 c 128,-1,40
 398 658 398 658 428 630.5 c 128,-1,41
 458 603 458 603 475 562.5 c 128,-1,42
 492 522 492 522 492 468 c 0,23,24
458 464 m 0,43,44
 458 514 458 514 442.5 551 c 128,-1,45
 427 588 427 588 400.5 612 c 128,-1,46
 374 636 374 636 339 648 c 128,-1,47
 304 660 304 660 265 660 c 256,48,49
 226 660 226 660 191.5 649 c 128,-1,50
 157 638 157 638 130.5 614.5 c 128,-1,51
 104 591 104 591 89 553.5 c 128,-1,52
 74 516 74 516 74 464 c 0,53,54
 74 413 74 413 88 375.5 c 128,-1,55
 102 338 102 338 127.5 313.5 c 128,-1,56
 153 289 153 289 188.5 276.5 c 128,-1,57
 224 264 224 264 267 264 c 0,58,59
 306 264 306 264 340.5 275.5 c 128,-1,60
 375 287 375 287 401.5 311.5 c 128,-1,61
 428 336 428 336 443 373.5 c 128,-1,62
 458 411 458 411 458 464 c 0,43,44
EndSplineSet
EndChar

StartChar: degree
Encoding: 176 176 140
Width: 391
GlyphClass: 2
Flags: W
LayerCount: 2
Fore
SplineSet
359 467 m 0,0,1
 359 387 359 387 316.5 340.5 c 128,-1,2
 274 294 274 294 196 294 c 0,3,4
 124 294 124 294 80 340.5 c 128,-1,5
 36 387 36 387 36 467 c 0,6,7
 36 506 36 506 47.5 537.5 c 128,-1,8
 59 569 59 569 80.5 591.5 c 128,-1,9
 102 614 102 614 132 626.5 c 128,-1,10
 162 639 162 639 199 639 c 0,11,12
 235 639 235 639 264.5 626.5 c 128,-1,13
 294 614 294 614 315 591.5 c 128,-1,14
 336 569 336 569 347.5 537.5 c 128,-1,15
 359 506 359 506 359 467 c 0,0,1
292 467 m 0,16,17
 292 521 292 521 270.5 554 c 128,-1,18
 249 587 249 587 199 587 c 0,19,20
 151 587 151 587 127 555.5 c 128,-1,21
 103 524 103 524 103 467 c 0,22,23
 103 412 103 412 125.5 379 c 128,-1,24
 148 346 148 346 196 346 c 0,25,26
 238 346 238 346 265 375 c 128,-1,27
 292 404 292 404 292 467 c 0,16,17
EndSplineSet
EndChar

StartChar: plusminus
Encoding: 177 177 141
Width: 469
GlyphClass: 2
Flags: W
LayerCount: 2
Fore
SplineSet
404 61 m 1,0,-1
 404 0 l 1,1,-1
 65 0 l 1,2,-1
 65 61 l 1,3,-1
 404 61 l 1,0,-1
434 371 m 1,4,-1
 434 310 l 1,5,-1
 265 310 l 1,6,-1
 265 141 l 1,7,-1
 204 141 l 1,8,-1
 204 310 l 1,9,-1
 35 310 l 1,10,-1
 35 371 l 1,11,-1
 204 371 l 1,12,-1
 204 540 l 1,13,-1
 265 540 l 1,14,-1
 265 371 l 1,15,-1
 434 371 l 1,4,-1
EndSplineSet
EndChar

StartChar: acute
Encoding: 180 180 142
Width: 253
GlyphClass: 2
Flags: W
LayerCount: 2
Fore
SplineSet
94 555 m 1,0,-1
 32 555 l 1,1,-1
 112 720 l 1,2,-1
 200 720 l 1,3,-1
 94 555 l 1,0,-1
EndSplineSet
EndChar

StartChar: paragraph
Encoding: 182 182 143
Width: 552
GlyphClass: 2
Flags: W
LayerCount: 2
Fore
SplineSet
411 -180 m 1,0,-1
 411 572 l 1,1,-1
 320 572 l 1,2,-1
 320 -180 l 1,3,-1
 258 -180 l 1,4,-1
 258 263 l 1,5,6
 146 263 146 263 90.5 313 c 128,-1,7
 35 363 35 363 35 449 c 0,8,9
 35 497 35 497 51 532.5 c 128,-1,10
 67 568 67 568 96.5 591.5 c 128,-1,11
 126 615 126 615 166.5 627 c 128,-1,12
 207 639 207 639 256 639 c 2,13,-1
 472 639 l 1,14,-1
 472 -180 l 1,15,-1
 411 -180 l 1,0,-1
EndSplineSet
EndChar

StartChar: cedilla
Encoding: 184 184 144
Width: 286
GlyphClass: 2
Flags: W
LayerCount: 2
Fore
SplineSet
128 0 m 1,0,-1
 180 0 l 1,1,-1
 154 -47 l 1,2,3
 199 -50 199 -50 220.5 -69 c 128,-1,4
 242 -88 242 -88 242 -117 c 0,5,6
 242 -138 242 -138 233 -153.5 c 128,-1,7
 224 -169 224 -169 208.5 -179.5 c 128,-1,8
 193 -190 193 -190 173 -195 c 128,-1,9
 153 -200 153 -200 131 -200 c 0,10,11
 108 -200 108 -200 88.5 -196.5 c 128,-1,12
 69 -193 69 -193 57 -188 c 1,13,-1
 69 -146 l 1,14,15
 82 -151 82 -151 96 -153 c 128,-1,16
 110 -155 110 -155 124 -155 c 0,17,18
 151 -155 151 -155 166.5 -146.5 c 128,-1,19
 182 -138 182 -138 182 -119 c 0,20,21
 182 -99 182 -99 162 -88.5 c 128,-1,22
 142 -78 142 -78 91 -78 c 1,23,-1
 128 0 l 1,0,-1
EndSplineSet
EndChar

StartChar: guillemotright
Encoding: 187 187 146
Width: 489
GlyphClass: 2
Flags: W
LayerCount: 2
Fore
SplineSet
226 76 m 1,0,-1
 362 236 l 1,1,-1
 226 397 l 1,2,-1
 302 397 l 1,3,-1
 450 236 l 1,4,-1
 302 76 l 1,5,-1
 226 76 l 1,0,-1
46 76 m 1,6,-1
 182 236 l 1,7,-1
 46 397 l 1,8,-1
 122 397 l 1,9,-1
 270 236 l 1,10,-1
 122 76 l 1,11,-1
 46 76 l 1,6,-1
EndSplineSet
EndChar

StartChar: questiondown
Encoding: 191 191 147
Width: 440
GlyphClass: 2
Flags: W
LayerCount: 2
Fore
SplineSet
255 -250 m 0,0,1
 210 -250 210 -250 174.5 -237.5 c 128,-1,2
 139 -225 139 -225 114 -202.5 c 128,-1,3
 89 -180 89 -180 76 -149 c 128,-1,4
 63 -118 63 -118 63 -82 c 0,5,6
 63 -57 63 -57 71.5 -33 c 128,-1,7
 80 -9 80 -9 94.5 13 c 128,-1,8
 109 35 109 35 127 54.5 c 128,-1,9
 145 74 145 74 163 91 c 0,10,11
 204 128 204 128 227 156 c 128,-1,12
 250 184 250 184 250 219 c 0,13,14
 250 233 250 233 248 244 c 128,-1,15
 246 255 246 255 241 271 c 1,16,-1
 316 285 l 1,17,18
 322 270 322 270 325.5 252.5 c 128,-1,19
 329 235 329 235 329 218 c 0,20,21
 329 174 329 174 307 138.5 c 128,-1,22
 285 103 285 103 242 61 c 0,23,24
 224 44 224 44 208 27.5 c 128,-1,25
 192 11 192 11 179.5 -6 c 128,-1,26
 167 -23 167 -23 160 -41.5 c 128,-1,27
 153 -60 153 -60 153 -81 c 0,28,29
 153 -99 153 -99 158.5 -115.5 c 128,-1,30
 164 -132 164 -132 176.5 -145 c 128,-1,31
 189 -158 189 -158 209.5 -166 c 128,-1,32
 230 -174 230 -174 260 -174 c 0,33,34
 283 -174 283 -174 308.5 -167.5 c 128,-1,35
 334 -161 334 -161 359 -143 c 1,36,-1
 397 -209 l 1,37,38
 368 -230 368 -230 329 -240 c 128,-1,39
 290 -250 290 -250 255 -250 c 0,0,1
331 411 m 0,40,41
 331 385 331 385 313 367 c 128,-1,42
 295 349 295 349 270 349 c 256,43,44
 245 349 245 349 227.5 367 c 128,-1,45
 210 385 210 385 210 411 c 0,46,47
 210 440 210 440 227.5 457 c 128,-1,48
 245 474 245 474 270 474 c 256,49,50
 295 474 295 474 313 457 c 128,-1,51
 331 440 331 440 331 411 c 0,40,41
EndSplineSet
EndChar

StartChar: Agrave
Encoding: 192 192 148
Width: 590
GlyphClass: 2
Flags: W
LayerCount: 2
Fore
SplineSet
256 630 m 1,0,-1
 338 630 l 1,1,-1
 589 0 l 1,2,-1
 493 0 l 1,3,-1
 424 175 l 1,4,-1
 165 175 l 1,5,-1
 97 0 l 1,6,-1
 2 0 l 1,7,-1
 256 630 l 1,0,-1
190 248 m 1,8,-1
 397 248 l 1,9,-1
 355 357 l 2,10,11
 338 400 338 400 324 440 c 128,-1,12
 310 480 310 480 296 522 c 1,13,-1
 294 522 l 1,14,15
 280 480 280 480 265 441 c 128,-1,16
 250 402 250 402 233 357 c 2,17,-1
 190 248 l 1,8,-1
153 834 m 1,18,-1
 256 834 l 1,19,-1
 336 710 l 1,20,-1
 264 710 l 1,21,-1
 153 834 l 1,18,-1
EndSplineSet
EndChar

StartChar: Aacute
Encoding: 193 193 149
Width: 590
GlyphClass: 2
Flags: W
LayerCount: 2
Fore
SplineSet
256 630 m 1,0,-1
 338 630 l 1,1,-1
 589 0 l 1,2,-1
 493 0 l 1,3,-1
 424 175 l 1,4,-1
 165 175 l 1,5,-1
 97 0 l 1,6,-1
 2 0 l 1,7,-1
 256 630 l 1,0,-1
190 248 m 1,8,-1
 397 248 l 1,9,-1
 355 357 l 2,10,11
 338 400 338 400 324 440 c 128,-1,12
 310 480 310 480 296 522 c 1,13,-1
 294 522 l 1,14,15
 280 480 280 480 265 441 c 128,-1,16
 250 402 250 402 233 357 c 2,17,-1
 190 248 l 1,8,-1
327 710 m 1,18,-1
 255 710 l 1,19,-1
 335 834 l 1,20,-1
 438 834 l 1,21,-1
 327 710 l 1,18,-1
EndSplineSet
EndChar

StartChar: Acircumflex
Encoding: 194 194 150
Width: 590
GlyphClass: 2
Flags: W
LayerCount: 2
Fore
SplineSet
256 630 m 1,0,-1
 338 630 l 1,1,-1
 589 0 l 1,2,-1
 493 0 l 1,3,-1
 424 175 l 1,4,-1
 165 175 l 1,5,-1
 97 0 l 1,6,-1
 2 0 l 1,7,-1
 256 630 l 1,0,-1
190 248 m 1,8,-1
 397 248 l 1,9,-1
 355 357 l 2,10,11
 338 400 338 400 324 440 c 128,-1,12
 310 480 310 480 296 522 c 1,13,-1
 294 522 l 1,14,15
 280 480 280 480 265 441 c 128,-1,16
 250 402 250 402 233 357 c 2,17,-1
 190 248 l 1,8,-1
261 844 m 1,18,-1
 330 844 l 1,19,-1
 455 710 l 1,20,-1
 375 710 l 1,21,-1
 295 794 l 1,22,-1
 215 710 l 1,23,-1
 139 710 l 1,24,-1
 261 844 l 1,18,-1
EndSplineSet
EndChar

StartChar: Atilde
Encoding: 195 195 151
Width: 590
GlyphClass: 2
Flags: W
LayerCount: 2
Fore
SplineSet
256 630 m 1,0,-1
 338 630 l 1,1,-1
 589 0 l 1,2,-1
 493 0 l 1,3,-1
 424 175 l 1,4,-1
 165 175 l 1,5,-1
 97 0 l 1,6,-1
 2 0 l 1,7,-1
 256 630 l 1,0,-1
190 248 m 1,8,-1
 397 248 l 1,9,-1
 355 357 l 2,10,11
 338 400 338 400 324 440 c 128,-1,12
 310 480 310 480 296 522 c 1,13,-1
 294 522 l 1,14,15
 280 480 280 480 265 441 c 128,-1,16
 250 402 250 402 233 357 c 2,17,-1
 190 248 l 1,8,-1
141 710 m 1,18,19
 141 756 141 756 161.5 788 c 128,-1,20
 182 820 182 820 228 820 c 0,21,22
 249 820 249 820 265.5 813 c 128,-1,23
 282 806 282 806 296.5 798 c 128,-1,24
 311 790 311 790 325 783 c 128,-1,25
 339 776 339 776 355 776 c 0,26,27
 375 776 375 776 383.5 791 c 128,-1,28
 392 806 392 806 394 823 c 1,29,-1
 444 823 l 1,30,31
 444 802 444 802 439 782.5 c 128,-1,32
 434 763 434 763 423.5 747.5 c 128,-1,33
 413 732 413 732 397.5 722.5 c 128,-1,34
 382 713 382 713 361 713 c 256,35,36
 340 713 340 713 321.5 719.5 c 128,-1,37
 303 726 303 726 287 734.5 c 128,-1,38
 271 743 271 743 257 749.5 c 128,-1,39
 243 756 243 756 231 756 c 0,40,41
 210 756 210 756 201.5 743 c 128,-1,42
 193 730 193 730 191 710 c 1,43,-1
 141 710 l 1,18,19
EndSplineSet
EndChar

StartChar: Adieresis
Encoding: 196 196 152
Width: 590
GlyphClass: 2
Flags: W
LayerCount: 2
Fore
SplineSet
256 630 m 1,0,-1
 338 630 l 1,1,-1
 589 0 l 1,2,-1
 493 0 l 1,3,-1
 424 175 l 1,4,-1
 165 175 l 1,5,-1
 97 0 l 1,6,-1
 2 0 l 1,7,-1
 256 630 l 1,0,-1
190 248 m 1,8,-1
 397 248 l 1,9,-1
 355 357 l 2,10,11
 338 400 338 400 324 440 c 128,-1,12
 310 480 310 480 296 522 c 1,13,-1
 294 522 l 1,14,15
 280 480 280 480 265 441 c 128,-1,16
 250 402 250 402 233 357 c 2,17,-1
 190 248 l 1,8,-1
162 761 m 0,18,19
 162 780 162 780 177 795 c 128,-1,20
 192 810 192 810 212 810 c 256,21,22
 232 810 232 810 247 795 c 128,-1,23
 262 780 262 780 262 761 c 0,24,25
 262 741 262 741 247 725.5 c 128,-1,26
 232 710 232 710 212 710 c 256,27,28
 192 710 192 710 177 725.5 c 128,-1,29
 162 741 162 741 162 761 c 0,18,19
328 761 m 0,30,31
 328 780 328 780 343 795 c 128,-1,32
 358 810 358 810 378 810 c 256,33,34
 398 810 398 810 413 795 c 128,-1,35
 428 780 428 780 428 761 c 0,36,37
 428 741 428 741 413 725.5 c 128,-1,38
 398 710 398 710 378 710 c 256,39,40
 358 710 358 710 343 725.5 c 128,-1,41
 328 741 328 741 328 761 c 0,30,31
EndSplineSet
EndChar

StartChar: Aring
Encoding: 197 197 153
Width: 590
GlyphClass: 2
Flags: W
LayerCount: 2
Fore
SplineSet
256 630 m 1,0,-1
 338 630 l 1,1,-1
 589 0 l 1,2,-1
 493 0 l 1,3,-1
 424 175 l 1,4,-1
 165 175 l 1,5,-1
 97 0 l 1,6,-1
 2 0 l 1,7,-1
 256 630 l 1,0,-1
190 248 m 1,8,-1
 397 248 l 1,9,-1
 355 357 l 2,10,11
 338 400 338 400 324 440 c 128,-1,12
 310 480 310 480 296 522 c 1,13,-1
 294 522 l 1,14,15
 280 480 280 480 265 441 c 128,-1,16
 250 402 250 402 233 357 c 2,17,-1
 190 248 l 1,8,-1
199 760 m 0,18,19
 199 804 199 804 227 823.5 c 128,-1,20
 255 843 255 843 296 843 c 0,21,22
 338 843 338 843 365.5 824 c 128,-1,23
 393 805 393 805 393 760 c 0,24,25
 393 738 393 738 385 722 c 128,-1,26
 377 706 377 706 363.5 696 c 128,-1,27
 350 686 350 686 332.5 681.5 c 128,-1,28
 315 677 315 677 296 677 c 0,29,30
 257 677 257 677 228 697.5 c 128,-1,31
 199 718 199 718 199 760 c 0,18,19
248 760 m 256,32,33
 248 737 248 737 260.5 723.5 c 128,-1,34
 273 710 273 710 296 710 c 256,35,36
 319 710 319 710 331.5 723.5 c 128,-1,37
 344 737 344 737 344 760 c 256,38,39
 344 783 344 783 331.5 796.5 c 128,-1,40
 319 810 319 810 296 810 c 256,41,42
 273 810 273 810 260.5 796.5 c 128,-1,43
 248 783 248 783 248 760 c 256,32,33
EndSplineSet
EndChar

StartChar: AE
Encoding: 198 198 154
Width: 789
GlyphClass: 2
Flags: W
LayerCount: 2
Fore
SplineSet
2 0 m 1,0,-1
 326 630 l 1,1,-1
 742 630 l 1,2,-1
 742 554 l 1,3,-1
 474 554 l 1,4,-1
 474 365 l 1,5,-1
 716 365 l 1,6,-1
 716 290 l 1,7,-1
 474 290 l 1,8,-1
 474 76 l 1,9,-1
 745 76 l 1,10,-1
 745 0 l 1,11,-1
 386 0 l 1,12,-1
 386 175 l 1,13,-1
 196 175 l 1,14,-1
 111 0 l 1,15,-1
 2 0 l 1,0,-1
386 561 m 1,16,-1
 227 245 l 1,17,-1
 386 245 l 1,18,-1
 386 561 l 1,16,-1
EndSplineSet
EndChar

StartChar: Ccedilla
Encoding: 199 199 155
Width: 559
GlyphClass: 2
Flags: W
LayerCount: 2
Fore
SplineSet
355 67 m 0,0,1
 405 67 405 67 437.5 75 c 128,-1,2
 470 83 470 83 502 98 c 1,3,-1
 523 24 l 1,4,5
 488 8 488 8 449 0 c 128,-1,6
 410 -8 410 -8 353 -9 c 1,7,-1
 336 -47 l 1,8,9
 364 -48 364 -48 383 -55 c 128,-1,10
 402 -62 402 -62 413 -73.5 c 128,-1,11
 424 -85 424 -85 429 -98.5 c 128,-1,12
 434 -112 434 -112 434 -127 c 0,13,14
 434 -169 434 -169 399.5 -191.5 c 128,-1,15
 365 -214 365 -214 313 -214 c 0,16,17
 290 -214 290 -214 270.5 -210.5 c 128,-1,18
 251 -207 251 -207 239 -202 c 1,19,-1
 251 -160 l 1,20,21
 264 -165 264 -165 278 -167 c 128,-1,22
 292 -169 292 -169 306 -169 c 0,23,24
 374 -169 374 -169 374 -129 c 0,25,26
 374 -119 374 -119 370.5 -109.5 c 128,-1,27
 367 -100 367 -100 356 -93 c 128,-1,28
 345 -86 345 -86 325.5 -82 c 128,-1,29
 306 -78 306 -78 273 -78 c 1,30,-1
 307 -7 l 1,31,32
 251 -1 251 -1 203.5 23 c 128,-1,33
 156 47 156 47 120.5 87.5 c 128,-1,34
 85 128 85 128 65 185 c 128,-1,35
 45 242 45 242 45 315 c 0,36,37
 45 392 45 392 68 452.5 c 128,-1,38
 91 513 91 513 131.5 554.5 c 128,-1,39
 172 596 172 596 228 617.5 c 128,-1,40
 284 639 284 639 350 639 c 0,41,42
 412 639 412 639 452 629 c 128,-1,43
 492 619 492 619 526 602 c 1,44,-1
 504 530 l 1,45,46
 485 538 485 538 468.5 544.5 c 128,-1,47
 452 551 452 551 435.5 555 c 128,-1,48
 419 559 419 559 401.5 561 c 128,-1,49
 384 563 384 563 362 563 c 0,50,51
 318 563 318 563 278.5 549.5 c 128,-1,52
 239 536 239 536 209.5 506 c 128,-1,53
 180 476 180 476 162.5 428.5 c 128,-1,54
 145 381 145 381 145 314 c 0,55,56
 145 246 145 246 162 199 c 128,-1,57
 179 152 179 152 207.5 123 c 128,-1,58
 236 94 236 94 274 80.5 c 128,-1,59
 312 67 312 67 355 67 c 0,0,1
EndSplineSet
EndChar

StartChar: Egrave
Encoding: 200 200 156
Width: 507
GlyphClass: 2
Flags: W
LayerCount: 2
Fore
SplineSet
80 630 m 1,0,-1
 460 630 l 1,1,-1
 460 554 l 1,2,-1
 172 554 l 1,3,-1
 172 365 l 1,4,-1
 434 365 l 1,5,-1
 434 290 l 1,6,-1
 172 290 l 1,7,-1
 172 76 l 1,8,-1
 463 76 l 1,9,-1
 463 0 l 1,10,-1
 80 0 l 1,11,-1
 80 630 l 1,0,-1
170 834 m 1,12,-1
 273 834 l 1,13,-1
 353 710 l 1,14,-1
 281 710 l 1,15,-1
 170 834 l 1,12,-1
EndSplineSet
EndChar

StartChar: Eacute
Encoding: 201 201 157
Width: 501
GlyphClass: 2
Flags: W
LayerCount: 2
Fore
SplineSet
80 630 m 1,0,-1
 460 630 l 1,1,-1
 460 554 l 1,2,-1
 172 554 l 1,3,-1
 172 365 l 1,4,-1
 434 365 l 1,5,-1
 434 290 l 1,6,-1
 172 290 l 1,7,-1
 172 76 l 1,8,-1
 463 76 l 1,9,-1
 463 0 l 1,10,-1
 80 0 l 1,11,-1
 80 630 l 1,0,-1
274 710 m 1,12,-1
 202 710 l 1,13,-1
 282 834 l 1,14,-1
 385 834 l 1,15,-1
 274 710 l 1,12,-1
EndSplineSet
EndChar

StartChar: Ecircumflex
Encoding: 202 202 158
Width: 501
GlyphClass: 2
Flags: W
LayerCount: 2
Fore
SplineSet
80 630 m 1,0,-1
 460 630 l 1,1,-1
 460 554 l 1,2,-1
 172 554 l 1,3,-1
 172 365 l 1,4,-1
 434 365 l 1,5,-1
 434 290 l 1,6,-1
 172 290 l 1,7,-1
 172 76 l 1,8,-1
 463 76 l 1,9,-1
 463 0 l 1,10,-1
 80 0 l 1,11,-1
 80 630 l 1,0,-1
228 844 m 1,12,-1
 297 844 l 1,13,-1
 422 710 l 1,14,-1
 342 710 l 1,15,-1
 262 794 l 1,16,-1
 182 710 l 1,17,-1
 106 710 l 1,18,-1
 228 844 l 1,12,-1
EndSplineSet
EndChar

StartChar: Edieresis
Encoding: 203 203 159
Width: 501
GlyphClass: 2
Flags: W
LayerCount: 2
Fore
SplineSet
80 630 m 1,0,-1
 460 630 l 1,1,-1
 460 554 l 1,2,-1
 172 554 l 1,3,-1
 172 365 l 1,4,-1
 434 365 l 1,5,-1
 434 290 l 1,6,-1
 172 290 l 1,7,-1
 172 76 l 1,8,-1
 463 76 l 1,9,-1
 463 0 l 1,10,-1
 80 0 l 1,11,-1
 80 630 l 1,0,-1
139 761 m 0,12,13
 139 780 139 780 154 795 c 128,-1,14
 169 810 169 810 189 810 c 256,15,16
 209 810 209 810 224 795 c 128,-1,17
 239 780 239 780 239 761 c 0,18,19
 239 741 239 741 224 725.5 c 128,-1,20
 209 710 209 710 189 710 c 256,21,22
 169 710 169 710 154 725.5 c 128,-1,23
 139 741 139 741 139 761 c 0,12,13
305 761 m 0,24,25
 305 780 305 780 320 795 c 128,-1,26
 335 810 335 810 355 810 c 256,27,28
 375 810 375 810 390 795 c 128,-1,29
 405 780 405 780 405 761 c 0,30,31
 405 741 405 741 390 725.5 c 128,-1,32
 375 710 375 710 355 710 c 256,33,34
 335 710 335 710 320 725.5 c 128,-1,35
 305 741 305 741 305 761 c 0,24,25
EndSplineSet
EndChar

StartChar: Igrave
Encoding: 204 204 160
Width: 252
GlyphClass: 2
Flags: W
LayerCount: 2
Fore
SplineSet
172 630 m 1,0,-1
 172 0 l 1,1,-1
 80 0 l 1,2,-1
 80 630 l 1,3,-1
 172 630 l 1,0,-1
-21 834 m 1,4,-1
 82 834 l 1,5,-1
 162 710 l 1,6,-1
 90 710 l 1,7,-1
 -21 834 l 1,4,-1
EndSplineSet
EndChar

StartChar: Iacute
Encoding: 205 205 161
Width: 252
GlyphClass: 2
Flags: W
LayerCount: 2
Fore
SplineSet
172 630 m 1,0,-1
 172 0 l 1,1,-1
 80 0 l 1,2,-1
 80 630 l 1,3,-1
 172 630 l 1,0,-1
161 710 m 1,4,-1
 89 710 l 1,5,-1
 169 834 l 1,6,-1
 272 834 l 1,7,-1
 161 710 l 1,4,-1
EndSplineSet
EndChar

StartChar: Icircumflex
Encoding: 206 206 162
Width: 252
GlyphClass: 2
Flags: W
LayerCount: 2
Fore
SplineSet
172 630 m 1,0,-1
 172 0 l 1,1,-1
 80 0 l 1,2,-1
 80 630 l 1,3,-1
 172 630 l 1,0,-1
91 844 m 1,4,-1
 160 844 l 1,5,-1
 285 710 l 1,6,-1
 205 710 l 1,7,-1
 125 794 l 1,8,-1
 45 710 l 1,9,-1
 -31 710 l 1,10,-1
 91 844 l 1,4,-1
EndSplineSet
EndChar

StartChar: Idieresis
Encoding: 207 207 163
Width: 252
GlyphClass: 2
Flags: W
LayerCount: 2
Fore
SplineSet
172 630 m 1,0,-1
 172 0 l 1,1,-1
 80 0 l 1,2,-1
 80 630 l 1,3,-1
 172 630 l 1,0,-1
-9 761 m 0,4,5
 -9 780 -9 780 6 795 c 128,-1,6
 21 810 21 810 41 810 c 256,7,8
 61 810 61 810 76 795 c 128,-1,9
 91 780 91 780 91 761 c 0,10,11
 91 741 91 741 76 725.5 c 128,-1,12
 61 710 61 710 41 710 c 256,13,14
 21 710 21 710 6 725.5 c 128,-1,15
 -9 741 -9 741 -9 761 c 0,4,5
157 761 m 0,16,17
 157 780 157 780 172 795 c 128,-1,18
 187 810 187 810 207 810 c 256,19,20
 227 810 227 810 242 795 c 128,-1,21
 257 780 257 780 257 761 c 0,22,23
 257 741 257 741 242 725.5 c 128,-1,24
 227 710 227 710 207 710 c 256,25,26
 187 710 187 710 172 725.5 c 128,-1,27
 157 741 157 741 157 761 c 0,16,17
EndSplineSet
EndChar

StartChar: Eth
Encoding: 208 208 164
Width: 672
GlyphClass: 2
Flags: W
LayerCount: 2
Fore
SplineSet
315 630 m 2,0,1
 382 630 382 630 439 611 c 128,-1,2
 496 592 496 592 537.5 554.5 c 128,-1,3
 579 517 579 517 602.5 460.5 c 128,-1,4
 626 404 626 404 626 329 c 0,5,6
 626 238 626 238 598 175 c 128,-1,7
 570 112 570 112 522.5 73 c 128,-1,8
 475 34 475 34 412.5 17 c 128,-1,9
 350 0 350 0 280 0 c 2,10,-1
 110 0 l 1,11,-1
 110 298 l 1,12,-1
 30 298 l 1,13,-1
 30 360 l 1,14,-1
 110 360 l 1,15,-1
 110 630 l 1,16,-1
 315 630 l 2,0,1
330 360 m 1,17,-1
 330 298 l 1,18,-1
 202 298 l 1,19,-1
 202 76 l 1,20,-1
 271 76 l 2,21,22
 319 76 319 76 365 86.5 c 128,-1,23
 411 97 411 97 446.5 125.5 c 128,-1,24
 482 154 482 154 504 203 c 128,-1,25
 526 252 526 252 526 329 c 0,26,27
 526 383 526 383 510 425 c 128,-1,28
 494 467 494 467 464 495.5 c 128,-1,29
 434 524 434 524 391.5 539 c 128,-1,30
 349 554 349 554 297 554 c 2,31,-1
 202 554 l 1,32,-1
 202 360 l 1,33,-1
 330 360 l 1,17,-1
EndSplineSet
EndChar

StartChar: Ntilde
Encoding: 209 209 165
Width: 662
GlyphClass: 2
Flags: W
LayerCount: 2
Fore
SplineSet
80 630 m 1,0,-1
 220 630 l 1,1,-1
 431 216 l 1,2,-1
 491 86 l 1,3,-1
 494 86 l 1,4,-1
 493 236 l 1,5,-1
 493 630 l 1,6,-1
 583 630 l 1,7,-1
 583 0 l 1,8,-1
 443 0 l 1,9,-1
 239 396 l 1,10,-1
 172 549 l 1,11,-1
 169 549 l 1,12,-1
 170 376 l 1,13,-1
 170 0 l 1,14,-1
 80 0 l 1,15,-1
 80 630 l 1,0,-1
198 710 m 1,16,17
 198 756 198 756 218.5 788 c 128,-1,18
 239 820 239 820 285 820 c 0,19,20
 306 820 306 820 322.5 813 c 128,-1,21
 339 806 339 806 353.5 798 c 128,-1,22
 368 790 368 790 382 783 c 128,-1,23
 396 776 396 776 412 776 c 0,24,25
 432 776 432 776 440.5 791 c 128,-1,26
 449 806 449 806 451 823 c 1,27,-1
 501 823 l 1,28,29
 501 802 501 802 496 782.5 c 128,-1,30
 491 763 491 763 480.5 747.5 c 128,-1,31
 470 732 470 732 454.5 722.5 c 128,-1,32
 439 713 439 713 418 713 c 256,33,34
 397 713 397 713 378.5 719.5 c 128,-1,35
 360 726 360 726 344 734.5 c 128,-1,36
 328 743 328 743 314 749.5 c 128,-1,37
 300 756 300 756 288 756 c 0,38,39
 267 756 267 756 258.5 743 c 128,-1,40
 250 730 250 730 248 710 c 1,41,-1
 198 710 l 1,16,17
EndSplineSet
EndChar

StartChar: Ograve
Encoding: 210 210 166
Width: 686
GlyphClass: 2
Flags: W
LayerCount: 2
Fore
SplineSet
345 639 m 256,0,1
 409 639 409 639 463 618.5 c 128,-1,2
 517 598 517 598 556.5 557.5 c 128,-1,3
 596 517 596 517 618 456.5 c 128,-1,4
 640 396 640 396 640 315 c 0,5,6
 640 236 640 236 617 175.5 c 128,-1,7
 594 115 594 115 554 74 c 128,-1,8
 514 33 514 33 459.5 12 c 128,-1,9
 405 -9 405 -9 341 -9 c 256,10,11
 277 -9 277 -9 223 11.5 c 128,-1,12
 169 32 169 32 129.5 72.5 c 128,-1,13
 90 113 90 113 68 173.5 c 128,-1,14
 46 234 46 234 46 315 c 0,15,16
 46 394 46 394 69 454.5 c 128,-1,17
 92 515 92 515 132 556 c 128,-1,18
 172 597 172 597 226.5 618 c 128,-1,19
 281 639 281 639 345 639 c 256,0,1
146 315 m 256,20,21
 146 251 146 251 161.5 204 c 128,-1,22
 177 157 177 157 204 126 c 128,-1,23
 231 95 231 95 267.5 80 c 128,-1,24
 304 65 304 65 345 65 c 256,25,26
 386 65 386 65 421.5 80 c 128,-1,27
 457 95 457 95 483.5 126 c 128,-1,28
 510 157 510 157 525 204 c 128,-1,29
 540 251 540 251 540 315 c 0,30,31
 540 381 540 381 524.5 428 c 128,-1,32
 509 475 509 475 482 505.5 c 128,-1,33
 455 536 455 536 418.5 550.5 c 128,-1,34
 382 565 382 565 341 565 c 256,35,36
 300 565 300 565 264 550 c 128,-1,37
 228 535 228 535 202 504 c 128,-1,38
 176 473 176 473 161 426 c 128,-1,39
 146 379 146 379 146 315 c 256,20,21
230 834 m 1,40,-1
 333 834 l 1,41,-1
 413 710 l 1,42,-1
 341 710 l 1,43,-1
 230 834 l 1,40,-1
EndSplineSet
EndChar

StartChar: Oacute
Encoding: 211 211 167
Width: 686
GlyphClass: 2
Flags: W
LayerCount: 2
Fore
SplineSet
345 639 m 256,0,1
 409 639 409 639 463 618.5 c 128,-1,2
 517 598 517 598 556.5 557.5 c 128,-1,3
 596 517 596 517 618 456.5 c 128,-1,4
 640 396 640 396 640 315 c 0,5,6
 640 236 640 236 617 175.5 c 128,-1,7
 594 115 594 115 554 74 c 128,-1,8
 514 33 514 33 459.5 12 c 128,-1,9
 405 -9 405 -9 341 -9 c 256,10,11
 277 -9 277 -9 223 11.5 c 128,-1,12
 169 32 169 32 129.5 72.5 c 128,-1,13
 90 113 90 113 68 173.5 c 128,-1,14
 46 234 46 234 46 315 c 0,15,16
 46 394 46 394 69 454.5 c 128,-1,17
 92 515 92 515 132 556 c 128,-1,18
 172 597 172 597 226.5 618 c 128,-1,19
 281 639 281 639 345 639 c 256,0,1
146 315 m 256,20,21
 146 251 146 251 161.5 204 c 128,-1,22
 177 157 177 157 204 126 c 128,-1,23
 231 95 231 95 267.5 80 c 128,-1,24
 304 65 304 65 345 65 c 256,25,26
 386 65 386 65 421.5 80 c 128,-1,27
 457 95 457 95 483.5 126 c 128,-1,28
 510 157 510 157 525 204 c 128,-1,29
 540 251 540 251 540 315 c 0,30,31
 540 381 540 381 524.5 428 c 128,-1,32
 509 475 509 475 482 505.5 c 128,-1,33
 455 536 455 536 418.5 550.5 c 128,-1,34
 382 565 382 565 341 565 c 256,35,36
 300 565 300 565 264 550 c 128,-1,37
 228 535 228 535 202 504 c 128,-1,38
 176 473 176 473 161 426 c 128,-1,39
 146 379 146 379 146 315 c 256,20,21
334 710 m 1,40,-1
 262 710 l 1,41,-1
 342 834 l 1,42,-1
 445 834 l 1,43,-1
 334 710 l 1,40,-1
EndSplineSet
EndChar

StartChar: Ocircumflex
Encoding: 212 212 168
Width: 686
GlyphClass: 2
Flags: W
LayerCount: 2
Fore
SplineSet
345 639 m 256,0,1
 409 639 409 639 463 618.5 c 128,-1,2
 517 598 517 598 556.5 557.5 c 128,-1,3
 596 517 596 517 618 456.5 c 128,-1,4
 640 396 640 396 640 315 c 0,5,6
 640 236 640 236 617 175.5 c 128,-1,7
 594 115 594 115 554 74 c 128,-1,8
 514 33 514 33 459.5 12 c 128,-1,9
 405 -9 405 -9 341 -9 c 256,10,11
 277 -9 277 -9 223 11.5 c 128,-1,12
 169 32 169 32 129.5 72.5 c 128,-1,13
 90 113 90 113 68 173.5 c 128,-1,14
 46 234 46 234 46 315 c 0,15,16
 46 394 46 394 69 454.5 c 128,-1,17
 92 515 92 515 132 556 c 128,-1,18
 172 597 172 597 226.5 618 c 128,-1,19
 281 639 281 639 345 639 c 256,0,1
146 315 m 256,20,21
 146 251 146 251 161.5 204 c 128,-1,22
 177 157 177 157 204 126 c 128,-1,23
 231 95 231 95 267.5 80 c 128,-1,24
 304 65 304 65 345 65 c 256,25,26
 386 65 386 65 421.5 80 c 128,-1,27
 457 95 457 95 483.5 126 c 128,-1,28
 510 157 510 157 525 204 c 128,-1,29
 540 251 540 251 540 315 c 0,30,31
 540 381 540 381 524.5 428 c 128,-1,32
 509 475 509 475 482 505.5 c 128,-1,33
 455 536 455 536 418.5 550.5 c 128,-1,34
 382 565 382 565 341 565 c 256,35,36
 300 565 300 565 264 550 c 128,-1,37
 228 535 228 535 202 504 c 128,-1,38
 176 473 176 473 161 426 c 128,-1,39
 146 379 146 379 146 315 c 256,20,21
309 844 m 1,40,-1
 378 844 l 1,41,-1
 503 710 l 1,42,-1
 423 710 l 1,43,-1
 343 794 l 1,44,-1
 263 710 l 1,45,-1
 187 710 l 1,46,-1
 309 844 l 1,40,-1
EndSplineSet
EndChar

StartChar: Otilde
Encoding: 213 213 169
Width: 686
GlyphClass: 2
Flags: W
LayerCount: 2
Fore
SplineSet
345 639 m 256,0,1
 409 639 409 639 463 618.5 c 128,-1,2
 517 598 517 598 556.5 557.5 c 128,-1,3
 596 517 596 517 618 456.5 c 128,-1,4
 640 396 640 396 640 315 c 0,5,6
 640 236 640 236 617 175.5 c 128,-1,7
 594 115 594 115 554 74 c 128,-1,8
 514 33 514 33 459.5 12 c 128,-1,9
 405 -9 405 -9 341 -9 c 256,10,11
 277 -9 277 -9 223 11.5 c 128,-1,12
 169 32 169 32 129.5 72.5 c 128,-1,13
 90 113 90 113 68 173.5 c 128,-1,14
 46 234 46 234 46 315 c 0,15,16
 46 394 46 394 69 454.5 c 128,-1,17
 92 515 92 515 132 556 c 128,-1,18
 172 597 172 597 226.5 618 c 128,-1,19
 281 639 281 639 345 639 c 256,0,1
146 315 m 256,20,21
 146 251 146 251 161.5 204 c 128,-1,22
 177 157 177 157 204 126 c 128,-1,23
 231 95 231 95 267.5 80 c 128,-1,24
 304 65 304 65 345 65 c 256,25,26
 386 65 386 65 421.5 80 c 128,-1,27
 457 95 457 95 483.5 126 c 128,-1,28
 510 157 510 157 525 204 c 128,-1,29
 540 251 540 251 540 315 c 0,30,31
 540 381 540 381 524.5 428 c 128,-1,32
 509 475 509 475 482 505.5 c 128,-1,33
 455 536 455 536 418.5 550.5 c 128,-1,34
 382 565 382 565 341 565 c 256,35,36
 300 565 300 565 264 550 c 128,-1,37
 228 535 228 535 202 504 c 128,-1,38
 176 473 176 473 161 426 c 128,-1,39
 146 379 146 379 146 315 c 256,20,21
187 711 m 1,40,41
 187 757 187 757 207.5 789 c 128,-1,42
 228 821 228 821 274 821 c 0,43,44
 295 821 295 821 311.5 814 c 128,-1,45
 328 807 328 807 342.5 799 c 128,-1,46
 357 791 357 791 371 784 c 128,-1,47
 385 777 385 777 401 777 c 0,48,49
 421 777 421 777 429.5 792 c 128,-1,50
 438 807 438 807 440 824 c 1,51,-1
 490 824 l 1,52,53
 490 803 490 803 485 783.5 c 128,-1,54
 480 764 480 764 469.5 748.5 c 128,-1,55
 459 733 459 733 443.5 723.5 c 128,-1,56
 428 714 428 714 407 714 c 256,57,58
 386 714 386 714 367.5 720.5 c 128,-1,59
 349 727 349 727 333 735.5 c 128,-1,60
 317 744 317 744 303 750.5 c 128,-1,61
 289 757 289 757 277 757 c 0,62,63
 256 757 256 757 247.5 744 c 128,-1,64
 239 731 239 731 237 711 c 1,65,-1
 187 711 l 1,40,41
EndSplineSet
EndChar

StartChar: Odieresis
Encoding: 214 214 170
Width: 686
GlyphClass: 2
Flags: W
LayerCount: 2
Fore
SplineSet
345 639 m 256,0,1
 409 639 409 639 463 618.5 c 128,-1,2
 517 598 517 598 556.5 557.5 c 128,-1,3
 596 517 596 517 618 456.5 c 128,-1,4
 640 396 640 396 640 315 c 0,5,6
 640 236 640 236 617 175.5 c 128,-1,7
 594 115 594 115 554 74 c 128,-1,8
 514 33 514 33 459.5 12 c 128,-1,9
 405 -9 405 -9 341 -9 c 256,10,11
 277 -9 277 -9 223 11.5 c 128,-1,12
 169 32 169 32 129.5 72.5 c 128,-1,13
 90 113 90 113 68 173.5 c 128,-1,14
 46 234 46 234 46 315 c 0,15,16
 46 394 46 394 69 454.5 c 128,-1,17
 92 515 92 515 132 556 c 128,-1,18
 172 597 172 597 226.5 618 c 128,-1,19
 281 639 281 639 345 639 c 256,0,1
146 315 m 256,20,21
 146 251 146 251 161.5 204 c 128,-1,22
 177 157 177 157 204 126 c 128,-1,23
 231 95 231 95 267.5 80 c 128,-1,24
 304 65 304 65 345 65 c 256,25,26
 386 65 386 65 421.5 80 c 128,-1,27
 457 95 457 95 483.5 126 c 128,-1,28
 510 157 510 157 525 204 c 128,-1,29
 540 251 540 251 540 315 c 0,30,31
 540 381 540 381 524.5 428 c 128,-1,32
 509 475 509 475 482 505.5 c 128,-1,33
 455 536 455 536 418.5 550.5 c 128,-1,34
 382 565 382 565 341 565 c 256,35,36
 300 565 300 565 264 550 c 128,-1,37
 228 535 228 535 202 504 c 128,-1,38
 176 473 176 473 161 426 c 128,-1,39
 146 379 146 379 146 315 c 256,20,21
209 761 m 0,40,41
 209 780 209 780 224 795 c 128,-1,42
 239 810 239 810 259 810 c 256,43,44
 279 810 279 810 294 795 c 128,-1,45
 309 780 309 780 309 761 c 0,46,47
 309 741 309 741 294 725.5 c 128,-1,48
 279 710 279 710 259 710 c 256,49,50
 239 710 239 710 224 725.5 c 128,-1,51
 209 741 209 741 209 761 c 0,40,41
375 761 m 0,52,53
 375 780 375 780 390 795 c 128,-1,54
 405 810 405 810 425 810 c 256,55,56
 445 810 445 810 460 795 c 128,-1,57
 475 780 475 780 475 761 c 0,58,59
 475 741 475 741 460 725.5 c 128,-1,60
 445 710 445 710 425 710 c 256,61,62
 405 710 405 710 390 725.5 c 128,-1,63
 375 741 375 741 375 761 c 0,52,53
EndSplineSet
EndChar

StartChar: Oslash
Encoding: 216 216 171
Width: 686
GlyphClass: 2
Flags: W
LayerCount: 2
Fore
SplineSet
500 748 m 1,0,-1
 540 734 l 1,1,-1
 490 607 l 1,2,3
 558 571 558 571 599 499 c 128,-1,4
 640 427 640 427 640 315 c 0,5,6
 640 236 640 236 617 175.5 c 128,-1,7
 594 115 594 115 554 74 c 128,-1,8
 514 33 514 33 459.5 12 c 128,-1,9
 405 -9 405 -9 341 -9 c 0,10,11
 315 -9 315 -9 289 -5 c 128,-1,12
 263 -1 263 -1 240 5 c 1,13,-1
 178 -152 l 1,14,-1
 138 -135 l 1,15,-1
 199 21 l 1,16,17
 130 58 130 58 88 129.5 c 128,-1,18
 46 201 46 201 46 315 c 0,19,20
 46 394 46 394 69 454.5 c 128,-1,21
 92 515 92 515 132 556 c 128,-1,22
 172 597 172 597 226.5 618 c 128,-1,23
 281 639 281 639 345 639 c 0,24,25
 371 639 371 639 398.5 635 c 128,-1,26
 426 631 426 631 450 622 c 1,27,-1
 500 748 l 1,0,-1
146 315 m 0,28,29
 146 234 146 234 170 180.5 c 128,-1,30
 194 127 194 127 235 98 c 1,31,-1
 416 551 l 1,32,33
 380 565 380 565 341 565 c 0,34,35
 300 565 300 565 264 550 c 128,-1,36
 228 535 228 535 202 504 c 128,-1,37
 176 473 176 473 161 426 c 128,-1,38
 146 379 146 379 146 315 c 0,28,29
345 65 m 0,39,40
 386 65 386 65 421.5 80 c 128,-1,41
 457 95 457 95 483.5 126 c 128,-1,42
 510 157 510 157 525 204 c 128,-1,43
 540 251 540 251 540 315 c 0,44,45
 540 396 540 396 516.5 449 c 128,-1,46
 493 502 493 502 454 531 c 1,47,-1
 274 77 l 1,48,49
 307 65 307 65 345 65 c 0,39,40
EndSplineSet
EndChar

StartChar: Ugrave
Encoding: 217 217 172
Width: 640
GlyphClass: 2
Flags: W
LayerCount: 2
Fore
SplineSet
72 630 m 1,0,-1
 164 630 l 1,1,-1
 164 253 l 2,2,3
 164 152 164 152 201 109 c 128,-1,4
 238 66 238 66 320 66 c 0,5,6
 401 66 401 66 438.5 114 c 128,-1,7
 476 162 476 162 476 241 c 2,8,-1
 476 630 l 1,9,-1
 568 630 l 1,10,-1
 568 244 l 2,11,12
 568 115 568 115 502 53 c 128,-1,13
 436 -9 436 -9 320 -9 c 0,14,15
 203 -9 203 -9 137.5 52.5 c 128,-1,16
 72 114 72 114 72 249 c 2,17,-1
 72 630 l 1,0,-1
190 834 m 1,18,-1
 293 834 l 1,19,-1
 373 710 l 1,20,-1
 301 710 l 1,21,-1
 190 834 l 1,18,-1
EndSplineSet
EndChar

StartChar: Uacute
Encoding: 218 218 173
Width: 640
GlyphClass: 2
Flags: W
LayerCount: 2
Fore
SplineSet
72 630 m 1,0,-1
 164 630 l 1,1,-1
 164 253 l 2,2,3
 164 152 164 152 201 109 c 128,-1,4
 238 66 238 66 320 66 c 0,5,6
 401 66 401 66 438.5 114 c 128,-1,7
 476 162 476 162 476 241 c 2,8,-1
 476 630 l 1,9,-1
 568 630 l 1,10,-1
 568 244 l 2,11,12
 568 115 568 115 502 53 c 128,-1,13
 436 -9 436 -9 320 -9 c 0,14,15
 203 -9 203 -9 137.5 52.5 c 128,-1,16
 72 114 72 114 72 249 c 2,17,-1
 72 630 l 1,0,-1
324 710 m 1,18,-1
 252 710 l 1,19,-1
 332 834 l 1,20,-1
 435 834 l 1,21,-1
 324 710 l 1,18,-1
EndSplineSet
EndChar

StartChar: Ucircumflex
Encoding: 219 219 174
Width: 640
GlyphClass: 2
Flags: W
LayerCount: 2
Fore
SplineSet
72 630 m 1,0,-1
 164 630 l 1,1,-1
 164 253 l 2,2,3
 164 152 164 152 201 109 c 128,-1,4
 238 66 238 66 320 66 c 0,5,6
 401 66 401 66 438.5 114 c 128,-1,7
 476 162 476 162 476 241 c 2,8,-1
 476 630 l 1,9,-1
 568 630 l 1,10,-1
 568 244 l 2,11,12
 568 115 568 115 502 53 c 128,-1,13
 436 -9 436 -9 320 -9 c 0,14,15
 203 -9 203 -9 137.5 52.5 c 128,-1,16
 72 114 72 114 72 249 c 2,17,-1
 72 630 l 1,0,-1
286 844 m 1,18,-1
 355 844 l 1,19,-1
 480 710 l 1,20,-1
 400 710 l 1,21,-1
 320 794 l 1,22,-1
 240 710 l 1,23,-1
 164 710 l 1,24,-1
 286 844 l 1,18,-1
EndSplineSet
EndChar

StartChar: Udieresis
Encoding: 220 220 175
Width: 640
GlyphClass: 2
Flags: W
LayerCount: 2
Fore
SplineSet
72 630 m 1,0,-1
 164 630 l 1,1,-1
 164 253 l 2,2,3
 164 152 164 152 201 109 c 128,-1,4
 238 66 238 66 320 66 c 0,5,6
 401 66 401 66 438.5 114 c 128,-1,7
 476 162 476 162 476 241 c 2,8,-1
 476 630 l 1,9,-1
 568 630 l 1,10,-1
 568 244 l 2,11,12
 568 115 568 115 502 53 c 128,-1,13
 436 -9 436 -9 320 -9 c 0,14,15
 203 -9 203 -9 137.5 52.5 c 128,-1,16
 72 114 72 114 72 249 c 2,17,-1
 72 630 l 1,0,-1
187 761 m 0,18,19
 187 780 187 780 202 795 c 128,-1,20
 217 810 217 810 237 810 c 256,21,22
 257 810 257 810 272 795 c 128,-1,23
 287 780 287 780 287 761 c 0,24,25
 287 741 287 741 272 725.5 c 128,-1,26
 257 710 257 710 237 710 c 256,27,28
 217 710 217 710 202 725.5 c 128,-1,29
 187 741 187 741 187 761 c 0,18,19
353 761 m 0,30,31
 353 780 353 780 368 795 c 128,-1,32
 383 810 383 810 403 810 c 256,33,34
 423 810 423 810 438 795 c 128,-1,35
 453 780 453 780 453 761 c 0,36,37
 453 741 453 741 438 725.5 c 128,-1,38
 423 710 423 710 403 710 c 256,39,40
 383 710 383 710 368 725.5 c 128,-1,41
 353 741 353 741 353 761 c 0,30,31
EndSplineSet
EndChar

StartChar: Yacute
Encoding: 221 221 176
Width: 508
GlyphClass: 2
Flags: W
LayerCount: 2
Fore
SplineSet
99 630 m 1,0,-1
 256 348 l 1,1,-1
 414 630 l 1,2,-1
 511 630 l 1,3,-1
 298 264 l 1,4,-1
 298 0 l 1,5,-1
 206 0 l 1,6,-1
 206 264 l 1,7,-1
 -2 630 l 1,8,-1
 99 630 l 1,0,-1
294 710 m 1,9,-1
 222 710 l 1,10,-1
 302 834 l 1,11,-1
 405 834 l 1,12,-1
 294 710 l 1,9,-1
EndSplineSet
EndChar

StartChar: Thorn
Encoding: 222 222 177
Width: 515
GlyphClass: 2
Flags: W
LayerCount: 2
Fore
SplineSet
72 630 m 1,0,-1
 158 630 l 1,1,-1
 158 497 l 1,2,3
 178 503 178 503 200.5 506.5 c 128,-1,4
 223 510 223 510 248 510 c 0,5,6
 294 510 294 510 334.5 497 c 128,-1,7
 375 484 375 484 405 459.5 c 128,-1,8
 435 435 435 435 452 400 c 128,-1,9
 469 365 469 365 469 321 c 0,10,11
 469 268 469 268 451 228.5 c 128,-1,12
 433 189 433 189 400.5 163 c 128,-1,13
 368 137 368 137 324 124 c 128,-1,14
 280 111 280 111 229 111 c 0,15,16
 215 111 215 111 194.5 112.5 c 128,-1,17
 174 114 174 114 158 116 c 1,18,-1
 158 0 l 1,19,-1
 72 0 l 1,20,-1
 72 630 l 1,0,-1
158 189 m 1,21,22
 175 184 175 184 191.5 182.5 c 128,-1,23
 208 181 208 181 231 181 c 0,24,25
 298 181 298 181 338.5 215 c 128,-1,26
 379 249 379 249 379 312 c 0,27,28
 379 345 379 345 368 369 c 128,-1,29
 357 393 357 393 337.5 409 c 128,-1,30
 318 425 318 425 292.5 433 c 128,-1,31
 267 441 267 441 239 441 c 0,32,33
 216 441 216 441 194 438 c 128,-1,34
 172 435 172 435 158 430 c 1,35,-1
 158 189 l 1,21,22
EndSplineSet
EndChar

StartChar: germandbls
Encoding: 223 223 178
Width: 571
GlyphClass: 2
Flags: W
LayerCount: 2
Fore
SplineSet
74 0 m 1,0,-1
 74 480 l 2,1,2
 74 532 74 532 87 576.5 c 128,-1,3
 100 621 100 621 127.5 652.5 c 128,-1,4
 155 684 155 684 198.5 702 c 128,-1,5
 242 720 242 720 302 720 c 0,6,7
 337 720 337 720 370.5 709.5 c 128,-1,8
 404 699 404 699 430 679 c 128,-1,9
 456 659 456 659 472 628 c 128,-1,10
 488 597 488 597 488 557 c 0,11,12
 488 532 488 532 482 509 c 128,-1,13
 476 486 476 486 468 470 c 1,14,15
 415 458 415 458 392.5 437.5 c 128,-1,16
 370 417 370 417 370 383 c 0,17,18
 370 352 370 352 388.5 332 c 128,-1,19
 407 312 407 312 431 295 c 0,20,21
 470 267 470 267 498 232 c 128,-1,22
 526 197 526 197 526 143 c 0,23,24
 526 76 526 76 479 33.5 c 128,-1,25
 432 -9 432 -9 346 -9 c 0,26,27
 318 -9 318 -9 284.5 -3.5 c 128,-1,28
 251 2 251 2 232 12 c 1,29,-1
 252 77 l 1,30,31
 294 59 294 59 340 59 c 0,32,33
 388 59 388 59 413 82.5 c 128,-1,34
 438 106 438 106 438 141 c 0,35,36
 438 171 438 171 419 191.5 c 128,-1,37
 400 212 400 212 366 238 c 0,38,39
 347 253 347 253 332 267.5 c 128,-1,40
 317 282 317 282 306 299 c 128,-1,41
 295 316 295 316 289 335.5 c 128,-1,42
 283 355 283 355 283 380 c 0,43,44
 283 425 283 425 312 458.5 c 128,-1,45
 341 492 341 492 398 510 c 1,46,47
 402 519 402 519 403 529.5 c 128,-1,48
 404 540 404 540 404 555 c 0,49,50
 404 604 404 604 374 627 c 128,-1,51
 344 650 344 650 299 650 c 0,52,53
 267 650 267 650 241.5 640.5 c 128,-1,54
 216 631 216 631 198 609.5 c 128,-1,55
 180 588 180 588 170 552.5 c 128,-1,56
 160 517 160 517 160 466 c 2,57,-1
 160 0 l 1,58,-1
 74 0 l 1,0,-1
EndSplineSet
EndChar

StartChar: agrave
Encoding: 224 224 179
Width: 489
GlyphClass: 2
Flags: W
LayerCount: 2
Fore
SplineSet
73 428 m 1,0,1
 97 440 97 440 118 449.5 c 128,-1,2
 139 459 139 459 160 465 c 128,-1,3
 181 471 181 471 203 474 c 128,-1,4
 225 477 225 477 251 477 c 0,5,6
 290 477 290 477 322.5 468.5 c 128,-1,7
 355 460 355 460 378.5 440 c 128,-1,8
 402 420 402 420 415 387.5 c 128,-1,9
 428 355 428 355 428 306 c 2,10,-1
 428 0 l 1,11,-1
 355 0 l 1,12,-1
 344 52 l 1,13,-1
 342 52 l 1,14,15
 311 19 311 19 274 5 c 128,-1,16
 237 -9 237 -9 192 -9 c 0,17,18
 158 -9 158 -9 129.5 0.5 c 128,-1,19
 101 10 101 10 80 27.5 c 128,-1,20
 59 45 59 45 47.5 70 c 128,-1,21
 36 95 36 95 36 126 c 0,22,23
 36 200 36 200 94.5 238.5 c 128,-1,24
 153 277 153 277 249 277 c 2,25,-1
 339 277 l 1,26,-1
 339 317 l 2,27,28
 339 368 339 368 313 386.5 c 128,-1,29
 287 405 287 405 243 405 c 0,30,31
 217 405 217 405 183.5 396.5 c 128,-1,32
 150 388 150 388 107 364 c 1,33,-1
 73 428 l 1,0,1
340 217 m 1,34,-1
 266 215 l 2,35,36
 191 213 191 213 159.5 188.5 c 128,-1,37
 128 164 128 164 128 129 c 0,38,39
 128 108 128 108 135 93.5 c 128,-1,40
 142 79 142 79 153.5 71 c 128,-1,41
 165 63 165 63 180.5 59.5 c 128,-1,42
 196 56 196 56 213 56 c 0,43,44
 246 56 246 56 280 71.5 c 128,-1,45
 314 87 314 87 340 121 c 1,46,-1
 340 217 l 1,34,-1
130 690 m 1,47,-1
 233 690 l 1,48,-1
 303 556 l 1,49,-1
 231 556 l 1,50,-1
 130 690 l 1,47,-1
EndSplineSet
EndChar

StartChar: aacute
Encoding: 225 225 180
Width: 489
GlyphClass: 2
Flags: W
LayerCount: 2
Fore
SplineSet
73 428 m 1,0,1
 97 440 97 440 118 449.5 c 128,-1,2
 139 459 139 459 160 465 c 128,-1,3
 181 471 181 471 203 474 c 128,-1,4
 225 477 225 477 251 477 c 0,5,6
 290 477 290 477 322.5 468.5 c 128,-1,7
 355 460 355 460 378.5 440 c 128,-1,8
 402 420 402 420 415 387.5 c 128,-1,9
 428 355 428 355 428 306 c 2,10,-1
 428 0 l 1,11,-1
 355 0 l 1,12,-1
 344 52 l 1,13,-1
 342 52 l 1,14,15
 311 19 311 19 274 5 c 128,-1,16
 237 -9 237 -9 192 -9 c 0,17,18
 158 -9 158 -9 129.5 0.5 c 128,-1,19
 101 10 101 10 80 27.5 c 128,-1,20
 59 45 59 45 47.5 70 c 128,-1,21
 36 95 36 95 36 126 c 0,22,23
 36 200 36 200 94.5 238.5 c 128,-1,24
 153 277 153 277 249 277 c 2,25,-1
 339 277 l 1,26,-1
 339 317 l 2,27,28
 339 368 339 368 313 386.5 c 128,-1,29
 287 405 287 405 243 405 c 0,30,31
 217 405 217 405 183.5 396.5 c 128,-1,32
 150 388 150 388 107 364 c 1,33,-1
 73 428 l 1,0,1
340 217 m 1,34,-1
 266 215 l 2,35,36
 191 213 191 213 159.5 188.5 c 128,-1,37
 128 164 128 164 128 129 c 0,38,39
 128 108 128 108 135 93.5 c 128,-1,40
 142 79 142 79 153.5 71 c 128,-1,41
 165 63 165 63 180.5 59.5 c 128,-1,42
 196 56 196 56 213 56 c 0,43,44
 246 56 246 56 280 71.5 c 128,-1,45
 314 87 314 87 340 121 c 1,46,-1
 340 217 l 1,34,-1
271 556 m 1,47,-1
 199 556 l 1,48,-1
 269 690 l 1,49,-1
 372 690 l 1,50,-1
 271 556 l 1,47,-1
EndSplineSet
EndChar

StartChar: acircumflex
Encoding: 226 226 181
Width: 489
GlyphClass: 2
Flags: W
LayerCount: 2
Fore
SplineSet
73 428 m 1,0,1
 97 440 97 440 118 449.5 c 128,-1,2
 139 459 139 459 160 465 c 128,-1,3
 181 471 181 471 203 474 c 128,-1,4
 225 477 225 477 251 477 c 0,5,6
 290 477 290 477 322.5 468.5 c 128,-1,7
 355 460 355 460 378.5 440 c 128,-1,8
 402 420 402 420 415 387.5 c 128,-1,9
 428 355 428 355 428 306 c 2,10,-1
 428 0 l 1,11,-1
 355 0 l 1,12,-1
 344 52 l 1,13,-1
 342 52 l 1,14,15
 311 19 311 19 274 5 c 128,-1,16
 237 -9 237 -9 192 -9 c 0,17,18
 158 -9 158 -9 129.5 0.5 c 128,-1,19
 101 10 101 10 80 27.5 c 128,-1,20
 59 45 59 45 47.5 70 c 128,-1,21
 36 95 36 95 36 126 c 0,22,23
 36 200 36 200 94.5 238.5 c 128,-1,24
 153 277 153 277 249 277 c 2,25,-1
 339 277 l 1,26,-1
 339 317 l 2,27,28
 339 368 339 368 313 386.5 c 128,-1,29
 287 405 287 405 243 405 c 0,30,31
 217 405 217 405 183.5 396.5 c 128,-1,32
 150 388 150 388 107 364 c 1,33,-1
 73 428 l 1,0,1
340 217 m 1,34,-1
 266 215 l 2,35,36
 191 213 191 213 159.5 188.5 c 128,-1,37
 128 164 128 164 128 129 c 0,38,39
 128 108 128 108 135 93.5 c 128,-1,40
 142 79 142 79 153.5 71 c 128,-1,41
 165 63 165 63 180.5 59.5 c 128,-1,42
 196 56 196 56 213 56 c 0,43,44
 246 56 246 56 280 71.5 c 128,-1,45
 314 87 314 87 340 121 c 1,46,-1
 340 217 l 1,34,-1
398 556 m 1,47,-1
 322 556 l 1,48,-1
 252 640 l 1,49,-1
 182 556 l 1,50,-1
 102 556 l 1,51,-1
 217 690 l 1,52,-1
 286 690 l 1,53,-1
 398 556 l 1,47,-1
EndSplineSet
EndChar

StartChar: atilde
Encoding: 227 227 182
Width: 489
GlyphClass: 2
Flags: W
LayerCount: 2
Fore
SplineSet
73 428 m 1,0,1
 97 440 97 440 118 449.5 c 128,-1,2
 139 459 139 459 160 465 c 128,-1,3
 181 471 181 471 203 474 c 128,-1,4
 225 477 225 477 251 477 c 0,5,6
 290 477 290 477 322.5 468.5 c 128,-1,7
 355 460 355 460 378.5 440 c 128,-1,8
 402 420 402 420 415 387.5 c 128,-1,9
 428 355 428 355 428 306 c 2,10,-1
 428 0 l 1,11,-1
 355 0 l 1,12,-1
 344 52 l 1,13,-1
 342 52 l 1,14,15
 311 19 311 19 274 5 c 128,-1,16
 237 -9 237 -9 192 -9 c 0,17,18
 158 -9 158 -9 129.5 0.5 c 128,-1,19
 101 10 101 10 80 27.5 c 128,-1,20
 59 45 59 45 47.5 70 c 128,-1,21
 36 95 36 95 36 126 c 0,22,23
 36 200 36 200 94.5 238.5 c 128,-1,24
 153 277 153 277 249 277 c 2,25,-1
 339 277 l 1,26,-1
 339 317 l 2,27,28
 339 368 339 368 313 386.5 c 128,-1,29
 287 405 287 405 243 405 c 0,30,31
 217 405 217 405 183.5 396.5 c 128,-1,32
 150 388 150 388 107 364 c 1,33,-1
 73 428 l 1,0,1
340 217 m 1,34,-1
 266 215 l 2,35,36
 191 213 191 213 159.5 188.5 c 128,-1,37
 128 164 128 164 128 129 c 0,38,39
 128 108 128 108 135 93.5 c 128,-1,40
 142 79 142 79 153.5 71 c 128,-1,41
 165 63 165 63 180.5 59.5 c 128,-1,42
 196 56 196 56 213 56 c 0,43,44
 246 56 246 56 280 71.5 c 128,-1,45
 314 87 314 87 340 121 c 1,46,-1
 340 217 l 1,34,-1
98 556 m 1,47,48
 98 602 98 602 118.5 634 c 128,-1,49
 139 666 139 666 185 666 c 0,50,51
 206 666 206 666 222.5 659 c 128,-1,52
 239 652 239 652 253.5 644 c 128,-1,53
 268 636 268 636 282 629 c 128,-1,54
 296 622 296 622 312 622 c 0,55,56
 332 622 332 622 340.5 637 c 128,-1,57
 349 652 349 652 351 669 c 1,58,-1
 401 669 l 1,59,60
 401 648 401 648 396 628.5 c 128,-1,61
 391 609 391 609 380.5 593.5 c 128,-1,62
 370 578 370 578 354.5 568.5 c 128,-1,63
 339 559 339 559 318 559 c 256,64,65
 297 559 297 559 278.5 565.5 c 128,-1,66
 260 572 260 572 244 580.5 c 128,-1,67
 228 589 228 589 214 595.5 c 128,-1,68
 200 602 200 602 188 602 c 0,69,70
 167 602 167 602 158.5 589 c 128,-1,71
 150 576 150 576 148 556 c 1,72,-1
 98 556 l 1,47,48
EndSplineSet
EndChar

StartChar: adieresis
Encoding: 228 228 183
Width: 489
GlyphClass: 2
Flags: W
LayerCount: 2
Fore
SplineSet
73 428 m 1,0,1
 97 440 97 440 118 449.5 c 128,-1,2
 139 459 139 459 160 465 c 128,-1,3
 181 471 181 471 203 474 c 128,-1,4
 225 477 225 477 251 477 c 0,5,6
 290 477 290 477 322.5 468.5 c 128,-1,7
 355 460 355 460 378.5 440 c 128,-1,8
 402 420 402 420 415 387.5 c 128,-1,9
 428 355 428 355 428 306 c 2,10,-1
 428 0 l 1,11,-1
 355 0 l 1,12,-1
 344 52 l 1,13,-1
 342 52 l 1,14,15
 311 19 311 19 274 5 c 128,-1,16
 237 -9 237 -9 192 -9 c 0,17,18
 158 -9 158 -9 129.5 0.5 c 128,-1,19
 101 10 101 10 80 27.5 c 128,-1,20
 59 45 59 45 47.5 70 c 128,-1,21
 36 95 36 95 36 126 c 0,22,23
 36 200 36 200 94.5 238.5 c 128,-1,24
 153 277 153 277 249 277 c 2,25,-1
 339 277 l 1,26,-1
 339 317 l 2,27,28
 339 368 339 368 313 386.5 c 128,-1,29
 287 405 287 405 243 405 c 0,30,31
 217 405 217 405 183.5 396.5 c 128,-1,32
 150 388 150 388 107 364 c 1,33,-1
 73 428 l 1,0,1
340 217 m 1,34,-1
 266 215 l 2,35,36
 191 213 191 213 159.5 188.5 c 128,-1,37
 128 164 128 164 128 129 c 0,38,39
 128 108 128 108 135 93.5 c 128,-1,40
 142 79 142 79 153.5 71 c 128,-1,41
 165 63 165 63 180.5 59.5 c 128,-1,42
 196 56 196 56 213 56 c 0,43,44
 246 56 246 56 280 71.5 c 128,-1,45
 314 87 314 87 340 121 c 1,46,-1
 340 217 l 1,34,-1
124 623 m 0,47,48
 124 642 124 642 139 657 c 128,-1,49
 154 672 154 672 174 672 c 256,50,51
 194 672 194 672 209 657 c 128,-1,52
 224 642 224 642 224 623 c 0,53,54
 224 603 224 603 209 587.5 c 128,-1,55
 194 572 194 572 174 572 c 256,56,57
 154 572 154 572 139 587.5 c 128,-1,58
 124 603 124 603 124 623 c 0,47,48
290 623 m 0,59,60
 290 642 290 642 305 657 c 128,-1,61
 320 672 320 672 340 672 c 256,62,63
 360 672 360 672 375 657 c 128,-1,64
 390 642 390 642 390 623 c 0,65,66
 390 603 390 603 375 587.5 c 128,-1,67
 360 572 360 572 340 572 c 256,68,69
 320 572 320 572 305 587.5 c 128,-1,70
 290 603 290 603 290 623 c 0,59,60
EndSplineSet
EndChar

StartChar: aring
Encoding: 229 229 184
Width: 489
GlyphClass: 2
Flags: W
LayerCount: 2
Fore
SplineSet
73 428 m 1,0,1
 97 440 97 440 118 449.5 c 128,-1,2
 139 459 139 459 160 465 c 128,-1,3
 181 471 181 471 203 474 c 128,-1,4
 225 477 225 477 251 477 c 0,5,6
 290 477 290 477 322.5 468.5 c 128,-1,7
 355 460 355 460 378.5 440 c 128,-1,8
 402 420 402 420 415 387.5 c 128,-1,9
 428 355 428 355 428 306 c 2,10,-1
 428 0 l 1,11,-1
 355 0 l 1,12,-1
 344 52 l 1,13,-1
 342 52 l 1,14,15
 311 19 311 19 274 5 c 128,-1,16
 237 -9 237 -9 192 -9 c 0,17,18
 158 -9 158 -9 129.5 0.5 c 128,-1,19
 101 10 101 10 80 27.5 c 128,-1,20
 59 45 59 45 47.5 70 c 128,-1,21
 36 95 36 95 36 126 c 0,22,23
 36 200 36 200 94.5 238.5 c 128,-1,24
 153 277 153 277 249 277 c 2,25,-1
 339 277 l 1,26,-1
 339 317 l 2,27,28
 339 368 339 368 313 386.5 c 128,-1,29
 287 405 287 405 243 405 c 0,30,31
 217 405 217 405 183.5 396.5 c 128,-1,32
 150 388 150 388 107 364 c 1,33,-1
 73 428 l 1,0,1
340 217 m 1,34,-1
 266 215 l 2,35,36
 191 213 191 213 159.5 188.5 c 128,-1,37
 128 164 128 164 128 129 c 0,38,39
 128 108 128 108 135 93.5 c 128,-1,40
 142 79 142 79 153.5 71 c 128,-1,41
 165 63 165 63 180.5 59.5 c 128,-1,42
 196 56 196 56 213 56 c 0,43,44
 246 56 246 56 280 71.5 c 128,-1,45
 314 87 314 87 340 121 c 1,46,-1
 340 217 l 1,34,-1
160 623 m 0,47,48
 160 665 160 665 188 685.5 c 128,-1,49
 216 706 216 706 253 706 c 0,50,51
 291 706 291 706 318.5 685.5 c 128,-1,52
 346 665 346 665 346 623 c 0,53,54
 346 602 346 602 338 586.5 c 128,-1,55
 330 571 330 571 317 560.5 c 128,-1,56
 304 550 304 550 287.5 545 c 128,-1,57
 271 540 271 540 253 540 c 0,58,59
 217 540 217 540 188.5 561.5 c 128,-1,60
 160 583 160 583 160 623 c 0,47,48
205 623 m 256,61,62
 205 600 205 600 217.5 586.5 c 128,-1,63
 230 573 230 573 253 573 c 256,64,65
 276 573 276 573 288.5 586.5 c 128,-1,66
 301 600 301 600 301 623 c 256,67,68
 301 646 301 646 288.5 659.5 c 128,-1,69
 276 673 276 673 253 673 c 256,70,71
 230 673 230 673 217.5 659.5 c 128,-1,72
 205 646 205 646 205 623 c 256,61,62
EndSplineSet
EndChar

StartChar: ae
Encoding: 230 230 185
Width: 785
GlyphClass: 2
Flags: W
LayerCount: 2
Fore
SplineSet
749 220 m 1,0,-1
 422 220 l 1,1,-1
 422 216 l 2,2,3
 422 138 422 138 462 98.5 c 128,-1,4
 502 59 502 59 575 59 c 0,5,6
 613 59 613 59 642.5 65 c 128,-1,7
 672 71 672 71 707 85 c 1,8,-1
 725 20 l 1,9,10
 696 7 696 7 656.5 -1 c 128,-1,11
 617 -9 617 -9 572 -9 c 0,12,13
 509 -9 509 -9 460 11 c 128,-1,14
 411 31 411 31 381 77 c 1,15,-1
 379 77 l 1,16,17
 347 35 347 35 304 13 c 128,-1,18
 261 -9 261 -9 195 -9 c 0,19,20
 161 -9 161 -9 132 0.5 c 128,-1,21
 103 10 103 10 81.5 27.5 c 128,-1,22
 60 45 60 45 48 70 c 128,-1,23
 36 95 36 95 36 126 c 0,24,25
 36 200 36 200 94.5 238.5 c 128,-1,26
 153 277 153 277 249 277 c 2,27,-1
 342 277 l 1,28,-1
 342 317 l 2,29,30
 342 368 342 368 314.5 386.5 c 128,-1,31
 287 405 287 405 243 405 c 0,32,33
 217 405 217 405 183.5 396.5 c 128,-1,34
 150 388 150 388 107 364 c 1,35,-1
 73 428 l 1,36,37
 97 440 97 440 118 449.5 c 128,-1,38
 139 459 139 459 160 465 c 128,-1,39
 181 471 181 471 203 474 c 128,-1,40
 225 477 225 477 251 477 c 0,41,42
 305 477 305 477 339.5 462 c 128,-1,43
 374 447 374 447 397 409 c 1,44,-1
 399 409 l 1,45,46
 431 447 431 447 470.5 462 c 128,-1,47
 510 477 510 477 556 477 c 256,48,49
 602 477 602 477 637.5 462 c 128,-1,50
 673 447 673 447 698 419.5 c 128,-1,51
 723 392 723 392 736 353 c 128,-1,52
 749 314 749 314 749 266 c 2,53,-1
 749 220 l 1,0,-1
128 129 m 0,54,55
 128 108 128 108 135 93.5 c 128,-1,56
 142 79 142 79 153.5 71 c 128,-1,57
 165 63 165 63 180.5 59.5 c 128,-1,58
 196 56 196 56 213 56 c 0,59,60
 255 56 255 56 291.5 74 c 128,-1,61
 328 92 328 92 354 132 c 1,62,63
 348 151 348 151 344.5 171.5 c 128,-1,64
 341 192 341 192 340 217 c 1,65,-1
 266 215 l 2,66,67
 191 213 191 213 159.5 188.5 c 128,-1,68
 128 164 128 164 128 129 c 0,54,55
658 280 m 1,69,70
 658 306 658 306 652.5 330 c 128,-1,71
 647 354 647 354 634 372.5 c 128,-1,72
 621 391 621 391 601 402 c 128,-1,73
 581 413 581 413 551 413 c 0,74,75
 496 413 496 413 462 377 c 128,-1,76
 428 341 428 341 423 279 c 1,77,-1
 658 280 l 1,69,70
EndSplineSet
EndChar

StartChar: ccedilla
Encoding: 231 231 186
Width: 442
GlyphClass: 2
Flags: W
LayerCount: 2
Fore
SplineSet
291 59 m 0,0,1
 323 59 323 59 347 66 c 128,-1,2
 371 73 371 73 394 84 c 1,3,-1
 413 18 l 1,4,5
 359 -9 359 -9 284 -9 c 1,6,-1
 264 -47 l 1,7,8
 309 -50 309 -50 330.5 -69 c 128,-1,9
 352 -88 352 -88 352 -117 c 0,10,11
 352 -138 352 -138 343 -153.5 c 128,-1,12
 334 -169 334 -169 318.5 -179.5 c 128,-1,13
 303 -190 303 -190 283 -195 c 128,-1,14
 263 -200 263 -200 241 -200 c 0,15,16
 218 -200 218 -200 198.5 -196.5 c 128,-1,17
 179 -193 179 -193 167 -188 c 1,18,-1
 179 -146 l 1,19,20
 192 -151 192 -151 206 -153 c 128,-1,21
 220 -155 220 -155 234 -155 c 0,22,23
 261 -155 261 -155 276.5 -146.5 c 128,-1,24
 292 -138 292 -138 292 -119 c 0,25,26
 292 -99 292 -99 272 -88.5 c 128,-1,27
 252 -78 252 -78 201 -78 c 1,28,-1
 236 -5 l 1,29,30
 194 1 194 1 157.5 19 c 128,-1,31
 121 37 121 37 95 67 c 128,-1,32
 69 97 69 97 54 138.5 c 128,-1,33
 39 180 39 180 39 234 c 0,34,35
 39 290 39 290 57 335 c 128,-1,36
 75 380 75 380 107 411.5 c 128,-1,37
 139 443 139 443 184 460 c 128,-1,38
 229 477 229 477 283 477 c 0,39,40
 314 477 314 477 343.5 472.5 c 128,-1,41
 373 468 373 468 411 451 c 1,42,-1
 391 384 l 1,43,44
 345 410 345 410 292 410 c 0,45,46
 219 410 219 410 174 364.5 c 128,-1,47
 129 319 129 319 129 237 c 0,48,49
 129 186 129 186 143 152 c 128,-1,50
 157 118 157 118 180 97.5 c 128,-1,51
 203 77 203 77 232 68 c 128,-1,52
 261 59 261 59 291 59 c 0,0,1
EndSplineSet
EndChar

StartChar: egrave
Encoding: 232 232 187
Width: 504
GlyphClass: 2
Flags: W
LayerCount: 2
Fore
SplineSet
468 225 m 1,0,-1
 131 225 l 1,1,-1
 131 221 l 2,2,3
 131 143 131 143 173.5 101 c 128,-1,4
 216 59 216 59 289 59 c 0,5,6
 327 59 327 59 356.5 65 c 128,-1,7
 386 71 386 71 421 85 c 1,8,-1
 439 20 l 1,9,10
 410 7 410 7 370.5 -1 c 128,-1,11
 331 -9 331 -9 286 -9 c 0,12,13
 235 -9 235 -9 190.5 5 c 128,-1,14
 146 19 146 19 112 48.5 c 128,-1,15
 78 78 78 78 58.5 124 c 128,-1,16
 39 170 39 170 39 234 c 0,17,18
 39 289 39 289 55.5 334 c 128,-1,19
 72 379 72 379 102 410.5 c 128,-1,20
 132 442 132 442 174.5 459.5 c 128,-1,21
 217 477 217 477 270 477 c 0,22,23
 315 477 315 477 351.5 462 c 128,-1,24
 388 447 388 447 414 420 c 128,-1,25
 440 393 440 393 454 355 c 128,-1,26
 468 317 468 317 468 271 c 2,27,-1
 468 225 l 1,0,-1
377 288 m 1,28,29
 377 314 377 314 370.5 336.5 c 128,-1,30
 364 359 364 359 350.5 376 c 128,-1,31
 337 393 337 393 316 403 c 128,-1,32
 295 413 295 413 265 413 c 0,33,34
 210 413 210 413 175.5 378 c 128,-1,35
 141 343 141 343 133 286 c 1,36,-1
 377 288 l 1,28,29
249 690 m 1,37,-1
 319 556 l 1,38,-1
 247 556 l 1,39,-1
 146 690 l 1,40,-1
 249 690 l 1,37,-1
EndSplineSet
EndChar

StartChar: eacute
Encoding: 233 233 188
Width: 504
GlyphClass: 2
Flags: W
LayerCount: 2
Fore
SplineSet
468 225 m 1,0,-1
 131 225 l 1,1,-1
 131 221 l 2,2,3
 131 143 131 143 173.5 101 c 128,-1,4
 216 59 216 59 289 59 c 0,5,6
 327 59 327 59 356.5 65 c 128,-1,7
 386 71 386 71 421 85 c 1,8,-1
 439 20 l 1,9,10
 410 7 410 7 370.5 -1 c 128,-1,11
 331 -9 331 -9 286 -9 c 0,12,13
 235 -9 235 -9 190.5 5 c 128,-1,14
 146 19 146 19 112 48.5 c 128,-1,15
 78 78 78 78 58.5 124 c 128,-1,16
 39 170 39 170 39 234 c 0,17,18
 39 289 39 289 55.5 334 c 128,-1,19
 72 379 72 379 102 410.5 c 128,-1,20
 132 442 132 442 174.5 459.5 c 128,-1,21
 217 477 217 477 270 477 c 0,22,23
 315 477 315 477 351.5 462 c 128,-1,24
 388 447 388 447 414 420 c 128,-1,25
 440 393 440 393 454 355 c 128,-1,26
 468 317 468 317 468 271 c 2,27,-1
 468 225 l 1,0,-1
377 288 m 1,28,29
 377 314 377 314 370.5 336.5 c 128,-1,30
 364 359 364 359 350.5 376 c 128,-1,31
 337 393 337 393 316 403 c 128,-1,32
 295 413 295 413 265 413 c 0,33,34
 210 413 210 413 175.5 378 c 128,-1,35
 141 343 141 343 133 286 c 1,36,-1
 377 288 l 1,28,29
385 690 m 1,37,-1
 284 556 l 1,38,-1
 212 556 l 1,39,-1
 282 690 l 1,40,-1
 385 690 l 1,37,-1
EndSplineSet
EndChar

StartChar: ecircumflex
Encoding: 234 234 189
Width: 504
GlyphClass: 2
Flags: W
LayerCount: 2
Fore
SplineSet
468 225 m 1,0,-1
 131 225 l 1,1,-1
 131 221 l 2,2,3
 131 143 131 143 173.5 101 c 128,-1,4
 216 59 216 59 289 59 c 0,5,6
 327 59 327 59 356.5 65 c 128,-1,7
 386 71 386 71 421 85 c 1,8,-1
 439 20 l 1,9,10
 410 7 410 7 370.5 -1 c 128,-1,11
 331 -9 331 -9 286 -9 c 0,12,13
 235 -9 235 -9 190.5 5 c 128,-1,14
 146 19 146 19 112 48.5 c 128,-1,15
 78 78 78 78 58.5 124 c 128,-1,16
 39 170 39 170 39 234 c 0,17,18
 39 289 39 289 55.5 334 c 128,-1,19
 72 379 72 379 102 410.5 c 128,-1,20
 132 442 132 442 174.5 459.5 c 128,-1,21
 217 477 217 477 270 477 c 0,22,23
 315 477 315 477 351.5 462 c 128,-1,24
 388 447 388 447 414 420 c 128,-1,25
 440 393 440 393 454 355 c 128,-1,26
 468 317 468 317 468 271 c 2,27,-1
 468 225 l 1,0,-1
377 288 m 1,28,29
 377 314 377 314 370.5 336.5 c 128,-1,30
 364 359 364 359 350.5 376 c 128,-1,31
 337 393 337 393 316 403 c 128,-1,32
 295 413 295 413 265 413 c 0,33,34
 210 413 210 413 175.5 378 c 128,-1,35
 141 343 141 343 133 286 c 1,36,-1
 377 288 l 1,28,29
335 556 m 1,37,-1
 265 640 l 1,38,-1
 195 556 l 1,39,-1
 115 556 l 1,40,-1
 230 690 l 1,41,-1
 299 690 l 1,42,-1
 411 556 l 1,43,-1
 335 556 l 1,37,-1
EndSplineSet
EndChar

StartChar: edieresis
Encoding: 235 235 190
Width: 504
GlyphClass: 2
Flags: W
LayerCount: 2
Fore
SplineSet
468 225 m 1,0,-1
 131 225 l 1,1,-1
 131 221 l 2,2,3
 131 143 131 143 173.5 101 c 128,-1,4
 216 59 216 59 289 59 c 0,5,6
 327 59 327 59 356.5 65 c 128,-1,7
 386 71 386 71 421 85 c 1,8,-1
 439 20 l 1,9,10
 410 7 410 7 370.5 -1 c 128,-1,11
 331 -9 331 -9 286 -9 c 0,12,13
 235 -9 235 -9 190.5 5 c 128,-1,14
 146 19 146 19 112 48.5 c 128,-1,15
 78 78 78 78 58.5 124 c 128,-1,16
 39 170 39 170 39 234 c 0,17,18
 39 289 39 289 55.5 334 c 128,-1,19
 72 379 72 379 102 410.5 c 128,-1,20
 132 442 132 442 174.5 459.5 c 128,-1,21
 217 477 217 477 270 477 c 0,22,23
 315 477 315 477 351.5 462 c 128,-1,24
 388 447 388 447 414 420 c 128,-1,25
 440 393 440 393 454 355 c 128,-1,26
 468 317 468 317 468 271 c 2,27,-1
 468 225 l 1,0,-1
377 288 m 1,28,29
 377 314 377 314 370.5 336.5 c 128,-1,30
 364 359 364 359 350.5 376 c 128,-1,31
 337 393 337 393 316 403 c 128,-1,32
 295 413 295 413 265 413 c 0,33,34
 210 413 210 413 175.5 378 c 128,-1,35
 141 343 141 343 133 286 c 1,36,-1
 377 288 l 1,28,29
134 623 m 0,37,38
 134 642 134 642 149 657 c 128,-1,39
 164 672 164 672 184 672 c 256,40,41
 204 672 204 672 219 657 c 128,-1,42
 234 642 234 642 234 623 c 0,43,44
 234 603 234 603 219 587.5 c 128,-1,45
 204 572 204 572 184 572 c 256,46,47
 164 572 164 572 149 587.5 c 128,-1,48
 134 603 134 603 134 623 c 0,37,38
300 623 m 0,49,50
 300 642 300 642 315 657 c 128,-1,51
 330 672 330 672 350 672 c 256,52,53
 370 672 370 672 385 657 c 128,-1,54
 400 642 400 642 400 623 c 0,55,56
 400 603 400 603 385 587.5 c 128,-1,57
 370 572 370 572 350 572 c 256,58,59
 330 572 330 572 315 587.5 c 128,-1,60
 300 603 300 603 300 623 c 0,49,50
EndSplineSet
EndChar

StartChar: igrave
Encoding: 236 236 191
Width: 248
GlyphClass: 2
Flags: W
LayerCount: 2
Fore
SplineSet
80 0 m 1,0,-1
 80 470 l 1,1,-1
 168 470 l 1,2,-1
 168 0 l 1,3,-1
 80 0 l 1,0,-1
-5 690 m 1,4,-1
 98 690 l 1,5,-1
 168 556 l 1,6,-1
 96 556 l 1,7,-1
 -5 690 l 1,4,-1
EndSplineSet
EndChar

StartChar: iacute
Encoding: 237 237 192
Width: 248
GlyphClass: 2
Flags: W
LayerCount: 2
Fore
SplineSet
80 0 m 1,0,-1
 80 470 l 1,1,-1
 168 470 l 1,2,-1
 168 0 l 1,3,-1
 80 0 l 1,0,-1
152 556 m 1,4,-1
 80 556 l 1,5,-1
 150 690 l 1,6,-1
 253 690 l 1,7,-1
 152 556 l 1,4,-1
EndSplineSet
EndChar

StartChar: icircumflex
Encoding: 238 238 193
Width: 248
GlyphClass: 2
Flags: W
LayerCount: 2
Fore
SplineSet
80 0 m 1,0,-1
 80 470 l 1,1,-1
 168 470 l 1,2,-1
 168 0 l 1,3,-1
 80 0 l 1,0,-1
269 556 m 1,4,-1
 193 556 l 1,5,-1
 124 640 l 1,6,-1
 54 556 l 1,7,-1
 -26 556 l 1,8,-1
 89 690 l 1,9,-1
 158 690 l 1,10,-1
 269 556 l 1,4,-1
EndSplineSet
EndChar

StartChar: idieresis
Encoding: 239 239 194
Width: 248
GlyphClass: 2
Flags: W
LayerCount: 2
Fore
SplineSet
80 0 m 1,0,-1
 80 470 l 1,1,-1
 168 470 l 1,2,-1
 168 0 l 1,3,-1
 80 0 l 1,0,-1
-14 623 m 0,4,5
 -14 642 -14 642 1 657 c 128,-1,6
 16 672 16 672 36 672 c 256,7,8
 56 672 56 672 71 657 c 128,-1,9
 86 642 86 642 86 623 c 0,10,11
 86 603 86 603 71 587.5 c 128,-1,12
 56 572 56 572 36 572 c 256,13,14
 16 572 16 572 1 587.5 c 128,-1,15
 -14 603 -14 603 -14 623 c 0,4,5
152 623 m 0,16,17
 152 642 152 642 167 657 c 128,-1,18
 182 672 182 672 202 672 c 256,19,20
 222 672 222 672 237 657 c 128,-1,21
 252 642 252 642 252 623 c 0,22,23
 252 603 252 603 237 587.5 c 128,-1,24
 222 572 222 572 202 572 c 256,25,26
 182 572 182 572 167 587.5 c 128,-1,27
 152 603 152 603 152 623 c 0,16,17
EndSplineSet
EndChar

StartChar: eth
Encoding: 240 240 195
Width: 528
GlyphClass: 2
Flags: W
LayerCount: 2
Fore
SplineSet
248 457 m 0,0,1
 285 457 285 457 320.5 441.5 c 128,-1,2
 356 426 356 426 379 398 c 1,3,-1
 382 398 l 1,4,5
 368 452 368 452 336 500 c 128,-1,6
 304 548 304 548 264 577 c 1,7,-1
 154 522 l 1,8,-1
 131 561 l 1,9,-1
 224 607 l 1,10,11
 201 621 201 621 178 630.5 c 128,-1,12
 155 640 155 640 126 648 c 1,13,-1
 159 705 l 1,14,15
 196 696 196 696 233.5 676.5 c 128,-1,16
 271 657 271 657 304 633 c 1,17,-1
 396 680 l 1,18,-1
 419 641 l 1,19,-1
 341 602 l 1,20,21
 366 575 366 575 391 541 c 128,-1,22
 416 507 416 507 435 464 c 128,-1,23
 454 421 454 421 466 368.5 c 128,-1,24
 478 316 478 316 478 252 c 0,25,26
 478 195 478 195 464 147 c 128,-1,27
 450 99 450 99 422 64.5 c 128,-1,28
 394 30 394 30 353 10.5 c 128,-1,29
 312 -9 312 -9 258 -9 c 0,30,31
 220 -9 220 -9 181.5 4.5 c 128,-1,32
 143 18 143 18 111.5 46 c 128,-1,33
 80 74 80 74 60 118 c 128,-1,34
 40 162 40 162 40 224 c 0,35,36
 40 279 40 279 56 322.5 c 128,-1,37
 72 366 72 366 100.5 396 c 128,-1,38
 129 426 129 426 166.5 441.5 c 128,-1,39
 204 457 204 457 248 457 c 0,0,1
260 390 m 0,40,41
 237 390 237 390 213.5 382 c 128,-1,42
 190 374 190 374 171 355 c 128,-1,43
 152 336 152 336 140.5 304.5 c 128,-1,44
 129 273 129 273 129 227 c 0,45,46
 129 179 129 179 141 147 c 128,-1,47
 153 115 153 115 172 95.5 c 128,-1,48
 191 76 191 76 215 67.5 c 128,-1,49
 239 59 239 59 263 59 c 0,50,51
 291 59 291 59 315 71.5 c 128,-1,52
 339 84 339 84 356 106.5 c 128,-1,53
 373 129 373 129 383 160 c 128,-1,54
 393 191 393 191 393 228 c 0,55,56
 393 267 393 267 382 297 c 128,-1,57
 371 327 371 327 352.5 347.5 c 128,-1,58
 334 368 334 368 310 379 c 128,-1,59
 286 390 286 390 260 390 c 0,40,41
EndSplineSet
EndChar

StartChar: ntilde
Encoding: 241 241 196
Width: 532
GlyphClass: 2
Flags: W
LayerCount: 2
Fore
SplineSet
154 0 m 1,0,-1
 66 0 l 1,1,-1
 66 470 l 1,2,-1
 135 470 l 1,3,-1
 148 405 l 1,4,5
 183 440 183 440 221.5 458.5 c 128,-1,6
 260 477 260 477 310 477 c 0,7,8
 382 477 382 477 423 436.5 c 128,-1,9
 464 396 464 396 464 324 c 2,10,-1
 464 0 l 1,11,-1
 376 0 l 1,12,-1
 376 311 l 2,13,14
 376 354 376 354 353.5 379.5 c 128,-1,15
 331 405 331 405 285 405 c 0,16,17
 215 405 215 405 154 342 c 1,18,-1
 154 0 l 1,0,-1
113 556 m 1,19,20
 113 602 113 602 133.5 634 c 128,-1,21
 154 666 154 666 200 666 c 0,22,23
 221 666 221 666 237.5 659 c 128,-1,24
 254 652 254 652 268.5 644 c 128,-1,25
 283 636 283 636 297 629 c 128,-1,26
 311 622 311 622 327 622 c 0,27,28
 347 622 347 622 355.5 637 c 128,-1,29
 364 652 364 652 366 669 c 1,30,-1
 416 669 l 1,31,32
 416 648 416 648 411 628.5 c 128,-1,33
 406 609 406 609 395.5 593.5 c 128,-1,34
 385 578 385 578 369.5 568.5 c 128,-1,35
 354 559 354 559 333 559 c 256,36,37
 312 559 312 559 293.5 565.5 c 128,-1,38
 275 572 275 572 259 580.5 c 128,-1,39
 243 589 243 589 229 595.5 c 128,-1,40
 215 602 215 602 203 602 c 0,41,42
 182 602 182 602 173.5 589 c 128,-1,43
 165 576 165 576 163 556 c 1,44,-1
 113 556 l 1,19,20
EndSplineSet
EndChar

StartChar: ograve
Encoding: 242 242 197
Width: 538
GlyphClass: 2
Flags: W
LayerCount: 2
Fore
SplineSet
499 240 m 0,0,1
 499 181 499 181 481 134.5 c 128,-1,2
 463 88 463 88 431.5 56 c 128,-1,3
 400 24 400 24 358 7.5 c 128,-1,4
 316 -9 316 -9 267 -9 c 256,5,6
 218 -9 218 -9 176.5 6.5 c 128,-1,7
 135 22 135 22 104.5 52.5 c 128,-1,8
 74 83 74 83 56.5 127.5 c 128,-1,9
 39 172 39 172 39 230 c 0,10,11
 39 289 39 289 57 335 c 128,-1,12
 75 381 75 381 106.5 412.5 c 128,-1,13
 138 444 138 444 180 460.5 c 128,-1,14
 222 477 222 477 271 477 c 256,15,16
 320 477 320 477 361.5 462 c 128,-1,17
 403 447 403 447 433.5 417 c 128,-1,18
 464 387 464 387 481.5 342.5 c 128,-1,19
 499 298 499 298 499 240 c 0,0,1
407 235 m 0,20,21
 407 282 407 282 395 315 c 128,-1,22
 383 348 383 348 363.5 369 c 128,-1,23
 344 390 344 390 319 399.5 c 128,-1,24
 294 409 294 409 268 409 c 256,25,26
 242 409 242 409 217 401 c 128,-1,27
 192 393 192 393 173 373 c 128,-1,28
 154 353 154 353 142.5 319.5 c 128,-1,29
 131 286 131 286 131 235 c 0,30,31
 131 188 131 188 143 154.5 c 128,-1,32
 155 121 155 121 174.5 100 c 128,-1,33
 194 79 194 79 219 69 c 128,-1,34
 244 59 244 59 270 59 c 256,35,36
 296 59 296 59 321 67.5 c 128,-1,37
 346 76 346 76 365 96.5 c 128,-1,38
 384 117 384 117 395.5 150.5 c 128,-1,39
 407 184 407 184 407 235 c 0,20,21
158 690 m 1,40,-1
 261 690 l 1,41,-1
 331 556 l 1,42,-1
 259 556 l 1,43,-1
 158 690 l 1,40,-1
EndSplineSet
EndChar

StartChar: oacute
Encoding: 243 243 198
Width: 538
GlyphClass: 2
Flags: W
LayerCount: 2
Fore
SplineSet
499 240 m 0,0,1
 499 181 499 181 481 134.5 c 128,-1,2
 463 88 463 88 431.5 56 c 128,-1,3
 400 24 400 24 358 7.5 c 128,-1,4
 316 -9 316 -9 267 -9 c 256,5,6
 218 -9 218 -9 176.5 6.5 c 128,-1,7
 135 22 135 22 104.5 52.5 c 128,-1,8
 74 83 74 83 56.5 127.5 c 128,-1,9
 39 172 39 172 39 230 c 0,10,11
 39 289 39 289 57 335 c 128,-1,12
 75 381 75 381 106.5 412.5 c 128,-1,13
 138 444 138 444 180 460.5 c 128,-1,14
 222 477 222 477 271 477 c 256,15,16
 320 477 320 477 361.5 462 c 128,-1,17
 403 447 403 447 433.5 417 c 128,-1,18
 464 387 464 387 481.5 342.5 c 128,-1,19
 499 298 499 298 499 240 c 0,0,1
407 235 m 0,20,21
 407 282 407 282 395 315 c 128,-1,22
 383 348 383 348 363.5 369 c 128,-1,23
 344 390 344 390 319 399.5 c 128,-1,24
 294 409 294 409 268 409 c 256,25,26
 242 409 242 409 217 401 c 128,-1,27
 192 393 192 393 173 373 c 128,-1,28
 154 353 154 353 142.5 319.5 c 128,-1,29
 131 286 131 286 131 235 c 0,30,31
 131 188 131 188 143 154.5 c 128,-1,32
 155 121 155 121 174.5 100 c 128,-1,33
 194 79 194 79 219 69 c 128,-1,34
 244 59 244 59 270 59 c 256,35,36
 296 59 296 59 321 67.5 c 128,-1,37
 346 76 346 76 365 96.5 c 128,-1,38
 384 117 384 117 395.5 150.5 c 128,-1,39
 407 184 407 184 407 235 c 0,20,21
287 556 m 1,40,-1
 215 556 l 1,41,-1
 285 690 l 1,42,-1
 388 690 l 1,43,-1
 287 556 l 1,40,-1
EndSplineSet
EndChar

StartChar: ocircumflex
Encoding: 244 244 199
Width: 538
GlyphClass: 2
Flags: W
LayerCount: 2
Fore
SplineSet
499 240 m 0,0,1
 499 181 499 181 481 134.5 c 128,-1,2
 463 88 463 88 431.5 56 c 128,-1,3
 400 24 400 24 358 7.5 c 128,-1,4
 316 -9 316 -9 267 -9 c 256,5,6
 218 -9 218 -9 176.5 6.5 c 128,-1,7
 135 22 135 22 104.5 52.5 c 128,-1,8
 74 83 74 83 56.5 127.5 c 128,-1,9
 39 172 39 172 39 230 c 0,10,11
 39 289 39 289 57 335 c 128,-1,12
 75 381 75 381 106.5 412.5 c 128,-1,13
 138 444 138 444 180 460.5 c 128,-1,14
 222 477 222 477 271 477 c 256,15,16
 320 477 320 477 361.5 462 c 128,-1,17
 403 447 403 447 433.5 417 c 128,-1,18
 464 387 464 387 481.5 342.5 c 128,-1,19
 499 298 499 298 499 240 c 0,0,1
407 235 m 0,20,21
 407 282 407 282 395 315 c 128,-1,22
 383 348 383 348 363.5 369 c 128,-1,23
 344 390 344 390 319 399.5 c 128,-1,24
 294 409 294 409 268 409 c 256,25,26
 242 409 242 409 217 401 c 128,-1,27
 192 393 192 393 173 373 c 128,-1,28
 154 353 154 353 142.5 319.5 c 128,-1,29
 131 286 131 286 131 235 c 0,30,31
 131 188 131 188 143 154.5 c 128,-1,32
 155 121 155 121 174.5 100 c 128,-1,33
 194 79 194 79 219 69 c 128,-1,34
 244 59 244 59 270 59 c 256,35,36
 296 59 296 59 321 67.5 c 128,-1,37
 346 76 346 76 365 96.5 c 128,-1,38
 384 117 384 117 395.5 150.5 c 128,-1,39
 407 184 407 184 407 235 c 0,20,21
414 556 m 1,40,-1
 338 556 l 1,41,-1
 268 640 l 1,42,-1
 198 556 l 1,43,-1
 118 556 l 1,44,-1
 233 690 l 1,45,-1
 302 690 l 1,46,-1
 414 556 l 1,40,-1
EndSplineSet
EndChar

StartChar: otilde
Encoding: 245 245 200
Width: 538
GlyphClass: 2
Flags: W
LayerCount: 2
Fore
SplineSet
499 240 m 0,0,1
 499 181 499 181 481 134.5 c 128,-1,2
 463 88 463 88 431.5 56 c 128,-1,3
 400 24 400 24 358 7.5 c 128,-1,4
 316 -9 316 -9 267 -9 c 256,5,6
 218 -9 218 -9 176.5 6.5 c 128,-1,7
 135 22 135 22 104.5 52.5 c 128,-1,8
 74 83 74 83 56.5 127.5 c 128,-1,9
 39 172 39 172 39 230 c 0,10,11
 39 289 39 289 57 335 c 128,-1,12
 75 381 75 381 106.5 412.5 c 128,-1,13
 138 444 138 444 180 460.5 c 128,-1,14
 222 477 222 477 271 477 c 256,15,16
 320 477 320 477 361.5 462 c 128,-1,17
 403 447 403 447 433.5 417 c 128,-1,18
 464 387 464 387 481.5 342.5 c 128,-1,19
 499 298 499 298 499 240 c 0,0,1
407 235 m 0,20,21
 407 282 407 282 395 315 c 128,-1,22
 383 348 383 348 363.5 369 c 128,-1,23
 344 390 344 390 319 399.5 c 128,-1,24
 294 409 294 409 268 409 c 256,25,26
 242 409 242 409 217 401 c 128,-1,27
 192 393 192 393 173 373 c 128,-1,28
 154 353 154 353 142.5 319.5 c 128,-1,29
 131 286 131 286 131 235 c 0,30,31
 131 188 131 188 143 154.5 c 128,-1,32
 155 121 155 121 174.5 100 c 128,-1,33
 194 79 194 79 219 69 c 128,-1,34
 244 59 244 59 270 59 c 256,35,36
 296 59 296 59 321 67.5 c 128,-1,37
 346 76 346 76 365 96.5 c 128,-1,38
 384 117 384 117 395.5 150.5 c 128,-1,39
 407 184 407 184 407 235 c 0,20,21
117 556 m 1,40,41
 117 602 117 602 137.5 634 c 128,-1,42
 158 666 158 666 204 666 c 0,43,44
 225 666 225 666 241.5 659 c 128,-1,45
 258 652 258 652 272.5 644 c 128,-1,46
 287 636 287 636 301 629 c 128,-1,47
 315 622 315 622 331 622 c 0,48,49
 351 622 351 622 359.5 637 c 128,-1,50
 368 652 368 652 370 669 c 1,51,-1
 420 669 l 1,52,53
 420 648 420 648 415 628.5 c 128,-1,54
 410 609 410 609 399.5 593.5 c 128,-1,55
 389 578 389 578 373.5 568.5 c 128,-1,56
 358 559 358 559 337 559 c 256,57,58
 316 559 316 559 297.5 565.5 c 128,-1,59
 279 572 279 572 263 580.5 c 128,-1,60
 247 589 247 589 233 595.5 c 128,-1,61
 219 602 219 602 207 602 c 0,62,63
 186 602 186 602 177.5 589 c 128,-1,64
 169 576 169 576 167 556 c 1,65,-1
 117 556 l 1,40,41
EndSplineSet
EndChar

